G04 #@! TF.GenerationSoftware,KiCad,Pcbnew,5.0.2+dfsg1-1*
G04 #@! TF.CreationDate,2021-09-10T13:15:43+02:00*
G04 #@! TF.ProjectId,facet_v1,66616365-745f-4763-912e-6b696361645f,rev?*
G04 #@! TF.SameCoordinates,Original*
G04 #@! TF.FileFunction,Soldermask,Top*
G04 #@! TF.FilePolarity,Negative*
%FSLAX46Y46*%
G04 Gerber Fmt 4.6, Leading zero omitted, Abs format (unit mm)*
G04 Created by KiCad (PCBNEW 5.0.2+dfsg1-1) date Fri 10 Sep 2021 01:15:43 PM CEST*
%MOMM*%
%LPD*%
G01*
G04 APERTURE LIST*
%ADD10C,0.000001*%
G04 APERTURE END LIST*
D10*
G04 #@! TO.C,*
G36*
X30472125Y11298342D02*
X30503617Y11276454D01*
X30536919Y11257282D01*
X30571852Y11240966D01*
X30608237Y11227645D01*
X30645894Y11217456D01*
X30684643Y11210540D01*
X30724305Y11207034D01*
X30764701Y11207079D01*
X30805651Y11210812D01*
X32391135Y11427413D01*
X32435159Y11435641D01*
X32477280Y11447895D01*
X32517338Y11463942D01*
X32555169Y11483550D01*
X32590614Y11506490D01*
X32623509Y11532528D01*
X32653694Y11561433D01*
X32681007Y11592973D01*
X32705286Y11626917D01*
X32726371Y11663034D01*
X32744098Y11701091D01*
X32758307Y11740857D01*
X32768836Y11782101D01*
X35272958Y12124027D01*
X35151301Y13015785D01*
X32647179Y12673859D01*
X32625936Y12710687D01*
X32601533Y12745109D01*
X32574191Y12776946D01*
X32544131Y12806019D01*
X32511575Y12832147D01*
X32476743Y12855152D01*
X32439856Y12874854D01*
X32401134Y12891073D01*
X32360800Y12903632D01*
X32319073Y12912349D01*
X32276175Y12917046D01*
X32232327Y12917543D01*
X32187749Y12913661D01*
X30602265Y12697059D01*
X30556869Y12688521D01*
X30513433Y12675731D01*
X30472149Y12658939D01*
X30433205Y12638396D01*
X30396791Y12614352D01*
X30363098Y12587057D01*
X30332315Y12556762D01*
X30304633Y12523718D01*
X30280241Y12488174D01*
X30259329Y12450382D01*
X30242087Y12410591D01*
X30228704Y12369053D01*
X30219372Y12326018D01*
X30214279Y12281735D01*
X30213616Y12236457D01*
X30217572Y12190432D01*
X30298582Y11595779D01*
X30305958Y11555343D01*
X30316728Y11516453D01*
X30330712Y11479239D01*
X30347732Y11443828D01*
X30367609Y11410350D01*
X30390165Y11378933D01*
X30415222Y11349707D01*
X30442600Y11322799D01*
X30472121Y11298340D01*
X30472125Y11298342D01*
X30472125Y11298342D01*
G37*
X30472125Y11298342D02*
X30503617Y11276454D01*
X30536919Y11257282D01*
X30571852Y11240966D01*
X30608237Y11227645D01*
X30645894Y11217456D01*
X30684643Y11210540D01*
X30724305Y11207034D01*
X30764701Y11207079D01*
X30805651Y11210812D01*
X32391135Y11427413D01*
X32435159Y11435641D01*
X32477280Y11447895D01*
X32517338Y11463942D01*
X32555169Y11483550D01*
X32590614Y11506490D01*
X32623509Y11532528D01*
X32653694Y11561433D01*
X32681007Y11592973D01*
X32705286Y11626917D01*
X32726371Y11663034D01*
X32744098Y11701091D01*
X32758307Y11740857D01*
X32768836Y11782101D01*
X35272958Y12124027D01*
X35151301Y13015785D01*
X32647179Y12673859D01*
X32625936Y12710687D01*
X32601533Y12745109D01*
X32574191Y12776946D01*
X32544131Y12806019D01*
X32511575Y12832147D01*
X32476743Y12855152D01*
X32439856Y12874854D01*
X32401134Y12891073D01*
X32360800Y12903632D01*
X32319073Y12912349D01*
X32276175Y12917046D01*
X32232327Y12917543D01*
X32187749Y12913661D01*
X30602265Y12697059D01*
X30556869Y12688521D01*
X30513433Y12675731D01*
X30472149Y12658939D01*
X30433205Y12638396D01*
X30396791Y12614352D01*
X30363098Y12587057D01*
X30332315Y12556762D01*
X30304633Y12523718D01*
X30280241Y12488174D01*
X30259329Y12450382D01*
X30242087Y12410591D01*
X30228704Y12369053D01*
X30219372Y12326018D01*
X30214279Y12281735D01*
X30213616Y12236457D01*
X30217572Y12190432D01*
X30298582Y11595779D01*
X30305958Y11555343D01*
X30316728Y11516453D01*
X30330712Y11479239D01*
X30347732Y11443828D01*
X30367609Y11410350D01*
X30390165Y11378933D01*
X30415222Y11349707D01*
X30442600Y11322799D01*
X30472121Y11298340D01*
X30472125Y11298342D01*
G36*
X-2569438Y32388378D02*
X-2534847Y32371850D01*
X-2498934Y32358292D01*
X-2461893Y32347812D01*
X-2423913Y32340519D01*
X-2385186Y32336520D01*
X-2345904Y32335924D01*
X-2306257Y32338840D01*
X-2266437Y32345375D01*
X-2226635Y32355638D01*
X-1652426Y32531302D01*
X-1608994Y32547023D01*
X-1568185Y32566631D01*
X-1530147Y32589846D01*
X-1495025Y32616391D01*
X-1462967Y32645987D01*
X-1434117Y32678355D01*
X-1408624Y32713219D01*
X-1386634Y32750299D01*
X-1368292Y32789317D01*
X-1353746Y32829994D01*
X-1343142Y32872054D01*
X-1336625Y32915216D01*
X-1334344Y32959204D01*
X-1336444Y33003738D01*
X-1343071Y33048541D01*
X-1354373Y33093334D01*
X-1822496Y34623131D01*
X-1837676Y34665223D01*
X-1856524Y34704816D01*
X-1878786Y34741785D01*
X-1904205Y34776004D01*
X-1932527Y34807347D01*
X-1963496Y34835691D01*
X-1996856Y34860909D01*
X-2032352Y34882875D01*
X-2069728Y34901466D01*
X-2108729Y34916554D01*
X-2149100Y34928016D01*
X-2190585Y34935725D01*
X-2232928Y34939556D01*
X-2973130Y37356091D01*
X-3833652Y37092394D01*
X-3093449Y34675860D01*
X-3126469Y34648999D01*
X-3156605Y34619418D01*
X-3183713Y34587360D01*
X-3207651Y34553068D01*
X-3228277Y34516788D01*
X-3245449Y34478762D01*
X-3259023Y34439235D01*
X-3268858Y34398451D01*
X-3274811Y34356653D01*
X-3276739Y34314085D01*
X-3274500Y34270992D01*
X-3267951Y34227616D01*
X-3256950Y34184203D01*
X-2788393Y32654128D01*
X-2774616Y32615400D01*
X-2757747Y32578740D01*
X-2737981Y32544248D01*
X-2715513Y32512023D01*
X-2690537Y32482164D01*
X-2663247Y32454771D01*
X-2633839Y32429942D01*
X-2602506Y32407778D01*
X-2569443Y32388376D01*
X-2569438Y32388378D01*
X-2569438Y32388378D01*
G37*
X-2569438Y32388378D02*
X-2534847Y32371850D01*
X-2498934Y32358292D01*
X-2461893Y32347812D01*
X-2423913Y32340519D01*
X-2385186Y32336520D01*
X-2345904Y32335924D01*
X-2306257Y32338840D01*
X-2266437Y32345375D01*
X-2226635Y32355638D01*
X-1652426Y32531302D01*
X-1608994Y32547023D01*
X-1568185Y32566631D01*
X-1530147Y32589846D01*
X-1495025Y32616391D01*
X-1462967Y32645987D01*
X-1434117Y32678355D01*
X-1408624Y32713219D01*
X-1386634Y32750299D01*
X-1368292Y32789317D01*
X-1353746Y32829994D01*
X-1343142Y32872054D01*
X-1336625Y32915216D01*
X-1334344Y32959204D01*
X-1336444Y33003738D01*
X-1343071Y33048541D01*
X-1354373Y33093334D01*
X-1822496Y34623131D01*
X-1837676Y34665223D01*
X-1856524Y34704816D01*
X-1878786Y34741785D01*
X-1904205Y34776004D01*
X-1932527Y34807347D01*
X-1963496Y34835691D01*
X-1996856Y34860909D01*
X-2032352Y34882875D01*
X-2069728Y34901466D01*
X-2108729Y34916554D01*
X-2149100Y34928016D01*
X-2190585Y34935725D01*
X-2232928Y34939556D01*
X-2973130Y37356091D01*
X-3833652Y37092394D01*
X-3093449Y34675860D01*
X-3126469Y34648999D01*
X-3156605Y34619418D01*
X-3183713Y34587360D01*
X-3207651Y34553068D01*
X-3228277Y34516788D01*
X-3245449Y34478762D01*
X-3259023Y34439235D01*
X-3268858Y34398451D01*
X-3274811Y34356653D01*
X-3276739Y34314085D01*
X-3274500Y34270992D01*
X-3267951Y34227616D01*
X-3256950Y34184203D01*
X-2788393Y32654128D01*
X-2774616Y32615400D01*
X-2757747Y32578740D01*
X-2737981Y32544248D01*
X-2715513Y32512023D01*
X-2690537Y32482164D01*
X-2663247Y32454771D01*
X-2633839Y32429942D01*
X-2602506Y32407778D01*
X-2569443Y32388376D01*
X-2569438Y32388378D01*
G36*
X-267085Y26444540D02*
X-231263Y26431140D01*
X-192652Y26427407D01*
X-152921Y26434100D01*
X898724Y26755915D01*
X935375Y26772714D01*
X965246Y26797619D01*
X987401Y26828874D01*
X1000905Y26864722D01*
X1004825Y26903404D01*
X998224Y26943164D01*
X808039Y27564688D01*
X791235Y27601334D01*
X766333Y27631201D01*
X735085Y27653353D01*
X699243Y27666858D01*
X660561Y27670781D01*
X620791Y27664188D01*
X-430856Y27342374D01*
X-467521Y27325539D01*
X-497441Y27300552D01*
X-519665Y27269193D01*
X-533240Y27233243D01*
X-537214Y27194482D01*
X-530636Y27154690D01*
X-340173Y26533601D01*
X-323339Y26496856D01*
X-298377Y26466800D01*
X-267083Y26444541D01*
X-267085Y26444540D01*
X-267085Y26444540D01*
G37*
X-267085Y26444540D02*
X-231263Y26431140D01*
X-192652Y26427407D01*
X-152921Y26434100D01*
X898724Y26755915D01*
X935375Y26772714D01*
X965246Y26797619D01*
X987401Y26828874D01*
X1000905Y26864722D01*
X1004825Y26903404D01*
X998224Y26943164D01*
X808039Y27564688D01*
X791235Y27601334D01*
X766333Y27631201D01*
X735085Y27653353D01*
X699243Y27666858D01*
X660561Y27670781D01*
X620791Y27664188D01*
X-430856Y27342374D01*
X-467521Y27325539D01*
X-497441Y27300552D01*
X-519665Y27269193D01*
X-533240Y27233243D01*
X-537214Y27194482D01*
X-530636Y27154690D01*
X-340173Y26533601D01*
X-323339Y26496856D01*
X-298377Y26466800D01*
X-267083Y26444541D01*
X-267085Y26444540D01*
G36*
X9675493Y18769129D02*
X9715615Y18748240D01*
X9757550Y18735178D01*
X9800335Y18729732D01*
X9843006Y18731688D01*
X9884601Y18740836D01*
X9924156Y18756963D01*
X9960708Y18779857D01*
X9993295Y18809307D01*
X10020952Y18845099D01*
X10074682Y18929119D01*
X10095568Y18969241D01*
X10108629Y19011176D01*
X10114075Y19053961D01*
X10112119Y19096633D01*
X10102972Y19138228D01*
X10086846Y19177784D01*
X10063953Y19214336D01*
X10034504Y19246922D01*
X9998712Y19274579D01*
X9030029Y19894010D01*
X8989907Y19914896D01*
X8947972Y19927957D01*
X8905187Y19933403D01*
X8862515Y19931447D01*
X8820920Y19922300D01*
X8781365Y19906174D01*
X8744812Y19883281D01*
X8712226Y19853832D01*
X8684569Y19818040D01*
X8630839Y19734020D01*
X8609950Y19693898D01*
X8596888Y19651962D01*
X8591442Y19609177D01*
X8593398Y19566506D01*
X8602546Y19524911D01*
X8618673Y19485356D01*
X8641567Y19448804D01*
X8671017Y19416218D01*
X8706809Y19388561D01*
X9675493Y18769129D01*
X9675493Y18769129D01*
G37*
X9675493Y18769129D02*
X9715615Y18748240D01*
X9757550Y18735178D01*
X9800335Y18729732D01*
X9843006Y18731688D01*
X9884601Y18740836D01*
X9924156Y18756963D01*
X9960708Y18779857D01*
X9993295Y18809307D01*
X10020952Y18845099D01*
X10074682Y18929119D01*
X10095568Y18969241D01*
X10108629Y19011176D01*
X10114075Y19053961D01*
X10112119Y19096633D01*
X10102972Y19138228D01*
X10086846Y19177784D01*
X10063953Y19214336D01*
X10034504Y19246922D01*
X9998712Y19274579D01*
X9030029Y19894010D01*
X8989907Y19914896D01*
X8947972Y19927957D01*
X8905187Y19933403D01*
X8862515Y19931447D01*
X8820920Y19922300D01*
X8781365Y19906174D01*
X8744812Y19883281D01*
X8712226Y19853832D01*
X8684569Y19818040D01*
X8630839Y19734020D01*
X8609950Y19693898D01*
X8596888Y19651962D01*
X8591442Y19609177D01*
X8593398Y19566506D01*
X8602546Y19524911D01*
X8618673Y19485356D01*
X8641567Y19448804D01*
X8671017Y19416218D01*
X8706809Y19388561D01*
X9675493Y18769129D01*
G36*
X14098780Y15940623D02*
X14138887Y15919746D01*
X14180782Y15906710D01*
X14223508Y15901300D01*
X14266111Y15903300D01*
X14307634Y15912492D01*
X14347121Y15928662D01*
X14383616Y15951593D01*
X14416163Y15981069D01*
X14443805Y16016873D01*
X14497535Y16100893D01*
X14518439Y16141007D01*
X14531541Y16182917D01*
X14537046Y16225665D01*
X14535158Y16268293D01*
X14526083Y16309842D01*
X14510024Y16349354D01*
X14487187Y16385868D01*
X14457775Y16418428D01*
X14421995Y16446074D01*
X13452877Y17065784D01*
X13412755Y17086670D01*
X13370820Y17099731D01*
X13328035Y17105177D01*
X13285363Y17103221D01*
X13243767Y17094074D01*
X13204212Y17077948D01*
X13167659Y17055055D01*
X13135074Y17025606D01*
X13107418Y16989814D01*
X13053688Y16905794D01*
X13032802Y16865672D01*
X13019741Y16823737D01*
X13014295Y16780952D01*
X13016251Y16738280D01*
X13025398Y16696685D01*
X13041524Y16657130D01*
X13064417Y16620577D01*
X13093866Y16587991D01*
X13129658Y16560334D01*
X14098780Y15940623D01*
X14098780Y15940623D01*
G37*
X14098780Y15940623D02*
X14138887Y15919746D01*
X14180782Y15906710D01*
X14223508Y15901300D01*
X14266111Y15903300D01*
X14307634Y15912492D01*
X14347121Y15928662D01*
X14383616Y15951593D01*
X14416163Y15981069D01*
X14443805Y16016873D01*
X14497535Y16100893D01*
X14518439Y16141007D01*
X14531541Y16182917D01*
X14537046Y16225665D01*
X14535158Y16268293D01*
X14526083Y16309842D01*
X14510024Y16349354D01*
X14487187Y16385868D01*
X14457775Y16418428D01*
X14421995Y16446074D01*
X13452877Y17065784D01*
X13412755Y17086670D01*
X13370820Y17099731D01*
X13328035Y17105177D01*
X13285363Y17103221D01*
X13243767Y17094074D01*
X13204212Y17077948D01*
X13167659Y17055055D01*
X13135074Y17025606D01*
X13107418Y16989814D01*
X13053688Y16905794D01*
X13032802Y16865672D01*
X13019741Y16823737D01*
X13014295Y16780952D01*
X13016251Y16738280D01*
X13025398Y16696685D01*
X13041524Y16657130D01*
X13064417Y16620577D01*
X13093866Y16587991D01*
X13129658Y16560334D01*
X14098780Y15940623D01*
G36*
X7369472Y20035794D02*
X7406058Y20018771D01*
X7444489Y20012181D01*
X7482790Y20015592D01*
X7518988Y20028567D01*
X7551108Y20050672D01*
X7577176Y20081474D01*
X7927121Y20628726D01*
X7944144Y20665312D01*
X7950734Y20703742D01*
X7947324Y20742044D01*
X7934348Y20778242D01*
X7912243Y20810362D01*
X7881441Y20836430D01*
X7460445Y21105639D01*
X7423891Y21122642D01*
X7385541Y21129179D01*
X7347344Y21125701D01*
X7311251Y21112659D01*
X7279212Y21090502D01*
X7253177Y21059679D01*
X6903235Y20512428D01*
X6886179Y20475863D01*
X6879508Y20437483D01*
X6882812Y20399248D01*
X6895682Y20363117D01*
X6917706Y20331049D01*
X6948475Y20305003D01*
X7369472Y20035794D01*
X7369472Y20035794D01*
G37*
X7369472Y20035794D02*
X7406058Y20018771D01*
X7444489Y20012181D01*
X7482790Y20015592D01*
X7518988Y20028567D01*
X7551108Y20050672D01*
X7577176Y20081474D01*
X7927121Y20628726D01*
X7944144Y20665312D01*
X7950734Y20703742D01*
X7947324Y20742044D01*
X7934348Y20778242D01*
X7912243Y20810362D01*
X7881441Y20836430D01*
X7460445Y21105639D01*
X7423891Y21122642D01*
X7385541Y21129179D01*
X7347344Y21125701D01*
X7311251Y21112659D01*
X7279212Y21090502D01*
X7253177Y21059679D01*
X6903235Y20512428D01*
X6886179Y20475863D01*
X6879508Y20437483D01*
X6882812Y20399248D01*
X6895682Y20363117D01*
X6917706Y20331049D01*
X6948475Y20305003D01*
X7369472Y20035794D01*
G36*
X332669Y24484623D02*
X368604Y24471151D01*
X407426Y24467285D01*
X447267Y24473913D01*
X1498913Y24795728D01*
X1535561Y24812530D01*
X1565430Y24837437D01*
X1587586Y24868691D01*
X1601092Y24904537D01*
X1605013Y24943217D01*
X1598413Y24982977D01*
X1408228Y25604501D01*
X1391428Y25641144D01*
X1366527Y25671009D01*
X1335278Y25693162D01*
X1299434Y25706669D01*
X1260750Y25710593D01*
X1220979Y25704001D01*
X169334Y25382187D01*
X132659Y25365352D01*
X102735Y25340365D01*
X80514Y25309006D01*
X66943Y25273055D01*
X62974Y25234294D01*
X69554Y25194502D01*
X259739Y24572978D01*
X276531Y24536417D01*
X301417Y24506702D01*
X332669Y24484628D01*
X332669Y24484623D01*
X332669Y24484623D01*
G37*
X332669Y24484623D02*
X368604Y24471151D01*
X407426Y24467285D01*
X447267Y24473913D01*
X1498913Y24795728D01*
X1535561Y24812530D01*
X1565430Y24837437D01*
X1587586Y24868691D01*
X1601092Y24904537D01*
X1605013Y24943217D01*
X1598413Y24982977D01*
X1408228Y25604501D01*
X1391428Y25641144D01*
X1366527Y25671009D01*
X1335278Y25693162D01*
X1299434Y25706669D01*
X1260750Y25710593D01*
X1220979Y25704001D01*
X169334Y25382187D01*
X132659Y25365352D01*
X102735Y25340365D01*
X80514Y25309006D01*
X66943Y25273055D01*
X62974Y25234294D01*
X69554Y25194502D01*
X259739Y24572978D01*
X276531Y24536417D01*
X301417Y24506702D01*
X332669Y24484628D01*
X332669Y24484623D01*
G36*
X31643395Y4019260D02*
X31678821Y4013634D01*
X31714859Y4010450D01*
X31751497Y4010221D01*
X31788720Y4013460D01*
X33374205Y4230062D01*
X33418196Y4238284D01*
X33460306Y4250530D01*
X33500368Y4266570D01*
X33538220Y4286171D01*
X33573698Y4309099D01*
X33606637Y4335124D01*
X33636873Y4364012D01*
X33664242Y4395532D01*
X33688580Y4429451D01*
X33709723Y4465537D01*
X33727507Y4503557D01*
X33741768Y4543279D01*
X33752341Y4584471D01*
X36256304Y4927110D01*
X36134369Y5818431D01*
X33630682Y5476228D01*
X33609465Y5513136D01*
X33585072Y5547624D01*
X33557727Y5579513D01*
X33527652Y5608626D01*
X33495068Y5634784D01*
X33460200Y5657809D01*
X33423269Y5677523D01*
X33384497Y5693749D01*
X33344108Y5706308D01*
X33302324Y5715022D01*
X33259366Y5719714D01*
X33215459Y5720205D01*
X33170824Y5716317D01*
X31585618Y5500150D01*
X31540218Y5491609D01*
X31496774Y5478806D01*
X31455476Y5461994D01*
X31416514Y5441423D01*
X31380079Y5417346D01*
X31346363Y5390015D01*
X31315555Y5359681D01*
X31287847Y5326595D01*
X31263429Y5291011D01*
X31242491Y5253179D01*
X31225226Y5213351D01*
X31211822Y5171779D01*
X31202472Y5128714D01*
X31197365Y5084410D01*
X31196693Y5039116D01*
X31200646Y4993086D01*
X31246986Y4653083D01*
X31268988Y4620268D01*
X31290886Y4587403D01*
X31312676Y4554488D01*
X31334354Y4521519D01*
X31355915Y4488496D01*
X31377356Y4455415D01*
X31398674Y4422276D01*
X31419864Y4389076D01*
X31440922Y4355813D01*
X31461844Y4322485D01*
X31482627Y4289090D01*
X31503266Y4255627D01*
X31523758Y4222093D01*
X31544099Y4188486D01*
X31564285Y4154805D01*
X31584312Y4121047D01*
X31604176Y4087210D01*
X31623873Y4053293D01*
X31643399Y4019294D01*
X31643395Y4019260D01*
X31643395Y4019260D01*
G37*
X31643395Y4019260D02*
X31678821Y4013634D01*
X31714859Y4010450D01*
X31751497Y4010221D01*
X31788720Y4013460D01*
X33374205Y4230062D01*
X33418196Y4238284D01*
X33460306Y4250530D01*
X33500368Y4266570D01*
X33538220Y4286171D01*
X33573698Y4309099D01*
X33606637Y4335124D01*
X33636873Y4364012D01*
X33664242Y4395532D01*
X33688580Y4429451D01*
X33709723Y4465537D01*
X33727507Y4503557D01*
X33741768Y4543279D01*
X33752341Y4584471D01*
X36256304Y4927110D01*
X36134369Y5818431D01*
X33630682Y5476228D01*
X33609465Y5513136D01*
X33585072Y5547624D01*
X33557727Y5579513D01*
X33527652Y5608626D01*
X33495068Y5634784D01*
X33460200Y5657809D01*
X33423269Y5677523D01*
X33384497Y5693749D01*
X33344108Y5706308D01*
X33302324Y5715022D01*
X33259366Y5719714D01*
X33215459Y5720205D01*
X33170824Y5716317D01*
X31585618Y5500150D01*
X31540218Y5491609D01*
X31496774Y5478806D01*
X31455476Y5461994D01*
X31416514Y5441423D01*
X31380079Y5417346D01*
X31346363Y5390015D01*
X31315555Y5359681D01*
X31287847Y5326595D01*
X31263429Y5291011D01*
X31242491Y5253179D01*
X31225226Y5213351D01*
X31211822Y5171779D01*
X31202472Y5128714D01*
X31197365Y5084410D01*
X31196693Y5039116D01*
X31200646Y4993086D01*
X31246986Y4653083D01*
X31268988Y4620268D01*
X31290886Y4587403D01*
X31312676Y4554488D01*
X31334354Y4521519D01*
X31355915Y4488496D01*
X31377356Y4455415D01*
X31398674Y4422276D01*
X31419864Y4389076D01*
X31440922Y4355813D01*
X31461844Y4322485D01*
X31482627Y4289090D01*
X31503266Y4255627D01*
X31523758Y4222093D01*
X31544099Y4188486D01*
X31564285Y4154805D01*
X31584312Y4121047D01*
X31604176Y4087210D01*
X31623873Y4053293D01*
X31643399Y4019294D01*
X31643395Y4019260D01*
G36*
X-9514921Y30261585D02*
X-9480330Y30245057D01*
X-9444417Y30231500D01*
X-9407376Y30221021D01*
X-9369396Y30213729D01*
X-9330669Y30209731D01*
X-9291386Y30209135D01*
X-9251739Y30212051D01*
X-9211919Y30218584D01*
X-9172117Y30228845D01*
X-8597909Y30404509D01*
X-8554476Y30420230D01*
X-8513667Y30439838D01*
X-8475628Y30463053D01*
X-8440506Y30489597D01*
X-8408447Y30519193D01*
X-8379598Y30551562D01*
X-8354105Y30586425D01*
X-8332114Y30623505D01*
X-8313773Y30662522D01*
X-8299226Y30703200D01*
X-8288622Y30745259D01*
X-8282106Y30788422D01*
X-8279825Y30832410D01*
X-8281926Y30876944D01*
X-8288554Y30921748D01*
X-8299856Y30966541D01*
X-8767980Y32496337D01*
X-8783158Y32538429D01*
X-8802005Y32578022D01*
X-8824266Y32614991D01*
X-8849685Y32649210D01*
X-8878007Y32680554D01*
X-8908975Y32708898D01*
X-8942336Y32734116D01*
X-8977832Y32756083D01*
X-9015209Y32774674D01*
X-9054210Y32789764D01*
X-9094580Y32801227D01*
X-9136064Y32808937D01*
X-9178406Y32812771D01*
X-9918608Y35229305D01*
X-10779130Y34965611D01*
X-10038927Y32549075D01*
X-10071947Y32522214D01*
X-10102082Y32492633D01*
X-10129190Y32460574D01*
X-10153129Y32426283D01*
X-10173755Y32390003D01*
X-10190927Y32351977D01*
X-10204501Y32312450D01*
X-10214336Y32271665D01*
X-10220288Y32229867D01*
X-10222217Y32187299D01*
X-10219977Y32144206D01*
X-10213429Y32100830D01*
X-10202428Y32057417D01*
X-9733870Y30527342D01*
X-9720093Y30488614D01*
X-9703225Y30451954D01*
X-9683459Y30417462D01*
X-9660992Y30385238D01*
X-9636016Y30355379D01*
X-9608727Y30327986D01*
X-9579319Y30303157D01*
X-9547986Y30280992D01*
X-9514922Y30261590D01*
X-9514921Y30261585D01*
X-9514921Y30261585D01*
G37*
X-9514921Y30261585D02*
X-9480330Y30245057D01*
X-9444417Y30231500D01*
X-9407376Y30221021D01*
X-9369396Y30213729D01*
X-9330669Y30209731D01*
X-9291386Y30209135D01*
X-9251739Y30212051D01*
X-9211919Y30218584D01*
X-9172117Y30228845D01*
X-8597909Y30404509D01*
X-8554476Y30420230D01*
X-8513667Y30439838D01*
X-8475628Y30463053D01*
X-8440506Y30489597D01*
X-8408447Y30519193D01*
X-8379598Y30551562D01*
X-8354105Y30586425D01*
X-8332114Y30623505D01*
X-8313773Y30662522D01*
X-8299226Y30703200D01*
X-8288622Y30745259D01*
X-8282106Y30788422D01*
X-8279825Y30832410D01*
X-8281926Y30876944D01*
X-8288554Y30921748D01*
X-8299856Y30966541D01*
X-8767980Y32496337D01*
X-8783158Y32538429D01*
X-8802005Y32578022D01*
X-8824266Y32614991D01*
X-8849685Y32649210D01*
X-8878007Y32680554D01*
X-8908975Y32708898D01*
X-8942336Y32734116D01*
X-8977832Y32756083D01*
X-9015209Y32774674D01*
X-9054210Y32789764D01*
X-9094580Y32801227D01*
X-9136064Y32808937D01*
X-9178406Y32812771D01*
X-9918608Y35229305D01*
X-10779130Y34965611D01*
X-10038927Y32549075D01*
X-10071947Y32522214D01*
X-10102082Y32492633D01*
X-10129190Y32460574D01*
X-10153129Y32426283D01*
X-10173755Y32390003D01*
X-10190927Y32351977D01*
X-10204501Y32312450D01*
X-10214336Y32271665D01*
X-10220288Y32229867D01*
X-10222217Y32187299D01*
X-10219977Y32144206D01*
X-10213429Y32100830D01*
X-10202428Y32057417D01*
X-9733870Y30527342D01*
X-9720093Y30488614D01*
X-9703225Y30451954D01*
X-9683459Y30417462D01*
X-9660992Y30385238D01*
X-9636016Y30355379D01*
X-9608727Y30327986D01*
X-9579319Y30303157D01*
X-9547986Y30280992D01*
X-9514922Y30261590D01*
X-9514921Y30261585D01*
G36*
X8991193Y17699005D02*
X9031315Y17678116D01*
X9073250Y17665054D01*
X9116035Y17659608D01*
X9158706Y17661564D01*
X9200301Y17670712D01*
X9239856Y17686839D01*
X9276409Y17709733D01*
X9308995Y17739183D01*
X9336653Y17774975D01*
X9390663Y17859435D01*
X9411542Y17899544D01*
X9424579Y17941440D01*
X9429988Y17984168D01*
X9427987Y18026771D01*
X9418793Y18068294D01*
X9402622Y18107781D01*
X9379690Y18144274D01*
X9350215Y18176820D01*
X9314413Y18204460D01*
X8345730Y18823891D01*
X8305618Y18844792D01*
X8263708Y18857893D01*
X8220960Y18863398D01*
X8178333Y18861510D01*
X8136784Y18852435D01*
X8097272Y18836378D01*
X8060757Y18813541D01*
X8028196Y18784131D01*
X8000548Y18748351D01*
X7946538Y18663891D01*
X7925649Y18623769D01*
X7912587Y18581833D01*
X7907141Y18539048D01*
X7909097Y18496376D01*
X7918245Y18454781D01*
X7934372Y18415225D01*
X7957266Y18378673D01*
X7986716Y18346087D01*
X8022508Y18318431D01*
X8991193Y17699005D01*
X8991193Y17699005D01*
G37*
X8991193Y17699005D02*
X9031315Y17678116D01*
X9073250Y17665054D01*
X9116035Y17659608D01*
X9158706Y17661564D01*
X9200301Y17670712D01*
X9239856Y17686839D01*
X9276409Y17709733D01*
X9308995Y17739183D01*
X9336653Y17774975D01*
X9390663Y17859435D01*
X9411542Y17899544D01*
X9424579Y17941440D01*
X9429988Y17984168D01*
X9427987Y18026771D01*
X9418793Y18068294D01*
X9402622Y18107781D01*
X9379690Y18144274D01*
X9350215Y18176820D01*
X9314413Y18204460D01*
X8345730Y18823891D01*
X8305618Y18844792D01*
X8263708Y18857893D01*
X8220960Y18863398D01*
X8178333Y18861510D01*
X8136784Y18852435D01*
X8097272Y18836378D01*
X8060757Y18813541D01*
X8028196Y18784131D01*
X8000548Y18748351D01*
X7946538Y18663891D01*
X7925649Y18623769D01*
X7912587Y18581833D01*
X7907141Y18539048D01*
X7909097Y18496376D01*
X7918245Y18454781D01*
X7934372Y18415225D01*
X7957266Y18378673D01*
X7986716Y18346087D01*
X8022508Y18318431D01*
X8991193Y17699005D01*
G36*
X13414481Y14870499D02*
X13454589Y14849620D01*
X13496485Y14836583D01*
X13539212Y14831174D01*
X13581815Y14833175D01*
X13623337Y14842369D01*
X13662823Y14858540D01*
X13699317Y14881472D01*
X13731863Y14910947D01*
X13759505Y14946749D01*
X13813515Y15031209D01*
X13834410Y15071308D01*
X13847486Y15113179D01*
X13852954Y15155869D01*
X13851022Y15198428D01*
X13841901Y15239904D01*
X13825799Y15279347D01*
X13802927Y15315804D01*
X13773492Y15348324D01*
X13737705Y15375956D01*
X12768587Y15995666D01*
X12728474Y16016570D01*
X12686565Y16029672D01*
X12643817Y16035177D01*
X12601189Y16033289D01*
X12559640Y16024214D01*
X12520129Y16008155D01*
X12483614Y15985318D01*
X12451053Y15955906D01*
X12423406Y15920126D01*
X12369396Y15835666D01*
X12348510Y15795544D01*
X12335449Y15753608D01*
X12330003Y15710823D01*
X12331959Y15668151D01*
X12341106Y15626555D01*
X12357232Y15587000D01*
X12380125Y15550447D01*
X12409574Y15517862D01*
X12445366Y15490206D01*
X13414481Y14870499D01*
X13414481Y14870499D01*
G37*
X13414481Y14870499D02*
X13454589Y14849620D01*
X13496485Y14836583D01*
X13539212Y14831174D01*
X13581815Y14833175D01*
X13623337Y14842369D01*
X13662823Y14858540D01*
X13699317Y14881472D01*
X13731863Y14910947D01*
X13759505Y14946749D01*
X13813515Y15031209D01*
X13834410Y15071308D01*
X13847486Y15113179D01*
X13852954Y15155869D01*
X13851022Y15198428D01*
X13841901Y15239904D01*
X13825799Y15279347D01*
X13802927Y15315804D01*
X13773492Y15348324D01*
X13737705Y15375956D01*
X12768587Y15995666D01*
X12728474Y16016570D01*
X12686565Y16029672D01*
X12643817Y16035177D01*
X12601189Y16033289D01*
X12559640Y16024214D01*
X12520129Y16008155D01*
X12483614Y15985318D01*
X12451053Y15955906D01*
X12423406Y15920126D01*
X12369396Y15835666D01*
X12348510Y15795544D01*
X12335449Y15753608D01*
X12330003Y15710823D01*
X12331959Y15668151D01*
X12341106Y15626555D01*
X12357232Y15587000D01*
X12380125Y15550447D01*
X12409574Y15517862D01*
X12445366Y15490206D01*
X13414481Y14870499D01*
G36*
X6520919Y18708805D02*
X6557508Y18691785D01*
X6595940Y18685197D01*
X6634241Y18688606D01*
X6670438Y18701580D01*
X6702557Y18723684D01*
X6728624Y18754485D01*
X7078846Y19302171D01*
X7095849Y19338725D01*
X7102386Y19377075D01*
X7098909Y19415272D01*
X7085866Y19451365D01*
X7063709Y19483405D01*
X7032886Y19509440D01*
X6611890Y19778649D01*
X6575357Y19795684D01*
X6537059Y19802303D01*
X6498929Y19798932D01*
X6462903Y19785995D01*
X6430915Y19763919D01*
X6404901Y19733129D01*
X6054678Y19185443D01*
X6037622Y19148878D01*
X6030951Y19110499D01*
X6034256Y19072265D01*
X6047125Y19036134D01*
X6069149Y19004066D01*
X6099918Y18978018D01*
X6520919Y18708805D01*
X6520919Y18708805D01*
G37*
X6520919Y18708805D02*
X6557508Y18691785D01*
X6595940Y18685197D01*
X6634241Y18688606D01*
X6670438Y18701580D01*
X6702557Y18723684D01*
X6728624Y18754485D01*
X7078846Y19302171D01*
X7095849Y19338725D01*
X7102386Y19377075D01*
X7098909Y19415272D01*
X7085866Y19451365D01*
X7063709Y19483405D01*
X7032886Y19509440D01*
X6611890Y19778649D01*
X6575357Y19795684D01*
X6537059Y19802303D01*
X6498929Y19798932D01*
X6462903Y19785995D01*
X6430915Y19763919D01*
X6404901Y19733129D01*
X6054678Y19185443D01*
X6037622Y19148878D01*
X6030951Y19110499D01*
X6034256Y19072265D01*
X6047125Y19036134D01*
X6069149Y19004066D01*
X6099918Y18978018D01*
X6520919Y18708805D01*
G36*
X8307174Y16629318D02*
X8347296Y16608429D01*
X8389231Y16595367D01*
X8432016Y16589921D01*
X8474687Y16591877D01*
X8516282Y16601025D01*
X8555837Y16617152D01*
X8592389Y16640046D01*
X8624976Y16669496D01*
X8652633Y16705288D01*
X8706363Y16789318D01*
X8727249Y16829440D01*
X8740310Y16871375D01*
X8745756Y16914160D01*
X8743800Y16956831D01*
X8734653Y16998427D01*
X8718527Y17037982D01*
X8695634Y17074534D01*
X8666185Y17107120D01*
X8630393Y17134777D01*
X7661710Y17754209D01*
X7621588Y17775098D01*
X7579652Y17788160D01*
X7536867Y17793606D01*
X7494196Y17791650D01*
X7452601Y17782502D01*
X7413046Y17766375D01*
X7376494Y17743481D01*
X7343908Y17714031D01*
X7316251Y17678239D01*
X7262521Y17594209D01*
X7241632Y17554087D01*
X7228570Y17512151D01*
X7223124Y17469366D01*
X7225080Y17426695D01*
X7234228Y17385100D01*
X7250355Y17345545D01*
X7273249Y17308993D01*
X7302699Y17276407D01*
X7338491Y17248750D01*
X8307174Y16629318D01*
X8307174Y16629318D01*
G37*
X8307174Y16629318D02*
X8347296Y16608429D01*
X8389231Y16595367D01*
X8432016Y16589921D01*
X8474687Y16591877D01*
X8516282Y16601025D01*
X8555837Y16617152D01*
X8592389Y16640046D01*
X8624976Y16669496D01*
X8652633Y16705288D01*
X8706363Y16789318D01*
X8727249Y16829440D01*
X8740310Y16871375D01*
X8745756Y16914160D01*
X8743800Y16956831D01*
X8734653Y16998427D01*
X8718527Y17037982D01*
X8695634Y17074534D01*
X8666185Y17107120D01*
X8630393Y17134777D01*
X7661710Y17754209D01*
X7621588Y17775098D01*
X7579652Y17788160D01*
X7536867Y17793606D01*
X7494196Y17791650D01*
X7452601Y17782502D01*
X7413046Y17766375D01*
X7376494Y17743481D01*
X7343908Y17714031D01*
X7316251Y17678239D01*
X7262521Y17594209D01*
X7241632Y17554087D01*
X7228570Y17512151D01*
X7223124Y17469366D01*
X7225080Y17426695D01*
X7234228Y17385100D01*
X7250355Y17345545D01*
X7273249Y17308993D01*
X7302699Y17276407D01*
X7338491Y17248750D01*
X8307174Y16629318D01*
G36*
X12730461Y13800812D02*
X12770568Y13779935D01*
X12812463Y13766901D01*
X12855191Y13761492D01*
X12897794Y13763492D01*
X12939317Y13772686D01*
X12978804Y13788856D01*
X13015298Y13811786D01*
X13047844Y13841260D01*
X13075486Y13877062D01*
X13129216Y13961092D01*
X13150117Y14001204D01*
X13163218Y14043114D01*
X13168723Y14085862D01*
X13166835Y14128490D01*
X13157760Y14170039D01*
X13141703Y14209550D01*
X13118866Y14246066D01*
X13089456Y14278626D01*
X13053676Y14306274D01*
X12084558Y14925984D01*
X12044436Y14946870D01*
X12002501Y14959931D01*
X11959716Y14965377D01*
X11917045Y14963421D01*
X11875450Y14954274D01*
X11835895Y14938148D01*
X11799343Y14915255D01*
X11766756Y14885806D01*
X11739098Y14850014D01*
X11685368Y14765984D01*
X11664482Y14725862D01*
X11651421Y14683927D01*
X11645975Y14641142D01*
X11647931Y14598470D01*
X11657078Y14556875D01*
X11673204Y14517320D01*
X11696097Y14480767D01*
X11725546Y14448181D01*
X11761338Y14420524D01*
X12730461Y13800812D01*
X12730461Y13800812D01*
G37*
X12730461Y13800812D02*
X12770568Y13779935D01*
X12812463Y13766901D01*
X12855191Y13761492D01*
X12897794Y13763492D01*
X12939317Y13772686D01*
X12978804Y13788856D01*
X13015298Y13811786D01*
X13047844Y13841260D01*
X13075486Y13877062D01*
X13129216Y13961092D01*
X13150117Y14001204D01*
X13163218Y14043114D01*
X13168723Y14085862D01*
X13166835Y14128490D01*
X13157760Y14170039D01*
X13141703Y14209550D01*
X13118866Y14246066D01*
X13089456Y14278626D01*
X13053676Y14306274D01*
X12084558Y14925984D01*
X12044436Y14946870D01*
X12002501Y14959931D01*
X11959716Y14965377D01*
X11917045Y14963421D01*
X11875450Y14954274D01*
X11835895Y14938148D01*
X11799343Y14915255D01*
X11766756Y14885806D01*
X11739098Y14850014D01*
X11685368Y14765984D01*
X11664482Y14725862D01*
X11651421Y14683927D01*
X11645975Y14641142D01*
X11647931Y14598470D01*
X11657078Y14556875D01*
X11673204Y14517320D01*
X11696097Y14480767D01*
X11725546Y14448181D01*
X11761338Y14420524D01*
X12730461Y13800812D01*
G36*
X7622876Y15559196D02*
X7662998Y15538309D01*
X7704933Y15525248D01*
X7747718Y15519801D01*
X7790390Y15521756D01*
X7831985Y15530902D01*
X7871540Y15547028D01*
X7908093Y15569921D01*
X7940679Y15599371D01*
X7968336Y15635166D01*
X8022066Y15719186D01*
X8042952Y15759308D01*
X8056013Y15801243D01*
X8061459Y15844029D01*
X8059503Y15886701D01*
X8050356Y15928296D01*
X8034230Y15967852D01*
X8011337Y16004404D01*
X7981888Y16036990D01*
X7946096Y16064645D01*
X6977414Y16684077D01*
X6937292Y16704963D01*
X6895357Y16718024D01*
X6852572Y16723470D01*
X6809900Y16721514D01*
X6768305Y16712367D01*
X6728750Y16696241D01*
X6692197Y16673348D01*
X6659611Y16643899D01*
X6631954Y16608107D01*
X6578224Y16524087D01*
X6557335Y16483964D01*
X6544273Y16442028D01*
X6538827Y16399243D01*
X6540783Y16356572D01*
X6549931Y16314977D01*
X6566058Y16275422D01*
X6588952Y16238870D01*
X6618402Y16206284D01*
X6654194Y16178627D01*
X7622876Y15559196D01*
X7622876Y15559196D01*
G37*
X7622876Y15559196D02*
X7662998Y15538309D01*
X7704933Y15525248D01*
X7747718Y15519801D01*
X7790390Y15521756D01*
X7831985Y15530902D01*
X7871540Y15547028D01*
X7908093Y15569921D01*
X7940679Y15599371D01*
X7968336Y15635166D01*
X8022066Y15719186D01*
X8042952Y15759308D01*
X8056013Y15801243D01*
X8061459Y15844029D01*
X8059503Y15886701D01*
X8050356Y15928296D01*
X8034230Y15967852D01*
X8011337Y16004404D01*
X7981888Y16036990D01*
X7946096Y16064645D01*
X6977414Y16684077D01*
X6937292Y16704963D01*
X6895357Y16718024D01*
X6852572Y16723470D01*
X6809900Y16721514D01*
X6768305Y16712367D01*
X6728750Y16696241D01*
X6692197Y16673348D01*
X6659611Y16643899D01*
X6631954Y16608107D01*
X6578224Y16524087D01*
X6557335Y16483964D01*
X6544273Y16442028D01*
X6538827Y16399243D01*
X6540783Y16356572D01*
X6549931Y16314977D01*
X6566058Y16275422D01*
X6588952Y16238870D01*
X6618402Y16206284D01*
X6654194Y16178627D01*
X7622876Y15559196D01*
G36*
X12046164Y12730691D02*
X12086271Y12709814D01*
X12128166Y12696778D01*
X12170892Y12691368D01*
X12213495Y12693368D01*
X12255018Y12702560D01*
X12294505Y12718730D01*
X12330999Y12741661D01*
X12363546Y12771137D01*
X12391188Y12806941D01*
X12444918Y12890961D01*
X12465819Y12931074D01*
X12478920Y12972983D01*
X12484425Y13015732D01*
X12482537Y13058360D01*
X12473462Y13099909D01*
X12457405Y13139421D01*
X12434568Y13175936D01*
X12405158Y13208497D01*
X12369378Y13236143D01*
X11400260Y13855853D01*
X11360138Y13876742D01*
X11318203Y13889804D01*
X11275419Y13895250D01*
X11232747Y13893294D01*
X11191152Y13884146D01*
X11151596Y13868019D01*
X11115044Y13845125D01*
X11082458Y13815675D01*
X11054801Y13779883D01*
X11001071Y13695863D01*
X10980182Y13655740D01*
X10967120Y13613805D01*
X10961674Y13571020D01*
X10963630Y13528348D01*
X10972778Y13486754D01*
X10988905Y13447199D01*
X11011799Y13410647D01*
X11041249Y13378061D01*
X11077041Y13350404D01*
X12046164Y12730691D01*
X12046164Y12730691D01*
G37*
X12046164Y12730691D02*
X12086271Y12709814D01*
X12128166Y12696778D01*
X12170892Y12691368D01*
X12213495Y12693368D01*
X12255018Y12702560D01*
X12294505Y12718730D01*
X12330999Y12741661D01*
X12363546Y12771137D01*
X12391188Y12806941D01*
X12444918Y12890961D01*
X12465819Y12931074D01*
X12478920Y12972983D01*
X12484425Y13015732D01*
X12482537Y13058360D01*
X12473462Y13099909D01*
X12457405Y13139421D01*
X12434568Y13175936D01*
X12405158Y13208497D01*
X12369378Y13236143D01*
X11400260Y13855853D01*
X11360138Y13876742D01*
X11318203Y13889804D01*
X11275419Y13895250D01*
X11232747Y13893294D01*
X11191152Y13884146D01*
X11151596Y13868019D01*
X11115044Y13845125D01*
X11082458Y13815675D01*
X11054801Y13779883D01*
X11001071Y13695863D01*
X10980182Y13655740D01*
X10967120Y13613805D01*
X10961674Y13571020D01*
X10963630Y13528348D01*
X10972778Y13486754D01*
X10988905Y13447199D01*
X11011799Y13410647D01*
X11041249Y13378061D01*
X11077041Y13350404D01*
X12046164Y12730691D01*
G36*
X2475304Y16310208D02*
X2512208Y16293008D01*
X2550905Y16286331D01*
X2589435Y16289744D01*
X2625839Y16302815D01*
X2658159Y16325110D01*
X2684435Y16356198D01*
X3059992Y16943502D01*
X3077190Y16980398D01*
X3083871Y17019089D01*
X3080463Y17057617D01*
X3067396Y17094023D01*
X3045100Y17126348D01*
X3014002Y17152634D01*
X2679644Y17366442D01*
X2642704Y17383665D01*
X2603924Y17390393D01*
X2565289Y17387046D01*
X2528780Y17374041D01*
X2496382Y17351796D01*
X2470077Y17320732D01*
X2094521Y16733427D01*
X2077351Y16696507D01*
X2070750Y16657764D01*
X2074262Y16619169D01*
X2087436Y16582698D01*
X2109817Y16550323D01*
X2140951Y16524018D01*
X2475304Y16310208D01*
X2475304Y16310208D01*
G37*
X2475304Y16310208D02*
X2512208Y16293008D01*
X2550905Y16286331D01*
X2589435Y16289744D01*
X2625839Y16302815D01*
X2658159Y16325110D01*
X2684435Y16356198D01*
X3059992Y16943502D01*
X3077190Y16980398D01*
X3083871Y17019089D01*
X3080463Y17057617D01*
X3067396Y17094023D01*
X3045100Y17126348D01*
X3014002Y17152634D01*
X2679644Y17366442D01*
X2642704Y17383665D01*
X2603924Y17390393D01*
X2565289Y17387046D01*
X2528780Y17374041D01*
X2496382Y17351796D01*
X2470077Y17320732D01*
X2094521Y16733427D01*
X2077351Y16696507D01*
X2070750Y16657764D01*
X2074262Y16619169D01*
X2087436Y16582698D01*
X2109817Y16550323D01*
X2140951Y16524018D01*
X2475304Y16310208D01*
G36*
X4076134Y15286545D02*
X4113039Y15269346D01*
X4151736Y15262671D01*
X4190267Y15266085D01*
X4226672Y15279156D01*
X4258991Y15301451D01*
X4285265Y15332535D01*
X4660822Y15919840D01*
X4678021Y15956736D01*
X4684703Y15995426D01*
X4681297Y16033954D01*
X4668231Y16070360D01*
X4645933Y16102685D01*
X4614832Y16128971D01*
X4280038Y16343058D01*
X4243133Y16360261D01*
X4204436Y16366939D01*
X4165905Y16363525D01*
X4129500Y16350454D01*
X4097181Y16328157D01*
X4070907Y16297068D01*
X3695350Y15709763D01*
X3678148Y15672860D01*
X3671464Y15634168D01*
X3674871Y15595641D01*
X3687939Y15559239D01*
X3710238Y15526917D01*
X3741340Y15500632D01*
X4076134Y15286545D01*
X4076134Y15286545D01*
G37*
X4076134Y15286545D02*
X4113039Y15269346D01*
X4151736Y15262671D01*
X4190267Y15266085D01*
X4226672Y15279156D01*
X4258991Y15301451D01*
X4285265Y15332535D01*
X4660822Y15919840D01*
X4678021Y15956736D01*
X4684703Y15995426D01*
X4681297Y16033954D01*
X4668231Y16070360D01*
X4645933Y16102685D01*
X4614832Y16128971D01*
X4280038Y16343058D01*
X4243133Y16360261D01*
X4204436Y16366939D01*
X4165905Y16363525D01*
X4129500Y16350454D01*
X4097181Y16328157D01*
X4070907Y16297068D01*
X3695350Y15709763D01*
X3678148Y15672860D01*
X3671464Y15634168D01*
X3674871Y15595641D01*
X3687939Y15559239D01*
X3710238Y15526917D01*
X3741340Y15500632D01*
X4076134Y15286545D01*
G36*
X5803219Y14182147D02*
X5840127Y14164944D01*
X5878826Y14158266D01*
X5917356Y14161680D01*
X5953760Y14174751D01*
X5986077Y14197048D01*
X6012350Y14228137D01*
X6387907Y14815441D01*
X6405105Y14852337D01*
X6411786Y14891028D01*
X6408378Y14929556D01*
X6395311Y14965962D01*
X6373015Y14998287D01*
X6341917Y15024573D01*
X6007123Y15238659D01*
X5970215Y15255861D01*
X5931516Y15262538D01*
X5892986Y15259123D01*
X5856582Y15246050D01*
X5824265Y15223754D01*
X5797991Y15192669D01*
X5422435Y14605365D01*
X5405229Y14568462D01*
X5398545Y14529769D01*
X5401952Y14491243D01*
X5415022Y14454840D01*
X5437322Y14422518D01*
X5468425Y14396233D01*
X5803219Y14182147D01*
X5803219Y14182147D01*
G37*
X5803219Y14182147D02*
X5840127Y14164944D01*
X5878826Y14158266D01*
X5917356Y14161680D01*
X5953760Y14174751D01*
X5986077Y14197048D01*
X6012350Y14228137D01*
X6387907Y14815441D01*
X6405105Y14852337D01*
X6411786Y14891028D01*
X6408378Y14929556D01*
X6395311Y14965962D01*
X6373015Y14998287D01*
X6341917Y15024573D01*
X6007123Y15238659D01*
X5970215Y15255861D01*
X5931516Y15262538D01*
X5892986Y15259123D01*
X5856582Y15246050D01*
X5824265Y15223754D01*
X5797991Y15192669D01*
X5422435Y14605365D01*
X5405229Y14568462D01*
X5398545Y14529769D01*
X5401952Y14491243D01*
X5415022Y14454840D01*
X5437322Y14422518D01*
X5468425Y14396233D01*
X5803219Y14182147D01*
G36*
X7403612Y13158763D02*
X7440520Y13141560D01*
X7479219Y13134882D01*
X7517750Y13138296D01*
X7554153Y13151367D01*
X7586471Y13173664D01*
X7612744Y13204753D01*
X7988300Y13792058D01*
X8005499Y13828954D01*
X8012181Y13867644D01*
X8008775Y13906172D01*
X7995709Y13942578D01*
X7973411Y13974903D01*
X7942310Y14001189D01*
X7607951Y14214998D01*
X7571043Y14232201D01*
X7532344Y14238879D01*
X7493814Y14235466D01*
X7457410Y14222394D01*
X7425093Y14200097D01*
X7398820Y14169008D01*
X7023263Y13581704D01*
X7006061Y13544801D01*
X6999377Y13506108D01*
X7002784Y13467582D01*
X7015852Y13431179D01*
X7038151Y13398857D01*
X7069253Y13372572D01*
X7403612Y13158763D01*
X7403612Y13158763D01*
G37*
X7403612Y13158763D02*
X7440520Y13141560D01*
X7479219Y13134882D01*
X7517750Y13138296D01*
X7554153Y13151367D01*
X7586471Y13173664D01*
X7612744Y13204753D01*
X7988300Y13792058D01*
X8005499Y13828954D01*
X8012181Y13867644D01*
X8008775Y13906172D01*
X7995709Y13942578D01*
X7973411Y13974903D01*
X7942310Y14001189D01*
X7607951Y14214998D01*
X7571043Y14232201D01*
X7532344Y14238879D01*
X7493814Y14235466D01*
X7457410Y14222394D01*
X7425093Y14200097D01*
X7398820Y14169008D01*
X7023263Y13581704D01*
X7006061Y13544801D01*
X6999377Y13506108D01*
X7002784Y13467582D01*
X7015852Y13431179D01*
X7038151Y13398857D01*
X7069253Y13372572D01*
X7403612Y13158763D01*
G36*
X9172928Y12027360D02*
X9209836Y12010157D01*
X9248535Y12003479D01*
X9287065Y12006892D01*
X9323469Y12019964D01*
X9355786Y12042261D01*
X9382059Y12073350D01*
X9757616Y12660654D01*
X9774815Y12697550D01*
X9781497Y12736243D01*
X9778091Y12774773D01*
X9765025Y12811179D01*
X9742727Y12843504D01*
X9711626Y12869786D01*
X9377267Y13083594D01*
X9340359Y13100796D01*
X9301660Y13107473D01*
X9263130Y13104058D01*
X9226726Y13090985D01*
X9194409Y13068689D01*
X9168135Y13037604D01*
X8792579Y12450299D01*
X8775377Y12413400D01*
X8768693Y12374708D01*
X8772100Y12336181D01*
X8785168Y12299777D01*
X8807467Y12267453D01*
X8838569Y12241168D01*
X9172928Y12027360D01*
X9172928Y12027360D01*
G37*
X9172928Y12027360D02*
X9209836Y12010157D01*
X9248535Y12003479D01*
X9287065Y12006892D01*
X9323469Y12019964D01*
X9355786Y12042261D01*
X9382059Y12073350D01*
X9757616Y12660654D01*
X9774815Y12697550D01*
X9781497Y12736243D01*
X9778091Y12774773D01*
X9765025Y12811179D01*
X9742727Y12843504D01*
X9711626Y12869786D01*
X9377267Y13083594D01*
X9340359Y13100796D01*
X9301660Y13107473D01*
X9263130Y13104058D01*
X9226726Y13090985D01*
X9194409Y13068689D01*
X9168135Y13037604D01*
X8792579Y12450299D01*
X8775377Y12413400D01*
X8768693Y12374708D01*
X8772100Y12336181D01*
X8785168Y12299777D01*
X8807467Y12267453D01*
X8838569Y12241168D01*
X9172928Y12027360D01*
G36*
X10773757Y11003698D02*
X10810665Y10986495D01*
X10849364Y10979817D01*
X10887895Y10983230D01*
X10924298Y10996302D01*
X10956616Y11018599D01*
X10982889Y11049688D01*
X11358445Y11636993D01*
X11375644Y11673889D01*
X11382326Y11712579D01*
X11378920Y11751107D01*
X11365854Y11787513D01*
X11343556Y11819838D01*
X11312455Y11846124D01*
X10978096Y12059932D01*
X10941156Y12077155D01*
X10902376Y12083883D01*
X10863741Y12080536D01*
X10827232Y12067531D01*
X10794834Y12045286D01*
X10768529Y12014222D01*
X10392973Y11426917D01*
X10375800Y11389994D01*
X10369197Y11351249D01*
X10372710Y11312655D01*
X10385886Y11276185D01*
X10408268Y11243812D01*
X10439403Y11217507D01*
X10773757Y11003698D01*
X10773757Y11003698D01*
G37*
X10773757Y11003698D02*
X10810665Y10986495D01*
X10849364Y10979817D01*
X10887895Y10983230D01*
X10924298Y10996302D01*
X10956616Y11018599D01*
X10982889Y11049688D01*
X11358445Y11636993D01*
X11375644Y11673889D01*
X11382326Y11712579D01*
X11378920Y11751107D01*
X11365854Y11787513D01*
X11343556Y11819838D01*
X11312455Y11846124D01*
X10978096Y12059932D01*
X10941156Y12077155D01*
X10902376Y12083883D01*
X10863741Y12080536D01*
X10827232Y12067531D01*
X10794834Y12045286D01*
X10768529Y12014222D01*
X10392973Y11426917D01*
X10375800Y11389994D01*
X10369197Y11351249D01*
X10372710Y11312655D01*
X10385886Y11276185D01*
X10408268Y11243812D01*
X10439403Y11217507D01*
X10773757Y11003698D01*
G36*
X12584867Y9845570D02*
X12621775Y9828367D01*
X12660473Y9821689D01*
X12699002Y9825102D01*
X12735405Y9838174D01*
X12767723Y9860471D01*
X12793998Y9891560D01*
X13169555Y10478864D01*
X13186753Y10515763D01*
X13193434Y10554455D01*
X13190026Y10592982D01*
X13176959Y10629386D01*
X13154663Y10661709D01*
X13123565Y10687994D01*
X12789206Y10901803D01*
X12752298Y10919006D01*
X12713600Y10925684D01*
X12675069Y10922270D01*
X12638666Y10909199D01*
X12606348Y10886902D01*
X12580075Y10855813D01*
X12204518Y10268508D01*
X12187316Y10231608D01*
X12180632Y10192915D01*
X12184039Y10154386D01*
X12197107Y10117981D01*
X12219406Y10085658D01*
X12250508Y10059377D01*
X12584867Y9845570D01*
X12584867Y9845570D01*
G37*
X12584867Y9845570D02*
X12621775Y9828367D01*
X12660473Y9821689D01*
X12699002Y9825102D01*
X12735405Y9838174D01*
X12767723Y9860471D01*
X12793998Y9891560D01*
X13169555Y10478864D01*
X13186753Y10515763D01*
X13193434Y10554455D01*
X13190026Y10592982D01*
X13176959Y10629386D01*
X13154663Y10661709D01*
X13123565Y10687994D01*
X12789206Y10901803D01*
X12752298Y10919006D01*
X12713600Y10925684D01*
X12675069Y10922270D01*
X12638666Y10909199D01*
X12606348Y10886902D01*
X12580075Y10855813D01*
X12204518Y10268508D01*
X12187316Y10231608D01*
X12180632Y10192915D01*
X12184039Y10154386D01*
X12197107Y10117981D01*
X12219406Y10085658D01*
X12250508Y10059377D01*
X12584867Y9845570D01*
G36*
X14185697Y8821907D02*
X14222605Y8804704D01*
X14261302Y8798026D01*
X14299832Y8801440D01*
X14336235Y8814511D01*
X14368553Y8836808D01*
X14394828Y8867897D01*
X14770385Y9455201D01*
X14787584Y9492097D01*
X14794266Y9530788D01*
X14790860Y9569316D01*
X14777794Y9605722D01*
X14755496Y9638047D01*
X14724395Y9664333D01*
X14390037Y9878141D01*
X14353129Y9895344D01*
X14314431Y9902022D01*
X14275902Y9898608D01*
X14239499Y9885537D01*
X14207180Y9863240D01*
X14180905Y9832151D01*
X13805349Y9244846D01*
X13788147Y9207947D01*
X13781463Y9169254D01*
X13784870Y9130726D01*
X13797938Y9094322D01*
X13820237Y9061999D01*
X13851339Y9035715D01*
X14185697Y8821907D01*
X14185697Y8821907D01*
G37*
X14185697Y8821907D02*
X14222605Y8804704D01*
X14261302Y8798026D01*
X14299832Y8801440D01*
X14336235Y8814511D01*
X14368553Y8836808D01*
X14394828Y8867897D01*
X14770385Y9455201D01*
X14787584Y9492097D01*
X14794266Y9530788D01*
X14790860Y9569316D01*
X14777794Y9605722D01*
X14755496Y9638047D01*
X14724395Y9664333D01*
X14390037Y9878141D01*
X14353129Y9895344D01*
X14314431Y9902022D01*
X14275902Y9898608D01*
X14239499Y9885537D01*
X14207180Y9863240D01*
X14180905Y9832151D01*
X13805349Y9244846D01*
X13788147Y9207947D01*
X13781463Y9169254D01*
X13784870Y9130726D01*
X13797938Y9094322D01*
X13820237Y9061999D01*
X13851339Y9035715D01*
X14185697Y8821907D01*
G36*
X32707571Y-5062783D02*
X32739048Y-5084661D01*
X32772310Y-5103807D01*
X32807186Y-5120086D01*
X32843502Y-5133364D01*
X32881086Y-5143506D01*
X32919767Y-5150378D01*
X32959372Y-5153847D01*
X32999728Y-5153776D01*
X33040663Y-5150033D01*
X34626146Y-4933432D01*
X34670167Y-4925209D01*
X34712300Y-4912968D01*
X34752382Y-4896938D01*
X34790248Y-4877350D01*
X34825734Y-4854435D01*
X34858677Y-4828424D01*
X34888912Y-4799547D01*
X34916275Y-4768035D01*
X34940604Y-4734118D01*
X34961732Y-4698028D01*
X34979497Y-4659995D01*
X34993735Y-4620250D01*
X35004281Y-4579023D01*
X37508404Y-4237098D01*
X37386311Y-3345062D01*
X34882188Y-3686987D01*
X34860947Y-3650175D01*
X34836560Y-3615774D01*
X34809246Y-3583961D01*
X34779222Y-3554916D01*
X34746708Y-3528816D01*
X34711923Y-3505840D01*
X34675086Y-3486166D01*
X34636414Y-3469972D01*
X34596127Y-3457438D01*
X34554444Y-3448741D01*
X34511583Y-3444059D01*
X34467762Y-3443571D01*
X34423202Y-3447456D01*
X32837715Y-3664057D01*
X32798294Y-3671375D01*
X32760483Y-3682100D01*
X32724306Y-3695947D01*
X32689789Y-3712630D01*
X32656954Y-3731867D01*
X32646828Y-3769830D01*
X32636510Y-3807757D01*
X32626005Y-3845647D01*
X32615321Y-3883501D01*
X32604463Y-3921321D01*
X32593438Y-3959106D01*
X32582251Y-3996858D01*
X32570910Y-4034578D01*
X32559421Y-4072266D01*
X32547789Y-4109923D01*
X32536022Y-4147550D01*
X32524126Y-4185148D01*
X32512106Y-4222717D01*
X32499969Y-4260258D01*
X32487722Y-4297772D01*
X32475370Y-4335260D01*
X32534030Y-4765340D01*
X32541406Y-4805775D01*
X32552176Y-4844665D01*
X32566160Y-4881879D01*
X32583179Y-4917289D01*
X32603057Y-4950767D01*
X32625613Y-4982184D01*
X32650669Y-5011410D01*
X32678047Y-5038318D01*
X32707567Y-5062778D01*
X32707571Y-5062783D01*
X32707571Y-5062783D01*
G37*
X32707571Y-5062783D02*
X32739048Y-5084661D01*
X32772310Y-5103807D01*
X32807186Y-5120086D01*
X32843502Y-5133364D01*
X32881086Y-5143506D01*
X32919767Y-5150378D01*
X32959372Y-5153847D01*
X32999728Y-5153776D01*
X33040663Y-5150033D01*
X34626146Y-4933432D01*
X34670167Y-4925209D01*
X34712300Y-4912968D01*
X34752382Y-4896938D01*
X34790248Y-4877350D01*
X34825734Y-4854435D01*
X34858677Y-4828424D01*
X34888912Y-4799547D01*
X34916275Y-4768035D01*
X34940604Y-4734118D01*
X34961732Y-4698028D01*
X34979497Y-4659995D01*
X34993735Y-4620250D01*
X35004281Y-4579023D01*
X37508404Y-4237098D01*
X37386311Y-3345062D01*
X34882188Y-3686987D01*
X34860947Y-3650175D01*
X34836560Y-3615774D01*
X34809246Y-3583961D01*
X34779222Y-3554916D01*
X34746708Y-3528816D01*
X34711923Y-3505840D01*
X34675086Y-3486166D01*
X34636414Y-3469972D01*
X34596127Y-3457438D01*
X34554444Y-3448741D01*
X34511583Y-3444059D01*
X34467762Y-3443571D01*
X34423202Y-3447456D01*
X32837715Y-3664057D01*
X32798294Y-3671375D01*
X32760483Y-3682100D01*
X32724306Y-3695947D01*
X32689789Y-3712630D01*
X32656954Y-3731867D01*
X32646828Y-3769830D01*
X32636510Y-3807757D01*
X32626005Y-3845647D01*
X32615321Y-3883501D01*
X32604463Y-3921321D01*
X32593438Y-3959106D01*
X32582251Y-3996858D01*
X32570910Y-4034578D01*
X32559421Y-4072266D01*
X32547789Y-4109923D01*
X32536022Y-4147550D01*
X32524126Y-4185148D01*
X32512106Y-4222717D01*
X32499969Y-4260258D01*
X32487722Y-4297772D01*
X32475370Y-4335260D01*
X32534030Y-4765340D01*
X32541406Y-4805775D01*
X32552176Y-4844665D01*
X32566160Y-4881879D01*
X32583179Y-4917289D01*
X32603057Y-4950767D01*
X32625613Y-4982184D01*
X32650669Y-5011410D01*
X32678047Y-5038318D01*
X32707567Y-5062778D01*
X32707571Y-5062783D01*
G36*
X-18358449Y27553139D02*
X-18323847Y27536626D01*
X-18287909Y27523106D01*
X-18250830Y27512683D01*
X-18212807Y27505456D01*
X-18174035Y27501529D01*
X-18134709Y27501002D01*
X-18095026Y27503977D01*
X-18055180Y27510555D01*
X-18015369Y27520839D01*
X-17441873Y27696346D01*
X-17398432Y27712069D01*
X-17357601Y27731681D01*
X-17319528Y27754904D01*
X-17284360Y27781458D01*
X-17252248Y27811066D01*
X-17223339Y27843447D01*
X-17197782Y27878325D01*
X-17175726Y27915419D01*
X-17157318Y27954451D01*
X-17142707Y27995143D01*
X-17132042Y28037215D01*
X-17125472Y28080389D01*
X-17123145Y28124387D01*
X-17125208Y28168929D01*
X-17131812Y28213738D01*
X-17143104Y28258533D01*
X-17611662Y29788607D01*
X-17626854Y29830734D01*
X-17645714Y29870344D01*
X-17667985Y29907312D01*
X-17693415Y29941516D01*
X-17721748Y29972831D01*
X-17752729Y30001136D01*
X-17786104Y30026306D01*
X-17821618Y30048219D01*
X-17859017Y30066751D01*
X-17898046Y30081778D01*
X-17938451Y30093178D01*
X-17979976Y30100828D01*
X-18022367Y30104603D01*
X-18762294Y32521573D01*
X-19622814Y32257877D01*
X-18882890Y29840908D01*
X-18915851Y29814030D01*
X-18945929Y29784422D01*
X-18972983Y29752330D01*
X-18996870Y29718000D01*
X-19017450Y29681680D01*
X-19034579Y29643614D01*
X-19048117Y29604049D01*
X-19057920Y29563231D01*
X-19063847Y29521407D01*
X-19065756Y29478823D01*
X-19063506Y29435725D01*
X-19056953Y29392359D01*
X-19045957Y29348972D01*
X-18577123Y27819326D01*
X-18563355Y27780583D01*
X-18546512Y27743882D01*
X-18526783Y27709332D01*
X-18504358Y27677037D01*
X-18479428Y27647106D01*
X-18452182Y27619643D01*
X-18422810Y27594757D01*
X-18391503Y27572552D01*
X-18358450Y27553137D01*
X-18358449Y27553139D01*
X-18358449Y27553139D01*
G37*
X-18358449Y27553139D02*
X-18323847Y27536626D01*
X-18287909Y27523106D01*
X-18250830Y27512683D01*
X-18212807Y27505456D01*
X-18174035Y27501529D01*
X-18134709Y27501002D01*
X-18095026Y27503977D01*
X-18055180Y27510555D01*
X-18015369Y27520839D01*
X-17441873Y27696346D01*
X-17398432Y27712069D01*
X-17357601Y27731681D01*
X-17319528Y27754904D01*
X-17284360Y27781458D01*
X-17252248Y27811066D01*
X-17223339Y27843447D01*
X-17197782Y27878325D01*
X-17175726Y27915419D01*
X-17157318Y27954451D01*
X-17142707Y27995143D01*
X-17132042Y28037215D01*
X-17125472Y28080389D01*
X-17123145Y28124387D01*
X-17125208Y28168929D01*
X-17131812Y28213738D01*
X-17143104Y28258533D01*
X-17611662Y29788607D01*
X-17626854Y29830734D01*
X-17645714Y29870344D01*
X-17667985Y29907312D01*
X-17693415Y29941516D01*
X-17721748Y29972831D01*
X-17752729Y30001136D01*
X-17786104Y30026306D01*
X-17821618Y30048219D01*
X-17859017Y30066751D01*
X-17898046Y30081778D01*
X-17938451Y30093178D01*
X-17979976Y30100828D01*
X-18022367Y30104603D01*
X-18762294Y32521573D01*
X-19622814Y32257877D01*
X-18882890Y29840908D01*
X-18915851Y29814030D01*
X-18945929Y29784422D01*
X-18972983Y29752330D01*
X-18996870Y29718000D01*
X-19017450Y29681680D01*
X-19034579Y29643614D01*
X-19048117Y29604049D01*
X-19057920Y29563231D01*
X-19063847Y29521407D01*
X-19065756Y29478823D01*
X-19063506Y29435725D01*
X-19056953Y29392359D01*
X-19045957Y29348972D01*
X-18577123Y27819326D01*
X-18563355Y27780583D01*
X-18546512Y27743882D01*
X-18526783Y27709332D01*
X-18504358Y27677037D01*
X-18479428Y27647106D01*
X-18452182Y27619643D01*
X-18422810Y27594757D01*
X-18391503Y27572552D01*
X-18358450Y27553137D01*
X-18358449Y27553139D01*
G36*
X1982630Y13776692D02*
X2019541Y13759485D01*
X2058240Y13752806D01*
X2096768Y13756221D01*
X2133169Y13769294D01*
X2165486Y13791593D01*
X2191761Y13822682D01*
X2567318Y14409986D01*
X2584520Y14446889D01*
X2591201Y14485582D01*
X2587793Y14524108D01*
X2574725Y14560511D01*
X2552426Y14592833D01*
X2521328Y14619118D01*
X2186970Y14832926D01*
X2150059Y14850128D01*
X2111359Y14856805D01*
X2072830Y14853390D01*
X2036428Y14840317D01*
X2004112Y14818021D01*
X1977838Y14786936D01*
X1602282Y14199631D01*
X1585083Y14162736D01*
X1578401Y14124045D01*
X1581807Y14085517D01*
X1594873Y14049112D01*
X1617171Y14016786D01*
X1648272Y13990500D01*
X1982630Y13776692D01*
X1982630Y13776692D01*
G37*
X1982630Y13776692D02*
X2019541Y13759485D01*
X2058240Y13752806D01*
X2096768Y13756221D01*
X2133169Y13769294D01*
X2165486Y13791593D01*
X2191761Y13822682D01*
X2567318Y14409986D01*
X2584520Y14446889D01*
X2591201Y14485582D01*
X2587793Y14524108D01*
X2574725Y14560511D01*
X2552426Y14592833D01*
X2521328Y14619118D01*
X2186970Y14832926D01*
X2150059Y14850128D01*
X2111359Y14856805D01*
X2072830Y14853390D01*
X2036428Y14840317D01*
X2004112Y14818021D01*
X1977838Y14786936D01*
X1602282Y14199631D01*
X1585083Y14162736D01*
X1578401Y14124045D01*
X1581807Y14085517D01*
X1594873Y14049112D01*
X1617171Y14016786D01*
X1648272Y13990500D01*
X1982630Y13776692D01*
G36*
X5310545Y11648631D02*
X5347453Y11631428D01*
X5386150Y11624750D01*
X5424679Y11628164D01*
X5461082Y11641235D01*
X5493400Y11663532D01*
X5519676Y11694621D01*
X5895233Y12281925D01*
X5912435Y12318827D01*
X5919116Y12357520D01*
X5915708Y12396046D01*
X5902640Y12432449D01*
X5880341Y12464772D01*
X5849243Y12491057D01*
X5514885Y12704865D01*
X5477977Y12722068D01*
X5439278Y12728746D01*
X5400747Y12725332D01*
X5364344Y12712261D01*
X5332026Y12689964D01*
X5305753Y12658875D01*
X4930197Y12071570D01*
X4912998Y12034675D01*
X4906316Y11995984D01*
X4909722Y11957456D01*
X4922788Y11921051D01*
X4945086Y11888725D01*
X4976187Y11862439D01*
X5310545Y11648631D01*
X5310545Y11648631D01*
G37*
X5310545Y11648631D02*
X5347453Y11631428D01*
X5386150Y11624750D01*
X5424679Y11628164D01*
X5461082Y11641235D01*
X5493400Y11663532D01*
X5519676Y11694621D01*
X5895233Y12281925D01*
X5912435Y12318827D01*
X5919116Y12357520D01*
X5915708Y12396046D01*
X5902640Y12432449D01*
X5880341Y12464772D01*
X5849243Y12491057D01*
X5514885Y12704865D01*
X5477977Y12722068D01*
X5439278Y12728746D01*
X5400747Y12725332D01*
X5364344Y12712261D01*
X5332026Y12689964D01*
X5305753Y12658875D01*
X4930197Y12071570D01*
X4912998Y12034675D01*
X4906316Y11995984D01*
X4909722Y11957456D01*
X4922788Y11921051D01*
X4945086Y11888725D01*
X4976187Y11862439D01*
X5310545Y11648631D01*
G36*
X8680253Y9493845D02*
X8717193Y9476622D01*
X8755973Y9469894D01*
X8794608Y9473241D01*
X8831117Y9486246D01*
X8863515Y9508491D01*
X8889820Y9539555D01*
X9265377Y10126860D01*
X9282546Y10163783D01*
X9289146Y10202527D01*
X9285632Y10241120D01*
X9272458Y10277590D01*
X9250078Y10309963D01*
X9218947Y10336269D01*
X8884588Y10550077D01*
X8847680Y10567280D01*
X8808981Y10573958D01*
X8770451Y10570544D01*
X8734047Y10557473D01*
X8701730Y10535176D01*
X8675457Y10504087D01*
X8299903Y9916785D01*
X8282705Y9879890D01*
X8276024Y9841199D01*
X8279432Y9802671D01*
X8292499Y9766266D01*
X8314795Y9733940D01*
X8345893Y9707654D01*
X8680253Y9493845D01*
X8680253Y9493845D01*
G37*
X8680253Y9493845D02*
X8717193Y9476622D01*
X8755973Y9469894D01*
X8794608Y9473241D01*
X8831117Y9486246D01*
X8863515Y9508491D01*
X8889820Y9539555D01*
X9265377Y10126860D01*
X9282546Y10163783D01*
X9289146Y10202527D01*
X9285632Y10241120D01*
X9272458Y10277590D01*
X9250078Y10309963D01*
X9218947Y10336269D01*
X8884588Y10550077D01*
X8847680Y10567280D01*
X8808981Y10573958D01*
X8770451Y10570544D01*
X8734047Y10557473D01*
X8701730Y10535176D01*
X8675457Y10504087D01*
X8299903Y9916785D01*
X8282705Y9879890D01*
X8276024Y9841199D01*
X8279432Y9802671D01*
X8292499Y9766266D01*
X8314795Y9733940D01*
X8345893Y9707654D01*
X8680253Y9493845D01*
G36*
X12092628Y7311775D02*
X12129532Y7294575D01*
X12168229Y7287898D01*
X12206760Y7291311D01*
X12243165Y7304382D01*
X12275484Y7326677D01*
X12301760Y7357765D01*
X12677316Y7945069D01*
X12694518Y7981968D01*
X12701202Y8020661D01*
X12697795Y8059189D01*
X12684727Y8095594D01*
X12662428Y8127917D01*
X12631326Y8154201D01*
X12296532Y8368288D01*
X12259624Y8385491D01*
X12220926Y8392169D01*
X12182396Y8388755D01*
X12145993Y8375684D01*
X12113675Y8353387D01*
X12087400Y8322298D01*
X11711844Y7734994D01*
X11694645Y7698095D01*
X11687963Y7659402D01*
X11691369Y7620874D01*
X11704435Y7584469D01*
X11726733Y7552146D01*
X11757834Y7525862D01*
X12092628Y7311775D01*
X12092628Y7311775D01*
G37*
X12092628Y7311775D02*
X12129532Y7294575D01*
X12168229Y7287898D01*
X12206760Y7291311D01*
X12243165Y7304382D01*
X12275484Y7326677D01*
X12301760Y7357765D01*
X12677316Y7945069D01*
X12694518Y7981968D01*
X12701202Y8020661D01*
X12697795Y8059189D01*
X12684727Y8095594D01*
X12662428Y8127917D01*
X12631326Y8154201D01*
X12296532Y8368288D01*
X12259624Y8385491D01*
X12220926Y8392169D01*
X12182396Y8388755D01*
X12145993Y8375684D01*
X12113675Y8353387D01*
X12087400Y8322298D01*
X11711844Y7734994D01*
X11694645Y7698095D01*
X11687963Y7659402D01*
X11691369Y7620874D01*
X11704435Y7584469D01*
X11726733Y7552146D01*
X11757834Y7525862D01*
X12092628Y7311775D01*
G36*
X4555294Y10232540D02*
X4591847Y10215538D01*
X4630197Y10209000D01*
X4668394Y10212477D01*
X4704486Y10225520D01*
X4736526Y10247678D01*
X4762561Y10278500D01*
X5031771Y10699497D01*
X5048806Y10736030D01*
X5055425Y10774329D01*
X5052053Y10812459D01*
X5039117Y10848485D01*
X5017041Y10880472D01*
X4986251Y10906486D01*
X4438564Y11256709D01*
X4402031Y11273744D01*
X4363733Y11280363D01*
X4325603Y11276992D01*
X4289577Y11264055D01*
X4257590Y11241979D01*
X4231575Y11211189D01*
X3962365Y10790193D01*
X3945309Y10753628D01*
X3938638Y10715248D01*
X3941942Y10677013D01*
X3954812Y10640882D01*
X3976836Y10608814D01*
X4007605Y10582768D01*
X4555294Y10232540D01*
X4555294Y10232540D01*
G37*
X4555294Y10232540D02*
X4591847Y10215538D01*
X4630197Y10209000D01*
X4668394Y10212477D01*
X4704486Y10225520D01*
X4736526Y10247678D01*
X4762561Y10278500D01*
X5031771Y10699497D01*
X5048806Y10736030D01*
X5055425Y10774329D01*
X5052053Y10812459D01*
X5039117Y10848485D01*
X5017041Y10880472D01*
X4986251Y10906486D01*
X4438564Y11256709D01*
X4402031Y11273744D01*
X4363733Y11280363D01*
X4325603Y11276992D01*
X4289577Y11264055D01*
X4257590Y11241979D01*
X4231575Y11211189D01*
X3962365Y10790193D01*
X3945309Y10753628D01*
X3938638Y10715248D01*
X3941942Y10677013D01*
X3954812Y10640882D01*
X3976836Y10608814D01*
X4007605Y10582768D01*
X4555294Y10232540D01*
G36*
X5882279Y9383990D02*
X5918832Y9366984D01*
X5957183Y9360445D01*
X5995380Y9363923D01*
X6031473Y9376965D01*
X6063512Y9399121D01*
X6089548Y9429940D01*
X6358758Y9850937D01*
X6375793Y9887470D01*
X6382412Y9925768D01*
X6379040Y9963897D01*
X6366104Y9999923D01*
X6344028Y10031911D01*
X6313238Y10057927D01*
X5765552Y10408148D01*
X5728987Y10425204D01*
X5690608Y10431875D01*
X5652374Y10428570D01*
X5616243Y10415701D01*
X5584175Y10393677D01*
X5558127Y10362908D01*
X5288917Y9941912D01*
X5271893Y9905326D01*
X5265302Y9866894D01*
X5268711Y9828592D01*
X5281685Y9792394D01*
X5303792Y9760275D01*
X5334597Y9734209D01*
X5882279Y9383990D01*
X5882279Y9383990D01*
G37*
X5882279Y9383990D02*
X5918832Y9366984D01*
X5957183Y9360445D01*
X5995380Y9363923D01*
X6031473Y9376965D01*
X6063512Y9399121D01*
X6089548Y9429940D01*
X6358758Y9850937D01*
X6375793Y9887470D01*
X6382412Y9925768D01*
X6379040Y9963897D01*
X6366104Y9999923D01*
X6344028Y10031911D01*
X6313238Y10057927D01*
X5765552Y10408148D01*
X5728987Y10425204D01*
X5690608Y10431875D01*
X5652374Y10428570D01*
X5616243Y10415701D01*
X5584175Y10393677D01*
X5558127Y10362908D01*
X5288917Y9941912D01*
X5271893Y9905326D01*
X5265302Y9866894D01*
X5268711Y9828592D01*
X5281685Y9792394D01*
X5303792Y9760275D01*
X5334597Y9734209D01*
X5882279Y9383990D01*
G36*
X-17453069Y21181986D02*
X-17417134Y21168513D01*
X-17378312Y21164645D01*
X-17338471Y21171266D01*
X-16286826Y21493080D01*
X-16250159Y21509912D01*
X-16220241Y21534894D01*
X-16198021Y21566248D01*
X-16184450Y21602196D01*
X-16180475Y21640961D01*
X-16187046Y21680764D01*
X-16377230Y22302289D01*
X-16394051Y22338903D01*
X-16419004Y22368688D01*
X-16450320Y22390735D01*
X-16486231Y22404133D01*
X-16524967Y22407975D01*
X-16564759Y22401349D01*
X-17616405Y22079535D01*
X-17653051Y22062735D01*
X-17682917Y22037833D01*
X-17705068Y22006583D01*
X-17718569Y21970738D01*
X-17722486Y21932051D01*
X-17715885Y21892275D01*
X-17525699Y21270750D01*
X-17508979Y21234077D01*
X-17484229Y21204153D01*
X-17453049Y21181960D01*
X-17453069Y21181986D01*
X-17453069Y21181986D01*
G37*
X-17453069Y21181986D02*
X-17417134Y21168513D01*
X-17378312Y21164645D01*
X-17338471Y21171266D01*
X-16286826Y21493080D01*
X-16250159Y21509912D01*
X-16220241Y21534894D01*
X-16198021Y21566248D01*
X-16184450Y21602196D01*
X-16180475Y21640961D01*
X-16187046Y21680764D01*
X-16377230Y22302289D01*
X-16394051Y22338903D01*
X-16419004Y22368688D01*
X-16450320Y22390735D01*
X-16486231Y22404133D01*
X-16524967Y22407975D01*
X-16564759Y22401349D01*
X-17616405Y22079535D01*
X-17653051Y22062735D01*
X-17682917Y22037833D01*
X-17705068Y22006583D01*
X-17718569Y21970738D01*
X-17722486Y21932051D01*
X-17715885Y21892275D01*
X-17525699Y21270750D01*
X-17508979Y21234077D01*
X-17484229Y21204153D01*
X-17453049Y21181960D01*
X-17453069Y21181986D01*
G36*
X33690919Y-12259724D02*
X33722396Y-12281603D01*
X33755658Y-12300749D01*
X33790534Y-12317028D01*
X33826850Y-12330306D01*
X33864435Y-12340448D01*
X33903116Y-12347320D01*
X33942721Y-12350788D01*
X33983077Y-12350718D01*
X34024012Y-12346974D01*
X35609496Y-12130373D01*
X35653517Y-12122150D01*
X35695650Y-12109909D01*
X35735732Y-12093878D01*
X35773598Y-12074290D01*
X35809085Y-12051375D01*
X35842028Y-12025364D01*
X35872264Y-11996487D01*
X35899628Y-11964974D01*
X35923956Y-11931058D01*
X35945084Y-11894968D01*
X35962849Y-11856935D01*
X35977087Y-11817190D01*
X35987632Y-11775963D01*
X38491752Y-11434037D01*
X38369659Y-10542001D01*
X35865538Y-10883927D01*
X35844297Y-10847116D01*
X35819910Y-10812715D01*
X35792594Y-10780904D01*
X35762570Y-10751860D01*
X35730055Y-10725761D01*
X35695269Y-10702786D01*
X35658431Y-10683113D01*
X35619759Y-10666920D01*
X35579471Y-10654385D01*
X35537788Y-10645687D01*
X35494928Y-10641004D01*
X35451109Y-10640514D01*
X35406550Y-10644395D01*
X33821066Y-10860997D01*
X33775670Y-10869535D01*
X33732235Y-10882325D01*
X33690951Y-10899117D01*
X33652007Y-10919661D01*
X33615594Y-10943706D01*
X33581902Y-10971001D01*
X33551120Y-11001296D01*
X33523438Y-11034341D01*
X33499046Y-11069885D01*
X33478134Y-11107677D01*
X33460892Y-11147468D01*
X33447509Y-11189006D01*
X33438176Y-11232041D01*
X33433083Y-11276323D01*
X33432418Y-11321601D01*
X33436373Y-11367625D01*
X33517383Y-11962282D01*
X33524762Y-12002719D01*
X33535533Y-12041610D01*
X33549517Y-12078825D01*
X33566537Y-12114236D01*
X33586413Y-12147713D01*
X33608968Y-12179129D01*
X33634023Y-12208355D01*
X33661400Y-12235261D01*
X33690920Y-12259720D01*
X33690919Y-12259724D01*
X33690919Y-12259724D01*
G37*
X33690919Y-12259724D02*
X33722396Y-12281603D01*
X33755658Y-12300749D01*
X33790534Y-12317028D01*
X33826850Y-12330306D01*
X33864435Y-12340448D01*
X33903116Y-12347320D01*
X33942721Y-12350788D01*
X33983077Y-12350718D01*
X34024012Y-12346974D01*
X35609496Y-12130373D01*
X35653517Y-12122150D01*
X35695650Y-12109909D01*
X35735732Y-12093878D01*
X35773598Y-12074290D01*
X35809085Y-12051375D01*
X35842028Y-12025364D01*
X35872264Y-11996487D01*
X35899628Y-11964974D01*
X35923956Y-11931058D01*
X35945084Y-11894968D01*
X35962849Y-11856935D01*
X35977087Y-11817190D01*
X35987632Y-11775963D01*
X38491752Y-11434037D01*
X38369659Y-10542001D01*
X35865538Y-10883927D01*
X35844297Y-10847116D01*
X35819910Y-10812715D01*
X35792594Y-10780904D01*
X35762570Y-10751860D01*
X35730055Y-10725761D01*
X35695269Y-10702786D01*
X35658431Y-10683113D01*
X35619759Y-10666920D01*
X35579471Y-10654385D01*
X35537788Y-10645687D01*
X35494928Y-10641004D01*
X35451109Y-10640514D01*
X35406550Y-10644395D01*
X33821066Y-10860997D01*
X33775670Y-10869535D01*
X33732235Y-10882325D01*
X33690951Y-10899117D01*
X33652007Y-10919661D01*
X33615594Y-10943706D01*
X33581902Y-10971001D01*
X33551120Y-11001296D01*
X33523438Y-11034341D01*
X33499046Y-11069885D01*
X33478134Y-11107677D01*
X33460892Y-11147468D01*
X33447509Y-11189006D01*
X33438176Y-11232041D01*
X33433083Y-11276323D01*
X33432418Y-11321601D01*
X33436373Y-11367625D01*
X33517383Y-11962282D01*
X33524762Y-12002719D01*
X33535533Y-12041610D01*
X33549517Y-12078825D01*
X33566537Y-12114236D01*
X33586413Y-12147713D01*
X33608968Y-12179129D01*
X33634023Y-12208355D01*
X33661400Y-12235261D01*
X33690920Y-12259720D01*
X33690919Y-12259724D01*
G36*
X-25303934Y25426346D02*
X-25269332Y25409833D01*
X-25233394Y25396313D01*
X-25196315Y25385890D01*
X-25158292Y25378663D01*
X-25119520Y25374736D01*
X-25080194Y25374209D01*
X-25040511Y25377184D01*
X-25000665Y25383762D01*
X-24960854Y25394046D01*
X-24387359Y25569552D01*
X-24343918Y25585275D01*
X-24303086Y25604887D01*
X-24265012Y25628110D01*
X-24229845Y25654664D01*
X-24197732Y25684272D01*
X-24168822Y25716653D01*
X-24143264Y25751530D01*
X-24121207Y25788624D01*
X-24102799Y25827657D01*
X-24088188Y25868348D01*
X-24077523Y25910421D01*
X-24070953Y25953595D01*
X-24068626Y25997593D01*
X-24070691Y26042136D01*
X-24077296Y26086944D01*
X-24088589Y26131740D01*
X-24557425Y27661378D01*
X-24572613Y27703513D01*
X-24591459Y27743142D01*
X-24613710Y27780142D01*
X-24639115Y27814385D01*
X-24667418Y27845746D01*
X-24698368Y27874099D01*
X-24731711Y27899320D01*
X-24767194Y27921282D01*
X-24804564Y27939859D01*
X-24843568Y27954927D01*
X-24883952Y27966358D01*
X-24925464Y27974029D01*
X-24967851Y27977812D01*
X-25708054Y30394345D01*
X-26568298Y30131085D01*
X-25828374Y27714116D01*
X-25861335Y27687238D01*
X-25891413Y27657629D01*
X-25918467Y27625537D01*
X-25942354Y27591208D01*
X-25962934Y27554887D01*
X-25980063Y27516821D01*
X-25993600Y27477256D01*
X-26003403Y27436439D01*
X-26009330Y27394615D01*
X-26011240Y27352030D01*
X-26008989Y27308932D01*
X-26002436Y27265566D01*
X-25991439Y27222178D01*
X-25522880Y25692104D01*
X-25509103Y25653376D01*
X-25492234Y25616716D01*
X-25472468Y25582223D01*
X-25450000Y25549998D01*
X-25425024Y25520138D01*
X-25397735Y25492745D01*
X-25368326Y25467916D01*
X-25336994Y25445752D01*
X-25303932Y25426352D01*
X-25303934Y25426346D01*
X-25303934Y25426346D01*
G37*
X-25303934Y25426346D02*
X-25269332Y25409833D01*
X-25233394Y25396313D01*
X-25196315Y25385890D01*
X-25158292Y25378663D01*
X-25119520Y25374736D01*
X-25080194Y25374209D01*
X-25040511Y25377184D01*
X-25000665Y25383762D01*
X-24960854Y25394046D01*
X-24387359Y25569552D01*
X-24343918Y25585275D01*
X-24303086Y25604887D01*
X-24265012Y25628110D01*
X-24229845Y25654664D01*
X-24197732Y25684272D01*
X-24168822Y25716653D01*
X-24143264Y25751530D01*
X-24121207Y25788624D01*
X-24102799Y25827657D01*
X-24088188Y25868348D01*
X-24077523Y25910421D01*
X-24070953Y25953595D01*
X-24068626Y25997593D01*
X-24070691Y26042136D01*
X-24077296Y26086944D01*
X-24088589Y26131740D01*
X-24557425Y27661378D01*
X-24572613Y27703513D01*
X-24591459Y27743142D01*
X-24613710Y27780142D01*
X-24639115Y27814385D01*
X-24667418Y27845746D01*
X-24698368Y27874099D01*
X-24731711Y27899320D01*
X-24767194Y27921282D01*
X-24804564Y27939859D01*
X-24843568Y27954927D01*
X-24883952Y27966358D01*
X-24925464Y27974029D01*
X-24967851Y27977812D01*
X-25708054Y30394345D01*
X-26568298Y30131085D01*
X-25828374Y27714116D01*
X-25861335Y27687238D01*
X-25891413Y27657629D01*
X-25918467Y27625537D01*
X-25942354Y27591208D01*
X-25962934Y27554887D01*
X-25980063Y27516821D01*
X-25993600Y27477256D01*
X-26003403Y27436439D01*
X-26009330Y27394615D01*
X-26011240Y27352030D01*
X-26008989Y27308932D01*
X-26002436Y27265566D01*
X-25991439Y27222178D01*
X-25522880Y25692104D01*
X-25509103Y25653376D01*
X-25492234Y25616716D01*
X-25472468Y25582223D01*
X-25450000Y25549998D01*
X-25425024Y25520138D01*
X-25397735Y25492745D01*
X-25368326Y25467916D01*
X-25336994Y25445752D01*
X-25303932Y25426352D01*
X-25303934Y25426346D01*
G36*
X-16852883Y19221787D02*
X-16816947Y19208314D01*
X-16778126Y19204446D01*
X-16738284Y19211067D01*
X-15686638Y19532882D01*
X-15649975Y19549714D01*
X-15620058Y19574696D01*
X-15597838Y19606050D01*
X-15584264Y19641998D01*
X-15580288Y19680762D01*
X-15586858Y19720566D01*
X-15777322Y20341655D01*
X-15794123Y20378302D01*
X-15819025Y20408169D01*
X-15850275Y20430322D01*
X-15886119Y20443827D01*
X-15924802Y20447750D01*
X-15964571Y20441155D01*
X-17016652Y20119618D01*
X-17053266Y20102797D01*
X-17083051Y20077844D01*
X-17105098Y20046527D01*
X-17118497Y20010617D01*
X-17122338Y19971881D01*
X-17115712Y19932090D01*
X-16925528Y19310565D01*
X-16908808Y19273890D01*
X-16884058Y19243966D01*
X-16852878Y19221785D01*
X-16852883Y19221787D01*
X-16852883Y19221787D01*
G37*
X-16852883Y19221787D02*
X-16816947Y19208314D01*
X-16778126Y19204446D01*
X-16738284Y19211067D01*
X-15686638Y19532882D01*
X-15649975Y19549714D01*
X-15620058Y19574696D01*
X-15597838Y19606050D01*
X-15584264Y19641998D01*
X-15580288Y19680762D01*
X-15586858Y19720566D01*
X-15777322Y20341655D01*
X-15794123Y20378302D01*
X-15819025Y20408169D01*
X-15850275Y20430322D01*
X-15886119Y20443827D01*
X-15924802Y20447750D01*
X-15964571Y20441155D01*
X-17016652Y20119618D01*
X-17053266Y20102797D01*
X-17083051Y20077844D01*
X-17105098Y20046527D01*
X-17118497Y20010617D01*
X-17122338Y19971881D01*
X-17115712Y19932090D01*
X-16925528Y19310565D01*
X-16908808Y19273890D01*
X-16884058Y19243966D01*
X-16852878Y19221785D01*
X-16852883Y19221787D01*
G36*
X4562597Y2921218D02*
X5219612Y3948674D01*
X4663653Y4304186D01*
X4976293Y4793099D01*
X2263545Y6527786D01*
X1950906Y6038873D01*
X1394512Y6394663D01*
X737497Y5367208D01*
X4562597Y2921218D01*
X4562597Y2921218D01*
G37*
X4562597Y2921218D02*
X5219612Y3948674D01*
X4663653Y4304186D01*
X4976293Y4793099D01*
X2263545Y6527786D01*
X1950906Y6038873D01*
X1394512Y6394663D01*
X737497Y5367208D01*
X4562597Y2921218D01*
G36*
X2713488Y1254468D02*
X3026127Y1743381D01*
X3582085Y1387870D01*
X4239100Y2415325D01*
X414001Y4861315D01*
X-243014Y3833859D01*
X313380Y3478069D01*
X741Y2989155D01*
X2713488Y1254468D01*
X2713488Y1254468D01*
G37*
X2713488Y1254468D02*
X3026127Y1743381D01*
X3582085Y1387870D01*
X4239100Y2415325D01*
X414001Y4861315D01*
X-243014Y3833859D01*
X313380Y3478069D01*
X741Y2989155D01*
X2713488Y1254468D01*
G36*
X32924339Y-22377422D02*
X33682732Y-21892621D01*
X32321425Y-19763456D01*
X32345989Y-19728718D01*
X32367034Y-19692125D01*
X32384488Y-19653952D01*
X32398284Y-19614473D01*
X32408352Y-19573963D01*
X32414623Y-19532698D01*
X32417028Y-19490952D01*
X32415497Y-19448999D01*
X32409961Y-19407116D01*
X32400351Y-19365577D01*
X32386598Y-19324656D01*
X32368632Y-19284629D01*
X32346385Y-19245771D01*
X31484931Y-17897505D01*
X31458129Y-17859879D01*
X31428283Y-17825813D01*
X31395703Y-17795374D01*
X31360695Y-17768631D01*
X31323568Y-17745651D01*
X31284630Y-17726502D01*
X31244187Y-17711254D01*
X31202549Y-17699972D01*
X31160023Y-17692727D01*
X31116916Y-17689584D01*
X31073538Y-17690613D01*
X31030194Y-17695882D01*
X30987194Y-17705457D01*
X30944846Y-17719409D01*
X30903456Y-17737803D01*
X30863333Y-17760709D01*
X30357882Y-18084003D01*
X30320256Y-18110806D01*
X30286190Y-18140653D01*
X30255751Y-18173234D01*
X30229009Y-18208242D01*
X30206029Y-18245370D01*
X30186881Y-18284309D01*
X30171633Y-18324752D01*
X30160352Y-18366390D01*
X30153106Y-18408916D01*
X30149964Y-18452023D01*
X30150993Y-18495401D01*
X30156261Y-18538744D01*
X30165837Y-18581743D01*
X30179788Y-18624091D01*
X30198181Y-18665480D01*
X30221086Y-18705601D01*
X31082820Y-20053429D01*
X31108741Y-20089917D01*
X31137520Y-20123016D01*
X31168880Y-20152673D01*
X31202540Y-20178835D01*
X31238223Y-20201450D01*
X31275649Y-20220462D01*
X31314540Y-20235821D01*
X31354617Y-20247472D01*
X31395601Y-20255362D01*
X31437214Y-20259439D01*
X31479176Y-20259648D01*
X31521210Y-20255938D01*
X31563035Y-20248254D01*
X32924339Y-22377422D01*
X32924339Y-22377422D01*
G37*
X32924339Y-22377422D02*
X33682732Y-21892621D01*
X32321425Y-19763456D01*
X32345989Y-19728718D01*
X32367034Y-19692125D01*
X32384488Y-19653952D01*
X32398284Y-19614473D01*
X32408352Y-19573963D01*
X32414623Y-19532698D01*
X32417028Y-19490952D01*
X32415497Y-19448999D01*
X32409961Y-19407116D01*
X32400351Y-19365577D01*
X32386598Y-19324656D01*
X32368632Y-19284629D01*
X32346385Y-19245771D01*
X31484931Y-17897505D01*
X31458129Y-17859879D01*
X31428283Y-17825813D01*
X31395703Y-17795374D01*
X31360695Y-17768631D01*
X31323568Y-17745651D01*
X31284630Y-17726502D01*
X31244187Y-17711254D01*
X31202549Y-17699972D01*
X31160023Y-17692727D01*
X31116916Y-17689584D01*
X31073538Y-17690613D01*
X31030194Y-17695882D01*
X30987194Y-17705457D01*
X30944846Y-17719409D01*
X30903456Y-17737803D01*
X30863333Y-17760709D01*
X30357882Y-18084003D01*
X30320256Y-18110806D01*
X30286190Y-18140653D01*
X30255751Y-18173234D01*
X30229009Y-18208242D01*
X30206029Y-18245370D01*
X30186881Y-18284309D01*
X30171633Y-18324752D01*
X30160352Y-18366390D01*
X30153106Y-18408916D01*
X30149964Y-18452023D01*
X30150993Y-18495401D01*
X30156261Y-18538744D01*
X30165837Y-18581743D01*
X30179788Y-18624091D01*
X30198181Y-18665480D01*
X30221086Y-18705601D01*
X31082820Y-20053429D01*
X31108741Y-20089917D01*
X31137520Y-20123016D01*
X31168880Y-20152673D01*
X31202540Y-20178835D01*
X31238223Y-20201450D01*
X31275649Y-20220462D01*
X31314540Y-20235821D01*
X31354617Y-20247472D01*
X31395601Y-20255362D01*
X31437214Y-20259439D01*
X31479176Y-20259648D01*
X31521210Y-20255938D01*
X31563035Y-20248254D01*
X32924339Y-22377422D01*
G36*
X-34128307Y20488874D02*
X-31623750Y20146595D01*
X-31613200Y20105374D01*
X-31598962Y20065626D01*
X-31581199Y20027583D01*
X-31560075Y19991477D01*
X-31535754Y19957540D01*
X-31508400Y19926005D01*
X-31478175Y19897102D01*
X-31445243Y19871065D01*
X-31409768Y19848126D01*
X-31371914Y19828516D01*
X-31331844Y19812468D01*
X-31289721Y19800214D01*
X-31245710Y19791986D01*
X-29660702Y19575228D01*
X-29614675Y19571273D01*
X-29569390Y19571943D01*
X-29525098Y19577048D01*
X-29482049Y19586397D01*
X-29440495Y19599800D01*
X-29400687Y19617065D01*
X-29362875Y19638002D01*
X-29327312Y19662420D01*
X-29294247Y19690128D01*
X-29263932Y19720936D01*
X-29236618Y19754653D01*
X-29212555Y19791087D01*
X-29191996Y19830049D01*
X-29175191Y19871347D01*
X-29162392Y19914791D01*
X-29153848Y19960190D01*
X-29072438Y20554641D01*
X-29068482Y20600667D01*
X-29069153Y20645952D01*
X-29074257Y20690244D01*
X-29083606Y20733293D01*
X-29097008Y20774847D01*
X-29114273Y20814656D01*
X-29135210Y20852468D01*
X-29159627Y20888032D01*
X-29187335Y20921098D01*
X-29218143Y20951413D01*
X-29251859Y20978727D01*
X-29288294Y21002790D01*
X-29327256Y21023349D01*
X-29368554Y21040154D01*
X-29411999Y21052953D01*
X-29457398Y21061496D01*
X-31042405Y21278253D01*
X-31087001Y21282141D01*
X-31130863Y21281650D01*
X-31173772Y21276960D01*
X-31215506Y21268249D01*
X-31255845Y21255697D01*
X-31294569Y21239481D01*
X-31331456Y21219780D01*
X-31366286Y21196774D01*
X-31398838Y21170640D01*
X-31428892Y21141558D01*
X-31456226Y21109706D01*
X-31480621Y21075263D01*
X-31501855Y21038407D01*
X-34006415Y21380686D01*
X-34128307Y20488874D01*
X-34128307Y20488874D01*
G37*
X-34128307Y20488874D02*
X-31623750Y20146595D01*
X-31613200Y20105374D01*
X-31598962Y20065626D01*
X-31581199Y20027583D01*
X-31560075Y19991477D01*
X-31535754Y19957540D01*
X-31508400Y19926005D01*
X-31478175Y19897102D01*
X-31445243Y19871065D01*
X-31409768Y19848126D01*
X-31371914Y19828516D01*
X-31331844Y19812468D01*
X-31289721Y19800214D01*
X-31245710Y19791986D01*
X-29660702Y19575228D01*
X-29614675Y19571273D01*
X-29569390Y19571943D01*
X-29525098Y19577048D01*
X-29482049Y19586397D01*
X-29440495Y19599800D01*
X-29400687Y19617065D01*
X-29362875Y19638002D01*
X-29327312Y19662420D01*
X-29294247Y19690128D01*
X-29263932Y19720936D01*
X-29236618Y19754653D01*
X-29212555Y19791087D01*
X-29191996Y19830049D01*
X-29175191Y19871347D01*
X-29162392Y19914791D01*
X-29153848Y19960190D01*
X-29072438Y20554641D01*
X-29068482Y20600667D01*
X-29069153Y20645952D01*
X-29074257Y20690244D01*
X-29083606Y20733293D01*
X-29097008Y20774847D01*
X-29114273Y20814656D01*
X-29135210Y20852468D01*
X-29159627Y20888032D01*
X-29187335Y20921098D01*
X-29218143Y20951413D01*
X-29251859Y20978727D01*
X-29288294Y21002790D01*
X-29327256Y21023349D01*
X-29368554Y21040154D01*
X-29411999Y21052953D01*
X-29457398Y21061496D01*
X-31042405Y21278253D01*
X-31087001Y21282141D01*
X-31130863Y21281650D01*
X-31173772Y21276960D01*
X-31215506Y21268249D01*
X-31255845Y21255697D01*
X-31294569Y21239481D01*
X-31331456Y21219780D01*
X-31366286Y21196774D01*
X-31398838Y21170640D01*
X-31428892Y21141558D01*
X-31456226Y21109706D01*
X-31480621Y21075263D01*
X-31501855Y21038407D01*
X-34006415Y21380686D01*
X-34128307Y20488874D01*
G36*
X-6089801Y-1541645D02*
X-3643811Y2283453D01*
X-4671268Y2940469D01*
X-5026780Y2384510D01*
X-5515692Y2697149D01*
X-7250387Y-15610D01*
X-6761475Y-328248D01*
X-7117265Y-884642D01*
X-6089801Y-1541645D01*
X-6089801Y-1541645D01*
G37*
X-6089801Y-1541645D02*
X-3643811Y2283453D01*
X-4671268Y2940469D01*
X-5026780Y2384510D01*
X-5515692Y2697149D01*
X-7250387Y-15610D01*
X-6761475Y-328248D01*
X-7117265Y-884642D01*
X-6089801Y-1541645D01*
G36*
X-4556452Y-2522157D02*
X-4200669Y-1965775D01*
X-3711757Y-2278414D01*
X-1977070Y434333D01*
X-2465982Y746972D01*
X-2110471Y1302930D01*
X-3137927Y1959945D01*
X-5583917Y-1865154D01*
X-4556452Y-2522157D01*
X-4556452Y-2522157D01*
G37*
X-4556452Y-2522157D02*
X-4200669Y-1965775D01*
X-3711757Y-2278414D01*
X-1977070Y434333D01*
X-2465982Y746972D01*
X-2110471Y1302930D01*
X-3137927Y1959945D01*
X-5583917Y-1865154D01*
X-4556452Y-2522157D01*
G36*
X649618Y-5851219D02*
X3095607Y-2026120D01*
X2068151Y-1369105D01*
X1712360Y-1925499D01*
X1223448Y-1612860D01*
X-511246Y-4325619D01*
X-22334Y-4638257D01*
X-377846Y-5194216D01*
X649618Y-5851219D01*
X649618Y-5851219D01*
G37*
X649618Y-5851219D02*
X3095607Y-2026120D01*
X2068151Y-1369105D01*
X1712360Y-1925499D01*
X1223448Y-1612860D01*
X-511246Y-4325619D01*
X-22334Y-4638257D01*
X-377846Y-5194216D01*
X649618Y-5851219D01*
G36*
X2182967Y-6831731D02*
X2538479Y-6275772D01*
X3027391Y-6588411D01*
X4762078Y-3875665D01*
X4273165Y-3563026D01*
X4628956Y-3006632D01*
X3601499Y-2349617D01*
X1155502Y-6174728D01*
X2182967Y-6831731D01*
X2182967Y-6831731D01*
G37*
X2182967Y-6831731D02*
X2538479Y-6275772D01*
X3027391Y-6588411D01*
X4762078Y-3875665D01*
X4273165Y-3563026D01*
X4628956Y-3006632D01*
X3601499Y-2349617D01*
X1155502Y-6174728D01*
X2182967Y-6831731D01*
G36*
X26804519Y-26290224D02*
X27562913Y-25805422D01*
X26201172Y-23675979D01*
X26225725Y-23641245D01*
X26246775Y-23604662D01*
X26264252Y-23566506D01*
X26278081Y-23527049D01*
X26288193Y-23486564D01*
X26294513Y-23445327D01*
X26296971Y-23403611D01*
X26295494Y-23361688D01*
X26290010Y-23319834D01*
X26280447Y-23278321D01*
X26266733Y-23237424D01*
X26248795Y-23197416D01*
X26226562Y-23158571D01*
X25364397Y-21810463D01*
X25337594Y-21772837D01*
X25307749Y-21738771D01*
X25275168Y-21708333D01*
X25240160Y-21681590D01*
X25203033Y-21658610D01*
X25164095Y-21639462D01*
X25123653Y-21624213D01*
X25082014Y-21612932D01*
X25039488Y-21605686D01*
X24996382Y-21602543D01*
X24953004Y-21603572D01*
X24909661Y-21608840D01*
X24866661Y-21618416D01*
X24824312Y-21632367D01*
X24782923Y-21650761D01*
X24742800Y-21673667D01*
X24237625Y-21996524D01*
X24199999Y-22023326D01*
X24165933Y-22053172D01*
X24135495Y-22085753D01*
X24108752Y-22120760D01*
X24085772Y-22157888D01*
X24066624Y-22196827D01*
X24051375Y-22237270D01*
X24040094Y-22278908D01*
X24032848Y-22321435D01*
X24029706Y-22364541D01*
X24030735Y-22407920D01*
X24036003Y-22451264D01*
X24045579Y-22494263D01*
X24059530Y-22536612D01*
X24077924Y-22578001D01*
X24100829Y-22618123D01*
X24962720Y-23966667D01*
X24988654Y-24003162D01*
X25017450Y-24036255D01*
X25048828Y-24065894D01*
X25082511Y-24092029D01*
X25118217Y-24114607D01*
X25155668Y-24133577D01*
X25194585Y-24148889D01*
X25234687Y-24160491D01*
X25275697Y-24168332D01*
X25317333Y-24172361D01*
X25359318Y-24172526D01*
X25401371Y-24168775D01*
X25443213Y-24161059D01*
X26804519Y-26290224D01*
X26804519Y-26290224D01*
G37*
X26804519Y-26290224D02*
X27562913Y-25805422D01*
X26201172Y-23675979D01*
X26225725Y-23641245D01*
X26246775Y-23604662D01*
X26264252Y-23566506D01*
X26278081Y-23527049D01*
X26288193Y-23486564D01*
X26294513Y-23445327D01*
X26296971Y-23403611D01*
X26295494Y-23361688D01*
X26290010Y-23319834D01*
X26280447Y-23278321D01*
X26266733Y-23237424D01*
X26248795Y-23197416D01*
X26226562Y-23158571D01*
X25364397Y-21810463D01*
X25337594Y-21772837D01*
X25307749Y-21738771D01*
X25275168Y-21708333D01*
X25240160Y-21681590D01*
X25203033Y-21658610D01*
X25164095Y-21639462D01*
X25123653Y-21624213D01*
X25082014Y-21612932D01*
X25039488Y-21605686D01*
X24996382Y-21602543D01*
X24953004Y-21603572D01*
X24909661Y-21608840D01*
X24866661Y-21618416D01*
X24824312Y-21632367D01*
X24782923Y-21650761D01*
X24742800Y-21673667D01*
X24237625Y-21996524D01*
X24199999Y-22023326D01*
X24165933Y-22053172D01*
X24135495Y-22085753D01*
X24108752Y-22120760D01*
X24085772Y-22157888D01*
X24066624Y-22196827D01*
X24051375Y-22237270D01*
X24040094Y-22278908D01*
X24032848Y-22321435D01*
X24029706Y-22364541D01*
X24030735Y-22407920D01*
X24036003Y-22451264D01*
X24045579Y-22494263D01*
X24059530Y-22536612D01*
X24077924Y-22578001D01*
X24100829Y-22618123D01*
X24962720Y-23966667D01*
X24988654Y-24003162D01*
X25017450Y-24036255D01*
X25048828Y-24065894D01*
X25082511Y-24092029D01*
X25118217Y-24114607D01*
X25155668Y-24133577D01*
X25194585Y-24148889D01*
X25234687Y-24160491D01*
X25275697Y-24168332D01*
X25317333Y-24172361D01*
X25359318Y-24172526D01*
X25401371Y-24168775D01*
X25443213Y-24161059D01*
X26804519Y-26290224D01*
G36*
X-35112153Y13291830D02*
X-32634893Y12952900D01*
X-32513001Y13844718D01*
X-34989823Y14183368D01*
X-35112153Y13291830D01*
X-35112153Y13291830D01*
G37*
X-35112153Y13291830D02*
X-32634893Y12952900D01*
X-32513001Y13844718D01*
X-34989823Y14183368D01*
X-35112153Y13291830D01*
G36*
X-35817691Y4437934D02*
X-32944328Y4045063D01*
X-32822712Y4936444D01*
X-35696074Y5329314D01*
X-35817691Y4437934D01*
X-35817691Y4437934D01*
G37*
X-35817691Y4437934D02*
X-32944328Y4045063D01*
X-32822712Y4936444D01*
X-35696074Y5329314D01*
X-35817691Y4437934D01*
G36*
X-37514063Y-4281050D02*
X-35010216Y-4623487D01*
X-34999644Y-4664676D01*
X-34985378Y-4704388D01*
X-34967582Y-4742390D01*
X-34946424Y-4778453D01*
X-34922066Y-4812346D01*
X-34894676Y-4843837D01*
X-34864418Y-4872696D01*
X-34831457Y-4898693D01*
X-34795958Y-4921596D01*
X-34758088Y-4941175D01*
X-34718010Y-4957198D01*
X-34675891Y-4969436D01*
X-34631895Y-4977657D01*
X-33046889Y-5194413D01*
X-33000863Y-5198368D01*
X-32955579Y-5197698D01*
X-32911287Y-5192593D01*
X-32868238Y-5183244D01*
X-32826684Y-5169842D01*
X-32786876Y-5152577D01*
X-32749064Y-5131640D01*
X-32713500Y-5107222D01*
X-32680434Y-5079514D01*
X-32650119Y-5048706D01*
X-32622804Y-5014990D01*
X-32598742Y-4978555D01*
X-32578182Y-4939593D01*
X-32561377Y-4898295D01*
X-32548577Y-4854851D01*
X-32540033Y-4809452D01*
X-32458623Y-4215001D01*
X-32454669Y-4168975D01*
X-32455340Y-4123690D01*
X-32460446Y-4079397D01*
X-32469796Y-4036348D01*
X-32483198Y-3994794D01*
X-32500463Y-3954985D01*
X-32521399Y-3917174D01*
X-32545817Y-3881610D01*
X-32573524Y-3848544D01*
X-32604331Y-3818229D01*
X-32638047Y-3790915D01*
X-32674482Y-3766852D01*
X-32713443Y-3746293D01*
X-32754741Y-3729488D01*
X-32798185Y-3716689D01*
X-32843585Y-3708145D01*
X-34428870Y-3491823D01*
X-34473477Y-3487932D01*
X-34517348Y-3488418D01*
X-34560263Y-3493102D01*
X-34602002Y-3501807D01*
X-34642343Y-3514353D01*
X-34681067Y-3530564D01*
X-34717952Y-3550261D01*
X-34752779Y-3573265D01*
X-34785327Y-3599399D01*
X-34815376Y-3628485D01*
X-34842705Y-3660344D01*
X-34867093Y-3694798D01*
X-34888321Y-3731670D01*
X-37392166Y-3389233D01*
X-37514063Y-4281050D01*
X-37514063Y-4281050D01*
G37*
X-37514063Y-4281050D02*
X-35010216Y-4623487D01*
X-34999644Y-4664676D01*
X-34985378Y-4704388D01*
X-34967582Y-4742390D01*
X-34946424Y-4778453D01*
X-34922066Y-4812346D01*
X-34894676Y-4843837D01*
X-34864418Y-4872696D01*
X-34831457Y-4898693D01*
X-34795958Y-4921596D01*
X-34758088Y-4941175D01*
X-34718010Y-4957198D01*
X-34675891Y-4969436D01*
X-34631895Y-4977657D01*
X-33046889Y-5194413D01*
X-33000863Y-5198368D01*
X-32955579Y-5197698D01*
X-32911287Y-5192593D01*
X-32868238Y-5183244D01*
X-32826684Y-5169842D01*
X-32786876Y-5152577D01*
X-32749064Y-5131640D01*
X-32713500Y-5107222D01*
X-32680434Y-5079514D01*
X-32650119Y-5048706D01*
X-32622804Y-5014990D01*
X-32598742Y-4978555D01*
X-32578182Y-4939593D01*
X-32561377Y-4898295D01*
X-32548577Y-4854851D01*
X-32540033Y-4809452D01*
X-32458623Y-4215001D01*
X-32454669Y-4168975D01*
X-32455340Y-4123690D01*
X-32460446Y-4079397D01*
X-32469796Y-4036348D01*
X-32483198Y-3994794D01*
X-32500463Y-3954985D01*
X-32521399Y-3917174D01*
X-32545817Y-3881610D01*
X-32573524Y-3848544D01*
X-32604331Y-3818229D01*
X-32638047Y-3790915D01*
X-32674482Y-3766852D01*
X-32713443Y-3746293D01*
X-32754741Y-3729488D01*
X-32798185Y-3716689D01*
X-32843585Y-3708145D01*
X-34428870Y-3491823D01*
X-34473477Y-3487932D01*
X-34517348Y-3488418D01*
X-34560263Y-3493102D01*
X-34602002Y-3501807D01*
X-34642343Y-3514353D01*
X-34681067Y-3530564D01*
X-34717952Y-3550261D01*
X-34752779Y-3573265D01*
X-34785327Y-3599399D01*
X-34815376Y-3628485D01*
X-34842705Y-3660344D01*
X-34867093Y-3694798D01*
X-34888321Y-3731670D01*
X-37392166Y-3389233D01*
X-37514063Y-4281050D01*
G36*
X-38497913Y-11478107D02*
X-35994067Y-11820542D01*
X-35983493Y-11861732D01*
X-35969225Y-11901444D01*
X-35951430Y-11939447D01*
X-35930271Y-11975510D01*
X-35905914Y-12009402D01*
X-35878524Y-12040894D01*
X-35848266Y-12069753D01*
X-35815306Y-12095750D01*
X-35779808Y-12118653D01*
X-35741939Y-12138231D01*
X-35701862Y-12154255D01*
X-35659743Y-12166492D01*
X-35615747Y-12174713D01*
X-34030740Y-12391470D01*
X-33984714Y-12395424D01*
X-33939429Y-12394753D01*
X-33895137Y-12389647D01*
X-33852088Y-12380298D01*
X-33810533Y-12366895D01*
X-33770724Y-12349631D01*
X-33732912Y-12328695D01*
X-33697348Y-12304277D01*
X-33664283Y-12276570D01*
X-33633967Y-12245763D01*
X-33606653Y-12212047D01*
X-33582590Y-12175612D01*
X-33562031Y-12136651D01*
X-33545227Y-12095352D01*
X-33532427Y-12051907D01*
X-33523884Y-12006507D01*
X-33442474Y-11412057D01*
X-33438519Y-11366031D01*
X-33439189Y-11320747D01*
X-33444294Y-11276455D01*
X-33453643Y-11233406D01*
X-33467046Y-11191852D01*
X-33484311Y-11152043D01*
X-33505248Y-11114231D01*
X-33529667Y-11078666D01*
X-33557375Y-11045601D01*
X-33588183Y-11015285D01*
X-33621900Y-10987970D01*
X-33658334Y-10963908D01*
X-33697296Y-10943349D01*
X-33738594Y-10926544D01*
X-33782038Y-10913744D01*
X-33827436Y-10905201D01*
X-35412720Y-10688878D01*
X-35457326Y-10684987D01*
X-35501197Y-10685473D01*
X-35544112Y-10690157D01*
X-35585850Y-10698862D01*
X-35626192Y-10711408D01*
X-35664916Y-10727619D01*
X-35701802Y-10747316D01*
X-35736629Y-10770320D01*
X-35769178Y-10796454D01*
X-35799227Y-10825540D01*
X-35826555Y-10857400D01*
X-35850944Y-10891854D01*
X-35872171Y-10928726D01*
X-38376016Y-10586292D01*
X-38497913Y-11478107D01*
X-38497913Y-11478107D01*
G37*
X-38497913Y-11478107D02*
X-35994067Y-11820542D01*
X-35983493Y-11861732D01*
X-35969225Y-11901444D01*
X-35951430Y-11939447D01*
X-35930271Y-11975510D01*
X-35905914Y-12009402D01*
X-35878524Y-12040894D01*
X-35848266Y-12069753D01*
X-35815306Y-12095750D01*
X-35779808Y-12118653D01*
X-35741939Y-12138231D01*
X-35701862Y-12154255D01*
X-35659743Y-12166492D01*
X-35615747Y-12174713D01*
X-34030740Y-12391470D01*
X-33984714Y-12395424D01*
X-33939429Y-12394753D01*
X-33895137Y-12389647D01*
X-33852088Y-12380298D01*
X-33810533Y-12366895D01*
X-33770724Y-12349631D01*
X-33732912Y-12328695D01*
X-33697348Y-12304277D01*
X-33664283Y-12276570D01*
X-33633967Y-12245763D01*
X-33606653Y-12212047D01*
X-33582590Y-12175612D01*
X-33562031Y-12136651D01*
X-33545227Y-12095352D01*
X-33532427Y-12051907D01*
X-33523884Y-12006507D01*
X-33442474Y-11412057D01*
X-33438519Y-11366031D01*
X-33439189Y-11320747D01*
X-33444294Y-11276455D01*
X-33453643Y-11233406D01*
X-33467046Y-11191852D01*
X-33484311Y-11152043D01*
X-33505248Y-11114231D01*
X-33529667Y-11078666D01*
X-33557375Y-11045601D01*
X-33588183Y-11015285D01*
X-33621900Y-10987970D01*
X-33658334Y-10963908D01*
X-33697296Y-10943349D01*
X-33738594Y-10926544D01*
X-33782038Y-10913744D01*
X-33827436Y-10905201D01*
X-35412720Y-10688878D01*
X-35457326Y-10684987D01*
X-35501197Y-10685473D01*
X-35544112Y-10690157D01*
X-35585850Y-10698862D01*
X-35626192Y-10711408D01*
X-35664916Y-10727619D01*
X-35701802Y-10747316D01*
X-35736629Y-10770320D01*
X-35769178Y-10796454D01*
X-35799227Y-10825540D01*
X-35826555Y-10857400D01*
X-35850944Y-10891854D01*
X-35872171Y-10928726D01*
X-38376016Y-10586292D01*
X-38497913Y-11478107D01*
G36*
X-32894234Y-22394448D02*
X-31532597Y-20265087D01*
X-31490765Y-20272801D01*
X-31448721Y-20276565D01*
X-31406747Y-20276426D01*
X-31365120Y-20272434D01*
X-31324120Y-20264637D01*
X-31284026Y-20253084D01*
X-31245118Y-20237824D01*
X-31207674Y-20218906D01*
X-31171975Y-20196378D01*
X-31138299Y-20170289D01*
X-31106925Y-20140688D01*
X-31078133Y-20107624D01*
X-31052202Y-20071145D01*
X-30190287Y-18723260D01*
X-30167382Y-18683143D01*
X-30148987Y-18641756D01*
X-30135034Y-18599407D01*
X-30125456Y-18556405D01*
X-30120184Y-18513057D01*
X-30119150Y-18469672D01*
X-30122287Y-18426558D01*
X-30129527Y-18384023D01*
X-30140803Y-18342376D01*
X-30156045Y-18301924D01*
X-30175186Y-18262976D01*
X-30198159Y-18225839D01*
X-30224895Y-18190823D01*
X-30255326Y-18158235D01*
X-30289386Y-18128383D01*
X-30327005Y-18101576D01*
X-30832461Y-17778358D01*
X-30872579Y-17755453D01*
X-30913967Y-17737058D01*
X-30956317Y-17723106D01*
X-30999319Y-17713527D01*
X-31042667Y-17708255D01*
X-31086052Y-17707222D01*
X-31129166Y-17710359D01*
X-31171700Y-17717599D01*
X-31213347Y-17728874D01*
X-31253799Y-17744116D01*
X-31292747Y-17763257D01*
X-31329883Y-17786229D01*
X-31364899Y-17812965D01*
X-31397486Y-17843397D01*
X-31427338Y-17877456D01*
X-31454145Y-17915075D01*
X-32316061Y-19262961D01*
X-32338322Y-19301839D01*
X-32356293Y-19341884D01*
X-32370045Y-19382823D01*
X-32379647Y-19424379D01*
X-32385169Y-19466279D01*
X-32386680Y-19508247D01*
X-32384251Y-19550008D01*
X-32377952Y-19591287D01*
X-32367852Y-19631810D01*
X-32354021Y-19671301D01*
X-32336529Y-19709486D01*
X-32315446Y-19746089D01*
X-32290841Y-19780836D01*
X-33652201Y-21909760D01*
X-32894234Y-22394448D01*
X-32894234Y-22394448D01*
G37*
X-32894234Y-22394448D02*
X-31532597Y-20265087D01*
X-31490765Y-20272801D01*
X-31448721Y-20276565D01*
X-31406747Y-20276426D01*
X-31365120Y-20272434D01*
X-31324120Y-20264637D01*
X-31284026Y-20253084D01*
X-31245118Y-20237824D01*
X-31207674Y-20218906D01*
X-31171975Y-20196378D01*
X-31138299Y-20170289D01*
X-31106925Y-20140688D01*
X-31078133Y-20107624D01*
X-31052202Y-20071145D01*
X-30190287Y-18723260D01*
X-30167382Y-18683143D01*
X-30148987Y-18641756D01*
X-30135034Y-18599407D01*
X-30125456Y-18556405D01*
X-30120184Y-18513057D01*
X-30119150Y-18469672D01*
X-30122287Y-18426558D01*
X-30129527Y-18384023D01*
X-30140803Y-18342376D01*
X-30156045Y-18301924D01*
X-30175186Y-18262976D01*
X-30198159Y-18225839D01*
X-30224895Y-18190823D01*
X-30255326Y-18158235D01*
X-30289386Y-18128383D01*
X-30327005Y-18101576D01*
X-30832461Y-17778358D01*
X-30872579Y-17755453D01*
X-30913967Y-17737058D01*
X-30956317Y-17723106D01*
X-30999319Y-17713527D01*
X-31042667Y-17708255D01*
X-31086052Y-17707222D01*
X-31129166Y-17710359D01*
X-31171700Y-17717599D01*
X-31213347Y-17728874D01*
X-31253799Y-17744116D01*
X-31292747Y-17763257D01*
X-31329883Y-17786229D01*
X-31364899Y-17812965D01*
X-31397486Y-17843397D01*
X-31427338Y-17877456D01*
X-31454145Y-17915075D01*
X-32316061Y-19262961D01*
X-32338322Y-19301839D01*
X-32356293Y-19341884D01*
X-32370045Y-19382823D01*
X-32379647Y-19424379D01*
X-32385169Y-19466279D01*
X-32386680Y-19508247D01*
X-32384251Y-19550008D01*
X-32377952Y-19591287D01*
X-32367852Y-19631810D01*
X-32354021Y-19671301D01*
X-32336529Y-19709486D01*
X-32315446Y-19746089D01*
X-32290841Y-19780836D01*
X-33652201Y-21909760D01*
X-32894234Y-22394448D01*
G36*
X-26774622Y-26308310D02*
X-25412707Y-24178513D01*
X-25370889Y-24186208D01*
X-25328871Y-24189947D01*
X-25286929Y-24189779D01*
X-25245341Y-24185756D01*
X-25204384Y-24177926D01*
X-25164336Y-24166341D01*
X-25125474Y-24151050D01*
X-25088076Y-24132103D01*
X-25052418Y-24109551D01*
X-25018780Y-24083444D01*
X-24987437Y-24053832D01*
X-24958667Y-24020764D01*
X-24932748Y-23984292D01*
X-24070832Y-22636407D01*
X-24047922Y-22596293D01*
X-24029512Y-22554914D01*
X-24015537Y-22512579D01*
X-24005930Y-22469595D01*
X-24000623Y-22426269D01*
X-23999551Y-22382908D01*
X-24002648Y-22339819D01*
X-24009846Y-22297311D01*
X-24021079Y-22255690D01*
X-24036282Y-22215263D01*
X-24055386Y-22176339D01*
X-24078326Y-22139224D01*
X-24105036Y-22104225D01*
X-24135448Y-22071650D01*
X-24169497Y-22041807D01*
X-24207115Y-22015002D01*
X-24712571Y-21691784D01*
X-24752689Y-21668879D01*
X-24794077Y-21650484D01*
X-24836426Y-21636531D01*
X-24879428Y-21626953D01*
X-24922776Y-21621681D01*
X-24966161Y-21620647D01*
X-25009275Y-21623784D01*
X-25051809Y-21631025D01*
X-25093457Y-21642300D01*
X-25133908Y-21657542D01*
X-25172856Y-21676683D01*
X-25209992Y-21699656D01*
X-25245008Y-21726392D01*
X-25277596Y-21756823D01*
X-25307448Y-21790883D01*
X-25334255Y-21828502D01*
X-26196171Y-23176387D01*
X-26218405Y-23215216D01*
X-26236352Y-23255204D01*
X-26250083Y-23296079D01*
X-26259668Y-23337567D01*
X-26265179Y-23379395D01*
X-26266687Y-23421291D01*
X-26264262Y-23462983D01*
X-26257976Y-23504196D01*
X-26247899Y-23544659D01*
X-26234104Y-23584098D01*
X-26216660Y-23622241D01*
X-26195638Y-23658815D01*
X-26171111Y-23693547D01*
X-27532747Y-25822908D01*
X-26774622Y-26308310D01*
X-26774622Y-26308310D01*
G37*
X-26774622Y-26308310D02*
X-25412707Y-24178513D01*
X-25370889Y-24186208D01*
X-25328871Y-24189947D01*
X-25286929Y-24189779D01*
X-25245341Y-24185756D01*
X-25204384Y-24177926D01*
X-25164336Y-24166341D01*
X-25125474Y-24151050D01*
X-25088076Y-24132103D01*
X-25052418Y-24109551D01*
X-25018780Y-24083444D01*
X-24987437Y-24053832D01*
X-24958667Y-24020764D01*
X-24932748Y-23984292D01*
X-24070832Y-22636407D01*
X-24047922Y-22596293D01*
X-24029512Y-22554914D01*
X-24015537Y-22512579D01*
X-24005930Y-22469595D01*
X-24000623Y-22426269D01*
X-23999551Y-22382908D01*
X-24002648Y-22339819D01*
X-24009846Y-22297311D01*
X-24021079Y-22255690D01*
X-24036282Y-22215263D01*
X-24055386Y-22176339D01*
X-24078326Y-22139224D01*
X-24105036Y-22104225D01*
X-24135448Y-22071650D01*
X-24169497Y-22041807D01*
X-24207115Y-22015002D01*
X-24712571Y-21691784D01*
X-24752689Y-21668879D01*
X-24794077Y-21650484D01*
X-24836426Y-21636531D01*
X-24879428Y-21626953D01*
X-24922776Y-21621681D01*
X-24966161Y-21620647D01*
X-25009275Y-21623784D01*
X-25051809Y-21631025D01*
X-25093457Y-21642300D01*
X-25133908Y-21657542D01*
X-25172856Y-21676683D01*
X-25209992Y-21699656D01*
X-25245008Y-21726392D01*
X-25277596Y-21756823D01*
X-25307448Y-21790883D01*
X-25334255Y-21828502D01*
X-26196171Y-23176387D01*
X-26218405Y-23215216D01*
X-26236352Y-23255204D01*
X-26250083Y-23296079D01*
X-26259668Y-23337567D01*
X-26265179Y-23379395D01*
X-26266687Y-23421291D01*
X-26264262Y-23462983D01*
X-26257976Y-23504196D01*
X-26247899Y-23544659D01*
X-26234104Y-23584098D01*
X-26216660Y-23622241D01*
X-26195638Y-23658815D01*
X-26171111Y-23693547D01*
X-27532747Y-25822908D01*
X-26774622Y-26308310D01*
G36*
X3490750Y23476975D02*
X3490751Y23476975D01*
X3466024Y23445127D01*
X3451059Y23409222D01*
X3445872Y23371249D01*
X3450478Y23333202D01*
X3464893Y23297072D01*
X3489131Y23264849D01*
X3839976Y22908609D01*
X3871824Y22883889D01*
X3907730Y22868930D01*
X3945703Y22863746D01*
X3983750Y22868355D01*
X4019880Y22882771D01*
X4052102Y22907009D01*
X4515215Y23363107D01*
X4539942Y23394955D01*
X4554907Y23430860D01*
X4560094Y23468832D01*
X4555488Y23506880D01*
X4541073Y23543010D01*
X4516835Y23575233D01*
X4165990Y23931473D01*
X4134142Y23956193D01*
X4098236Y23971152D01*
X4060263Y23976335D01*
X4022216Y23971727D01*
X3986086Y23957311D01*
X3953864Y23933073D01*
X3490750Y23476975D01*
X3490750Y23476975D01*
G37*
X3490750Y23476975D02*
X3490751Y23476975D01*
X3466024Y23445127D01*
X3451059Y23409222D01*
X3445872Y23371249D01*
X3450478Y23333202D01*
X3464893Y23297072D01*
X3489131Y23264849D01*
X3839976Y22908609D01*
X3871824Y22883889D01*
X3907730Y22868930D01*
X3945703Y22863746D01*
X3983750Y22868355D01*
X4019880Y22882771D01*
X4052102Y22907009D01*
X4515215Y23363107D01*
X4539942Y23394955D01*
X4554907Y23430860D01*
X4560094Y23468832D01*
X4555488Y23506880D01*
X4541073Y23543010D01*
X4516835Y23575233D01*
X4165990Y23931473D01*
X4134142Y23956193D01*
X4098236Y23971152D01*
X4060263Y23976335D01*
X4022216Y23971727D01*
X3986086Y23957311D01*
X3953864Y23933073D01*
X3490750Y23476975D01*
G36*
X4612912Y24582136D02*
X4612913Y24582135D01*
X4588185Y24550287D01*
X4573220Y24514382D01*
X4568033Y24476410D01*
X4572640Y24438363D01*
X4587055Y24402233D01*
X4611293Y24370010D01*
X4962137Y24013769D01*
X4993985Y23989049D01*
X5029892Y23974090D01*
X5067864Y23968906D01*
X5105911Y23973515D01*
X5142042Y23987931D01*
X5174263Y24012169D01*
X5637376Y24468267D01*
X5662104Y24500115D01*
X5677069Y24536020D01*
X5682256Y24573992D01*
X5677649Y24612040D01*
X5663234Y24648170D01*
X5638996Y24680393D01*
X5288152Y25036635D01*
X5256304Y25061355D01*
X5220397Y25076314D01*
X5182425Y25081497D01*
X5144378Y25076889D01*
X5108247Y25062473D01*
X5076026Y25038235D01*
X4612912Y24582136D01*
X4612912Y24582136D01*
G37*
X4612912Y24582136D02*
X4612913Y24582135D01*
X4588185Y24550287D01*
X4573220Y24514382D01*
X4568033Y24476410D01*
X4572640Y24438363D01*
X4587055Y24402233D01*
X4611293Y24370010D01*
X4962137Y24013769D01*
X4993985Y23989049D01*
X5029892Y23974090D01*
X5067864Y23968906D01*
X5105911Y23973515D01*
X5142042Y23987931D01*
X5174263Y24012169D01*
X5637376Y24468267D01*
X5662104Y24500115D01*
X5677069Y24536020D01*
X5682256Y24573992D01*
X5677649Y24612040D01*
X5663234Y24648170D01*
X5638996Y24680393D01*
X5288152Y25036635D01*
X5256304Y25061355D01*
X5220397Y25076314D01*
X5182425Y25081497D01*
X5144378Y25076889D01*
X5108247Y25062473D01*
X5076026Y25038235D01*
X4612912Y24582136D01*
M02*
