G04 #@! TF.GenerationSoftware,KiCad,Pcbnew,5.0.2+dfsg1-1*
G04 #@! TF.CreationDate,2021-09-10T13:15:43+02:00*
G04 #@! TF.ProjectId,facet_v1,66616365-745f-4763-912e-6b696361645f,rev?*
G04 #@! TF.SameCoordinates,Original*
G04 #@! TF.FileFunction,Profile,NP*
%FSLAX46Y46*%
G04 Gerber Fmt 4.6, Leading zero omitted, Abs format (unit mm)*
G04 Created by KiCad (PCBNEW 5.0.2+dfsg1-1) date Fri 10 Sep 2021 01:15:43 PM CEST*
%MOMM*%
%LPD*%
G01*
G04 APERTURE LIST*
%ADD10C,0.141421*%
G04 APERTURE END LIST*
D10*
X18006725Y-9922544D02*
X17610614Y-9700175D01*
X18409102Y-10125234D02*
X18006725Y-9922544D01*
X18817123Y-10308350D02*
X18409102Y-10125234D01*
X19230170Y-10471994D02*
X18817123Y-10308350D01*
X19647621Y-10616273D02*
X19230170Y-10471994D01*
X20068857Y-10741288D02*
X19647621Y-10616273D01*
X20493259Y-10847144D02*
X20068857Y-10741288D01*
X20920204Y-10933946D02*
X20493259Y-10847144D01*
X21349074Y-11001796D02*
X20920204Y-10933946D01*
X21779249Y-11050799D02*
X21349074Y-11001796D01*
X22210108Y-11081059D02*
X21779249Y-11050799D01*
X22641031Y-11092679D02*
X22210108Y-11081059D01*
X23071399Y-11085764D02*
X22641031Y-11092679D01*
X23500590Y-11060418D02*
X23071399Y-11085764D01*
X23927985Y-11016743D02*
X23500590Y-11060418D01*
X24352965Y-10954845D02*
X23927985Y-11016743D01*
X24774907Y-10874827D02*
X24352965Y-10954845D01*
X25193194Y-10776793D02*
X24774907Y-10874827D01*
X25607204Y-10660847D02*
X25193194Y-10776793D01*
X26016317Y-10527093D02*
X25607204Y-10660847D01*
X26419914Y-10375635D02*
X26016317Y-10527093D01*
X26817374Y-10206577D02*
X26419914Y-10375635D01*
X27208077Y-10020022D02*
X26817374Y-10206577D01*
X27591403Y-9816074D02*
X27208077Y-10020022D01*
X27966732Y-9594838D02*
X27591403Y-9816074D01*
X28333444Y-9356418D02*
X27966732Y-9594838D01*
X28690918Y-9100916D02*
X28333444Y-9356418D01*
X29038536Y-8828438D02*
X28690918Y-9100916D01*
X29375675Y-8539087D02*
X29038536Y-8828438D01*
X29701717Y-8232967D02*
X29375675Y-8539087D01*
X30016041Y-7910182D02*
X29701717Y-8232967D01*
X30318028Y-7570835D02*
X30016041Y-7910182D01*
X30641524Y-7170394D02*
X30318028Y-7570835D01*
X30941136Y-6758509D02*
X30641524Y-7170394D01*
X31216936Y-6336066D02*
X30941136Y-6758509D01*
X31468997Y-5903952D02*
X31216936Y-6336066D01*
X31697389Y-5463051D02*
X31468997Y-5903952D01*
X31902184Y-5014250D02*
X31697389Y-5463051D01*
X32083453Y-4558434D02*
X31902184Y-5014250D01*
X32241269Y-4096490D02*
X32083453Y-4558434D01*
X32375703Y-3629303D02*
X32241269Y-4096490D01*
X32486826Y-3157759D02*
X32375703Y-3629303D01*
X32574710Y-2682743D02*
X32486826Y-3157759D01*
X32639426Y-2205141D02*
X32574710Y-2682743D01*
X32681047Y-1725840D02*
X32639426Y-2205141D01*
X32699643Y-1245725D02*
X32681047Y-1725840D01*
X32695287Y-765681D02*
X32699643Y-1245725D01*
X32668050Y-286595D02*
X32695287Y-765681D01*
X32618003Y190648D02*
X32668050Y-286595D01*
X32545218Y665161D02*
X32618003Y190648D01*
X32449767Y1136060D02*
X32545218Y665161D01*
X32331721Y1602458D02*
X32449767Y1136060D01*
X32191151Y2063470D02*
X32331721Y1602458D01*
X32028131Y2518209D02*
X32191151Y2063470D01*
X31842730Y2965790D02*
X32028131Y2518209D01*
X31635021Y3405328D02*
X31842730Y2965790D01*
X31405075Y3835936D02*
X31635021Y3405328D01*
X31152963Y4256728D02*
X31405075Y3835936D01*
X30878758Y4666820D02*
X31152963Y4256728D01*
X30582531Y5065324D02*
X30878758Y4666820D01*
X30264353Y5451355D02*
X30582531Y5065324D01*
X29924297Y5824029D02*
X30264353Y5451355D01*
X29562433Y6182457D02*
X29924297Y5824029D01*
X29178833Y6525756D02*
X29562433Y6182457D01*
X28778392Y6849218D02*
X29178833Y6525756D01*
X28366509Y7148799D02*
X28778392Y6849218D01*
X27944070Y7424569D02*
X28366509Y7148799D01*
X27511961Y7676601D02*
X27944070Y7424569D01*
X27071067Y7904965D02*
X27511961Y7676601D01*
X26622275Y8109735D02*
X27071067Y7904965D01*
X26166469Y8290980D02*
X26622275Y8109735D01*
X25704536Y8448773D02*
X26166469Y8290980D01*
X25237361Y8583186D02*
X25704536Y8448773D01*
X24765830Y8694289D02*
X25237361Y8583186D01*
X24290828Y8782155D02*
X24765830Y8694289D01*
X23813242Y8846855D02*
X24290828Y8782155D01*
X23333956Y8888461D02*
X23813242Y8846855D01*
X22853857Y8907044D02*
X23333956Y8888461D01*
X22373831Y8902676D02*
X22853857Y8907044D01*
X21894762Y8875429D02*
X22373831Y8902676D01*
X21417537Y8825373D02*
X21894762Y8875429D01*
X20943042Y8752582D02*
X21417537Y8825373D01*
X20472162Y8657126D02*
X20943042Y8752582D01*
X20005782Y8539076D02*
X20472162Y8657126D01*
X19544789Y8398505D02*
X20005782Y8539076D01*
X19090068Y8235485D02*
X19544789Y8398505D01*
X18642505Y8050085D02*
X19090068Y8235485D01*
X18202985Y7842380D02*
X18642505Y8050085D01*
X17772395Y7612439D02*
X18202985Y7842380D01*
X17351619Y7360334D02*
X17772395Y7612439D01*
X16941544Y7086138D02*
X17351619Y7360334D01*
X16543055Y6789921D02*
X16941544Y7086138D01*
X16157039Y6471756D02*
X16543055Y6789921D01*
X15784380Y6131713D02*
X16157039Y6471756D01*
X15425964Y5769865D02*
X15784380Y6131713D01*
X15082677Y5386283D02*
X15425964Y5769865D01*
X14759221Y4985856D02*
X15082677Y5386283D01*
X14459646Y4573989D02*
X14759221Y4985856D01*
X14183879Y4151565D02*
X14459646Y4573989D01*
X13931849Y3719472D02*
X14183879Y4151565D01*
X13703485Y3278594D02*
X13931849Y3719472D01*
X13498715Y2829817D02*
X13703485Y3278594D01*
X13317467Y2374027D02*
X13498715Y2829817D01*
X13159669Y1912109D02*
X13317467Y2374027D01*
X13025251Y1444949D02*
X13159669Y1912109D01*
X12914141Y973433D02*
X13025251Y1444949D01*
X12826267Y498447D02*
X12914141Y973433D01*
X12761557Y20875D02*
X12826267Y498447D01*
X12719941Y-458397D02*
X12761557Y20875D01*
X12701345Y-938482D02*
X12719941Y-458397D01*
X12705700Y-1418496D02*
X12701345Y-938482D01*
X12732933Y-1897552D02*
X12705700Y-1418496D01*
X12782973Y-2374766D02*
X12732933Y-1897552D01*
X12855748Y-2849251D02*
X12782973Y-2374766D01*
X12951186Y-3320121D02*
X12855748Y-2849251D01*
X13069217Y-3786492D02*
X12951186Y-3320121D01*
X13209768Y-4247478D02*
X13069217Y-3786492D01*
X13372768Y-4702192D02*
X13209768Y-4247478D01*
X13558145Y-5149750D02*
X13372768Y-4702192D01*
X13765828Y-5589266D02*
X13558145Y-5149750D01*
X13995745Y-6019854D02*
X13765828Y-5589266D01*
X14247825Y-6440628D02*
X13995745Y-6019854D01*
X14521996Y-6850703D02*
X14247825Y-6440628D01*
X14818187Y-7249194D02*
X14521996Y-6850703D01*
X15136326Y-7635214D02*
X14818187Y-7249194D01*
X15476341Y-8007879D02*
X15136326Y-7635214D01*
X15838161Y-8366301D02*
X15476341Y-8007879D01*
X16221714Y-8709597D02*
X15838161Y-8366301D01*
X16262480Y-8744098D02*
X16221714Y-8709597D01*
X16303425Y-8778377D02*
X16262480Y-8744098D01*
X16344549Y-8812433D02*
X16303425Y-8778377D01*
X16385851Y-8846266D02*
X16344549Y-8812433D01*
X16427330Y-8879874D02*
X16385851Y-8846266D01*
X16468984Y-8913257D02*
X16427330Y-8879874D01*
X16510813Y-8946414D02*
X16468984Y-8913257D01*
X16552817Y-8979345D02*
X16510813Y-8946414D01*
X16594993Y-9012050D02*
X16552817Y-8979345D01*
X16637341Y-9044527D02*
X16594993Y-9012050D01*
X16679860Y-9076776D02*
X16637341Y-9044527D01*
X16722549Y-9108796D02*
X16679860Y-9076776D01*
X16765408Y-9140587D02*
X16722549Y-9108796D01*
X16808435Y-9172147D02*
X16765408Y-9140587D01*
X16851629Y-9203477D02*
X16808435Y-9172147D01*
X16894990Y-9234576D02*
X16851629Y-9203477D01*
X16938516Y-9265443D02*
X16894990Y-9234576D01*
X16982206Y-9296077D02*
X16938516Y-9265443D01*
X17026060Y-9326478D02*
X16982206Y-9296077D01*
X17070077Y-9356645D02*
X17026060Y-9326478D01*
X17114255Y-9386577D02*
X17070077Y-9356645D01*
X17158594Y-9416275D02*
X17114255Y-9386577D01*
X17203092Y-9445736D02*
X17158594Y-9416275D01*
X17247750Y-9474961D02*
X17203092Y-9445736D01*
X17292565Y-9503949D02*
X17247750Y-9474961D01*
X17337538Y-9532700D02*
X17292565Y-9503949D01*
X17382666Y-9561212D02*
X17337538Y-9532700D01*
X17427949Y-9589485D02*
X17382666Y-9561212D01*
X17473387Y-9617519D02*
X17427949Y-9589485D01*
X17518977Y-9645312D02*
X17473387Y-9617519D01*
X17564720Y-9672864D02*
X17518977Y-9645312D01*
X17610614Y-9700175D02*
X17564720Y-9672864D01*
X-25860386Y-3956243D02*
X-26329821Y-3680939D01*
X-25382210Y-4208217D02*
X-25860386Y-3956243D01*
X-24896082Y-4436926D02*
X-25382210Y-4208217D01*
X-24402794Y-4642433D02*
X-24896082Y-4436926D01*
X-23903137Y-4824801D02*
X-24402794Y-4642433D01*
X-23397902Y-4984096D02*
X-23903137Y-4824801D01*
X-22887881Y-5120381D02*
X-23397902Y-4984096D01*
X-22373865Y-5233719D02*
X-22887881Y-5120381D01*
X-21856644Y-5324174D02*
X-22373865Y-5233719D01*
X-21337011Y-5391811D02*
X-21856644Y-5324174D01*
X-20815755Y-5436694D02*
X-21337011Y-5391811D01*
X-20293669Y-5458885D02*
X-20815755Y-5436694D01*
X-19771543Y-5458449D02*
X-20293669Y-5458885D01*
X-19250169Y-5435450D02*
X-19771543Y-5458449D01*
X-18730338Y-5389952D02*
X-19250169Y-5435450D01*
X-18212840Y-5322018D02*
X-18730338Y-5389952D01*
X-17698468Y-5231713D02*
X-18212840Y-5322018D01*
X-17188012Y-5119099D02*
X-17698468Y-5231713D01*
X-16682263Y-4984242D02*
X-17188012Y-5119099D01*
X-16182012Y-4827205D02*
X-16682263Y-4984242D01*
X-15688052Y-4648052D02*
X-16182012Y-4827205D01*
X-15201172Y-4446847D02*
X-15688052Y-4648052D01*
X-14722164Y-4223653D02*
X-15201172Y-4446847D01*
X-14251820Y-3978534D02*
X-14722164Y-4223653D01*
X-13790930Y-3711555D02*
X-14251820Y-3978534D01*
X-13340285Y-3422779D02*
X-13790930Y-3711555D01*
X-12900677Y-3112270D02*
X-13340285Y-3422779D01*
X-12472897Y-2780092D02*
X-12900677Y-3112270D01*
X-12057735Y-2426308D02*
X-12472897Y-2780092D01*
X-11655984Y-2050983D02*
X-12057735Y-2426308D01*
X-11268434Y-1654181D02*
X-11655984Y-2050983D01*
X-10895877Y-1235965D02*
X-11268434Y-1654181D01*
X-10507693Y-755431D02*
X-10895877Y-1235965D01*
X-10148171Y-261167D02*
X-10507693Y-755431D01*
X-9817223Y245766D02*
X-10148171Y-261167D01*
X-9514763Y764303D02*
X-9817223Y245766D01*
X-9240707Y1293383D02*
X-9514763Y764303D01*
X-8994967Y1831941D02*
X-9240707Y1293383D01*
X-8777459Y2378916D02*
X-8994967Y1831941D01*
X-8588095Y2933245D02*
X-8777459Y2378916D01*
X-8426790Y3493864D02*
X-8588095Y2933245D01*
X-8293459Y4059711D02*
X-8426790Y3493864D01*
X-8188014Y4629722D02*
X-8293459Y4059711D01*
X-8110370Y5202836D02*
X-8188014Y4629722D01*
X-8060441Y5777989D02*
X-8110370Y5202836D01*
X-8038142Y6354118D02*
X-8060441Y5777989D01*
X-8043385Y6930160D02*
X-8038142Y6354118D01*
X-8076086Y7505053D02*
X-8043385Y6930160D01*
X-8136157Y8077734D02*
X-8076086Y7505053D01*
X-8223514Y8647139D02*
X-8136157Y8077734D01*
X-8338070Y9212207D02*
X-8223514Y8647139D01*
X-8479739Y9771873D02*
X-8338070Y9212207D01*
X-8648436Y10325075D02*
X-8479739Y9771873D01*
X-8844074Y10870751D02*
X-8648436Y10325075D01*
X-9066567Y11407837D02*
X-8844074Y10870751D01*
X-9315829Y11935271D02*
X-9066567Y11407837D01*
X-9591775Y12451990D02*
X-9315829Y11935271D01*
X-9894318Y12956930D02*
X-9591775Y12451990D01*
X-10223373Y13449029D02*
X-9894318Y12956930D01*
X-10578852Y13927224D02*
X-10223373Y13449029D01*
X-10960672Y14390453D02*
X-10578852Y13927224D01*
X-11368745Y14837652D02*
X-10960672Y14390453D01*
X-11802985Y15267758D02*
X-11368745Y14837652D01*
X-12263307Y15679709D02*
X-11802985Y15267758D01*
X-12743842Y16067894D02*
X-12263307Y15679709D01*
X-13238110Y16427419D02*
X-12743842Y16067894D01*
X-13745048Y16758371D02*
X-13238110Y16427419D01*
X-14263594Y17060835D02*
X-13745048Y16758371D01*
X-14792683Y17334898D02*
X-14263594Y17060835D01*
X-15331253Y17580645D02*
X-14792683Y17334898D01*
X-15878241Y17798162D02*
X-15331253Y17580645D01*
X-16432584Y17987535D02*
X-15878241Y17798162D01*
X-16993219Y18148850D02*
X-16432584Y17987535D01*
X-17559083Y18282193D02*
X-16993219Y18148850D01*
X-18129113Y18387649D02*
X-17559083Y18282193D01*
X-18702245Y18465305D02*
X-18129113Y18387649D01*
X-19277418Y18515246D02*
X-18702245Y18465305D01*
X-19853567Y18537558D02*
X-19277418Y18515246D01*
X-20429630Y18532328D02*
X-19853567Y18537558D01*
X-21004543Y18499640D02*
X-20429630Y18532328D01*
X-21577244Y18439582D02*
X-21004543Y18499640D01*
X-22146670Y18352238D02*
X-21577244Y18439582D01*
X-22711757Y18237694D02*
X-22146670Y18352238D01*
X-23271443Y18096037D02*
X-22711757Y18237694D01*
X-23824665Y17927353D02*
X-23271443Y18096037D01*
X-24370359Y17731726D02*
X-23824665Y17927353D01*
X-24907462Y17509244D02*
X-24370359Y17731726D01*
X-25434912Y17259992D02*
X-24907462Y17509244D01*
X-25951646Y16984055D02*
X-25434912Y17259992D01*
X-26456599Y16681521D02*
X-25951646Y16984055D01*
X-26948711Y16352473D02*
X-26456599Y16681521D01*
X-27426916Y15997000D02*
X-26948711Y16352473D01*
X-27890153Y15615185D02*
X-27426916Y15997000D01*
X-28337358Y15207116D02*
X-27890153Y15615185D01*
X-28767468Y14772878D02*
X-28337358Y15207116D01*
X-29179421Y14312557D02*
X-28767468Y14772878D01*
X-29567541Y13832020D02*
X-29179421Y14312557D01*
X-29927004Y13337756D02*
X-29567541Y13832020D01*
X-30257894Y12830828D02*
X-29927004Y13337756D01*
X-30560299Y12312298D02*
X-30257894Y12830828D01*
X-30834304Y11783230D02*
X-30560299Y12312298D01*
X-31079996Y11244686D02*
X-30834304Y11783230D01*
X-31297459Y10697729D02*
X-31079996Y11244686D01*
X-31486780Y10143421D02*
X-31297459Y10697729D01*
X-31648046Y9582825D02*
X-31486780Y10143421D01*
X-31781341Y9017004D02*
X-31648046Y9582825D01*
X-31886753Y8447020D02*
X-31781341Y9017004D01*
X-31964366Y7873936D02*
X-31886753Y8447020D01*
X-32014267Y7298815D02*
X-31964366Y7873936D01*
X-32036542Y6722719D02*
X-32014267Y7298815D01*
X-32031277Y6146711D02*
X-32036542Y6722719D01*
X-31998558Y5571854D02*
X-32031277Y6146711D01*
X-31938471Y4999209D02*
X-31998558Y5571854D01*
X-31851101Y4429841D02*
X-31938471Y4999209D01*
X-31736535Y3864812D02*
X-31851101Y4429841D01*
X-31594858Y3305183D02*
X-31736535Y3864812D01*
X-31426158Y2752019D02*
X-31594858Y3305183D01*
X-31230519Y2206381D02*
X-31426158Y2752019D01*
X-31008027Y1669333D02*
X-31230519Y2206381D01*
X-30758769Y1141936D02*
X-31008027Y1669333D01*
X-30482831Y625254D02*
X-30758769Y1141936D01*
X-30180298Y120349D02*
X-30482831Y625254D01*
X-29851256Y-371716D02*
X-30180298Y120349D01*
X-29495792Y-849878D02*
X-29851256Y-371716D01*
X-29113991Y-1313075D02*
X-29495792Y-849878D01*
X-28705940Y-1760245D02*
X-29113991Y-1313075D01*
X-28271724Y-2190323D02*
X-28705940Y-1760245D01*
X-27811429Y-2602249D02*
X-28271724Y-2190323D01*
X-27766994Y-2639859D02*
X-27811429Y-2602249D01*
X-27722430Y-2677216D02*
X-27766994Y-2639859D01*
X-27677737Y-2714322D02*
X-27722430Y-2677216D01*
X-27632918Y-2751175D02*
X-27677737Y-2714322D01*
X-27587972Y-2787777D02*
X-27632918Y-2751175D01*
X-27542900Y-2824126D02*
X-27587972Y-2787777D01*
X-27497704Y-2860224D02*
X-27542900Y-2824126D01*
X-27452384Y-2896070D02*
X-27497704Y-2860224D01*
X-27406942Y-2931665D02*
X-27452384Y-2896070D01*
X-27361377Y-2967007D02*
X-27406942Y-2931665D01*
X-27315691Y-3002098D02*
X-27361377Y-2967007D01*
X-27269884Y-3036937D02*
X-27315691Y-3002098D01*
X-27223958Y-3071525D02*
X-27269884Y-3036937D01*
X-27177914Y-3105861D02*
X-27223958Y-3071525D01*
X-27131751Y-3139946D02*
X-27177914Y-3105861D01*
X-27085472Y-3173779D02*
X-27131751Y-3139946D01*
X-27039077Y-3207360D02*
X-27085472Y-3173779D01*
X-26992567Y-3240691D02*
X-27039077Y-3207360D01*
X-26945943Y-3273769D02*
X-26992567Y-3240691D01*
X-26899205Y-3306597D02*
X-26945943Y-3273769D01*
X-26852354Y-3339173D02*
X-26899205Y-3306597D01*
X-26805392Y-3371498D02*
X-26852354Y-3339173D01*
X-26758319Y-3403572D02*
X-26805392Y-3371498D01*
X-26711137Y-3435395D02*
X-26758319Y-3403572D01*
X-26663845Y-3466966D02*
X-26711137Y-3435395D01*
X-26616445Y-3498287D02*
X-26663845Y-3466966D01*
X-26568937Y-3529356D02*
X-26616445Y-3498287D01*
X-26521324Y-3560175D02*
X-26568937Y-3529356D01*
X-26473604Y-3590742D02*
X-26521324Y-3560175D01*
X-26425780Y-3621059D02*
X-26473604Y-3590742D01*
X-26377852Y-3651124D02*
X-26425780Y-3621059D01*
X-26329821Y-3680939D02*
X-26377852Y-3651124D01*
X-38983242Y-22655249D02*
X-25247976Y-31438372D01*
X-38862223Y-22456064D02*
X-38983242Y-22655249D01*
X-38751465Y-22253286D02*
X-38862223Y-22456064D01*
X-38650916Y-22047249D02*
X-38751465Y-22253286D01*
X-38560527Y-21838289D02*
X-38650916Y-22047249D01*
X-38480249Y-21626738D02*
X-38560527Y-21838289D01*
X-38410031Y-21412931D02*
X-38480249Y-21626738D01*
X-38349824Y-21197201D02*
X-38410031Y-21412931D01*
X-38299578Y-20979884D02*
X-38349824Y-21197201D01*
X-38259242Y-20761312D02*
X-38299578Y-20979884D01*
X-38228767Y-20541820D02*
X-38259242Y-20761312D01*
X-38208104Y-20321742D02*
X-38228767Y-20541820D01*
X-38197202Y-20101412D02*
X-38208104Y-20321742D01*
X-38196011Y-19881164D02*
X-38197202Y-20101412D01*
X-38204482Y-19661332D02*
X-38196011Y-19881164D01*
X-38222565Y-19442250D02*
X-38204482Y-19661332D01*
X-38250210Y-19224252D02*
X-38222565Y-19442250D01*
X-38287367Y-19007673D02*
X-38250210Y-19224252D01*
X-38333986Y-18792845D02*
X-38287367Y-19007673D01*
X-38390017Y-18580104D02*
X-38333986Y-18792845D01*
X-38455411Y-18369782D02*
X-38390017Y-18580104D01*
X-38530118Y-18162215D02*
X-38455411Y-18369782D01*
X-38614087Y-17957737D02*
X-38530118Y-18162215D01*
X-38707270Y-17756680D02*
X-38614087Y-17957737D01*
X-38809616Y-17559381D02*
X-38707270Y-17756680D01*
X-38921074Y-17366171D02*
X-38809616Y-17559381D01*
X-39041597Y-17177386D02*
X-38921074Y-17366171D01*
X-39171133Y-16993359D02*
X-39041597Y-17177386D01*
X-39309632Y-16814425D02*
X-39171133Y-16993359D01*
X-39457046Y-16640917D02*
X-39309632Y-16814425D01*
X-39613323Y-16473170D02*
X-39457046Y-16640917D01*
X-39778415Y-16311518D02*
X-39613323Y-16473170D01*
X-39952271Y-16156294D02*
X-39778415Y-16311518D01*
X-40020978Y-16099140D02*
X-39952271Y-16156294D01*
X-40090609Y-16043291D02*
X-40020978Y-16099140D01*
X-40161146Y-15988755D02*
X-40090609Y-16043291D01*
X-40232567Y-15935541D02*
X-40161146Y-15988755D01*
X-40304856Y-15883657D02*
X-40232567Y-15935541D01*
X-40377992Y-15833111D02*
X-40304856Y-15883657D01*
X-40451957Y-15783913D02*
X-40377992Y-15833111D01*
X-40526730Y-15736071D02*
X-40451957Y-15783913D01*
X-40602294Y-15689592D02*
X-40526730Y-15736071D01*
X-40678629Y-15644487D02*
X-40602294Y-15689592D01*
X-40755716Y-15600762D02*
X-40678629Y-15644487D01*
X-40833535Y-15558427D02*
X-40755716Y-15600762D01*
X-40912068Y-15517491D02*
X-40833535Y-15558427D01*
X-40991296Y-15477961D02*
X-40912068Y-15517491D01*
X-41071199Y-15439846D02*
X-40991296Y-15477961D01*
X-41151758Y-15403155D02*
X-41071199Y-15439846D01*
X-41232954Y-15367896D02*
X-41151758Y-15403155D01*
X-41314768Y-15334078D02*
X-41232954Y-15367896D01*
X-41397181Y-15301709D02*
X-41314768Y-15334078D01*
X-41480173Y-15270797D02*
X-41397181Y-15301709D01*
X-41563726Y-15241352D02*
X-41480173Y-15270797D01*
X-41647821Y-15213381D02*
X-41563726Y-15241352D01*
X-41732438Y-15186893D02*
X-41647821Y-15213381D01*
X-41817557Y-15161897D02*
X-41732438Y-15186893D01*
X-41903161Y-15138401D02*
X-41817557Y-15161897D01*
X-41989230Y-15116414D02*
X-41903161Y-15138401D01*
X-42075744Y-15095944D02*
X-41989230Y-15116414D01*
X-42162685Y-15076999D02*
X-42075744Y-15095944D01*
X-42250034Y-15059589D02*
X-42162685Y-15076999D01*
X-42337771Y-15043721D02*
X-42250034Y-15059589D01*
X-42425877Y-15029404D02*
X-42337771Y-15043721D01*
X-42514333Y-15016647D02*
X-42425877Y-15029404D01*
X-36924094Y25877857D02*
X-42514333Y-15016647D01*
X-36765773Y25858682D02*
X-36924094Y25877857D01*
X-36607549Y25844601D02*
X-36765773Y25858682D01*
X-36449528Y25835572D02*
X-36607549Y25844601D01*
X-36291818Y25831555D02*
X-36449528Y25835572D01*
X-36134527Y25832510D02*
X-36291818Y25831555D01*
X-35977761Y25838394D02*
X-36134527Y25832510D01*
X-35821630Y25849167D02*
X-35977761Y25838394D01*
X-35666239Y25864789D02*
X-35821630Y25849167D01*
X-35511696Y25885218D02*
X-35666239Y25864789D01*
X-35358110Y25910414D02*
X-35511696Y25885218D01*
X-35205587Y25940335D02*
X-35358110Y25910414D01*
X-35054234Y25974941D02*
X-35205587Y25940335D01*
X-34904160Y26014190D02*
X-35054234Y25974941D01*
X-34755472Y26058043D02*
X-34904160Y26014190D01*
X-34608277Y26106458D02*
X-34755472Y26058043D01*
X-34462683Y26159394D02*
X-34608277Y26106458D01*
X-34318797Y26216810D02*
X-34462683Y26159394D01*
X-34176727Y26278665D02*
X-34318797Y26216810D01*
X-34036581Y26344919D02*
X-34176727Y26278665D01*
X-33898464Y26415531D02*
X-34036581Y26344919D01*
X-33762486Y26490459D02*
X-33898464Y26415531D01*
X-33628754Y26569663D02*
X-33762486Y26490459D01*
X-33497375Y26653102D02*
X-33628754Y26569663D01*
X-33368456Y26740735D02*
X-33497375Y26653102D01*
X-33242106Y26832521D02*
X-33368456Y26740735D01*
X-33118431Y26928419D02*
X-33242106Y26832521D01*
X-32997539Y27028389D02*
X-33118431Y26928419D01*
X-32879538Y27132389D02*
X-32997539Y27028389D01*
X-32764534Y27240378D02*
X-32879538Y27132389D01*
X-32652636Y27352317D02*
X-32764534Y27240378D01*
X-32543952Y27468163D02*
X-32652636Y27352317D01*
X-32438587Y27587876D02*
X-32543952Y27468163D01*
X-32337197Y27711033D02*
X-32438587Y27587876D01*
X-32240154Y27836850D02*
X-32337197Y27711033D01*
X-32147483Y27965215D02*
X-32240154Y27836850D01*
X-32059207Y28096014D02*
X-32147483Y27965215D01*
X-31975349Y28229136D02*
X-32059207Y28096014D01*
X-31895932Y28364468D02*
X-31975349Y28229136D01*
X-31820980Y28501897D02*
X-31895932Y28364468D01*
X-31750516Y28641310D02*
X-31820980Y28501897D01*
X-31684564Y28782596D02*
X-31750516Y28641310D01*
X-31623146Y28925640D02*
X-31684564Y28782596D01*
X-31566286Y29070332D02*
X-31623146Y28925640D01*
X-31514008Y29216558D02*
X-31566286Y29070332D01*
X-31466334Y29364205D02*
X-31514008Y29216558D01*
X-31423288Y29513161D02*
X-31466334Y29364205D01*
X-31384894Y29663313D02*
X-31423288Y29513161D01*
X-31351175Y29814549D02*
X-31384894Y29663313D01*
X-31322154Y29966757D02*
X-31351175Y29814549D01*
X-31297855Y30119822D02*
X-31322154Y29966757D01*
X-31278300Y30273634D02*
X-31297855Y30119822D01*
X-31263513Y30428079D02*
X-31278300Y30273634D01*
X-31253518Y30583045D02*
X-31263513Y30428079D01*
X-31248338Y30738419D02*
X-31253518Y30583045D01*
X-31247996Y30894088D02*
X-31248338Y30738419D01*
X-31252515Y31049941D02*
X-31247996Y30894088D01*
X-31261919Y31205863D02*
X-31252515Y31049941D01*
X-31276232Y31361744D02*
X-31261919Y31205863D01*
X-31295476Y31517469D02*
X-31276232Y31361744D01*
X-31319675Y31672927D02*
X-31295476Y31517469D01*
X-31348852Y31828005D02*
X-31319675Y31672927D01*
X-31383031Y31982590D02*
X-31348852Y31828005D01*
X-31422234Y32136570D02*
X-31383031Y31982590D01*
X-31466486Y32289832D02*
X-31422234Y32136570D01*
X-123211Y41889601D02*
X-31466486Y32289832D01*
X65346Y41292697D02*
X-123211Y41889601D01*
X264297Y40699975D02*
X65346Y41292697D01*
X473559Y40111561D02*
X264297Y40699975D01*
X693053Y39527576D02*
X473559Y40111561D01*
X922698Y38948145D02*
X693053Y39527576D01*
X1162412Y38373390D02*
X922698Y38948145D01*
X1412114Y37803435D02*
X1162412Y38373390D01*
X1671725Y37238403D02*
X1412114Y37803435D01*
X1941162Y36678418D02*
X1671725Y37238403D01*
X2220345Y36123603D02*
X1941162Y36678418D01*
X2509194Y35574081D02*
X2220345Y36123603D01*
X2807627Y35029976D02*
X2509194Y35574081D01*
X3115563Y34491411D02*
X2807627Y35029976D01*
X3432921Y33958509D02*
X3115563Y34491411D01*
X3759622Y33431393D02*
X3432921Y33958509D01*
X4095582Y32910188D02*
X3759622Y33431393D01*
X4440723Y32395016D02*
X4095582Y32910188D01*
X4794963Y31886001D02*
X4440723Y32395016D01*
X5158220Y31383266D02*
X4794963Y31886001D01*
X5530415Y30886934D02*
X5158220Y31383266D01*
X5911466Y30397129D02*
X5530415Y30886934D01*
X6301293Y29913973D02*
X5911466Y30397129D01*
X6699814Y29437592D02*
X6301293Y29913973D01*
X7106948Y28968107D02*
X6699814Y29437592D01*
X7522616Y28505642D02*
X7106948Y28968107D01*
X7946735Y28050320D02*
X7522616Y28505642D01*
X8379225Y27602265D02*
X7946735Y28050320D01*
X8820005Y27161601D02*
X8379225Y27602265D01*
X9268994Y26728450D02*
X8820005Y27161601D01*
X9726112Y26302935D02*
X9268994Y26728450D01*
X10191277Y25885181D02*
X9726112Y26302935D01*
X10664408Y25475310D02*
X10191277Y25885181D01*
X11382626Y24882752D02*
X10664408Y25475310D01*
X12114323Y24311024D02*
X11382626Y24882752D01*
X12859043Y23760257D02*
X12114323Y24311024D01*
X13616331Y23230584D02*
X12859043Y23760257D01*
X14385731Y22722138D02*
X13616331Y23230584D01*
X15166785Y22235051D02*
X14385731Y22722138D01*
X15959039Y21769456D02*
X15166785Y22235051D01*
X16762036Y21325485D02*
X15959039Y21769456D01*
X17575320Y20903271D02*
X16762036Y21325485D01*
X18398435Y20502947D02*
X17575320Y20903271D01*
X19230924Y20124645D02*
X18398435Y20502947D01*
X20072333Y19768497D02*
X19230924Y20124645D01*
X20922204Y19434637D02*
X20072333Y19768497D01*
X21780081Y19123196D02*
X20922204Y19434637D01*
X22645509Y18834308D02*
X21780081Y19123196D01*
X23518032Y18568105D02*
X22645509Y18834308D01*
X24397193Y18324719D02*
X23518032Y18568105D01*
X25282536Y18104283D02*
X24397193Y18324719D01*
X26173605Y17906929D02*
X25282536Y18104283D01*
X27069944Y17732791D02*
X26173605Y17906929D01*
X27971098Y17582001D02*
X27069944Y17732791D01*
X28876609Y17454691D02*
X27971098Y17582001D01*
X29786022Y17350994D02*
X28876609Y17454691D01*
X30698880Y17271042D02*
X29786022Y17350994D01*
X31614729Y17214968D02*
X30698880Y17271042D01*
X32533111Y17182904D02*
X31614729Y17214968D01*
X33453570Y17174984D02*
X32533111Y17182904D01*
X34375651Y17191339D02*
X33453570Y17174984D01*
X35298897Y17232103D02*
X34375651Y17191339D01*
X36222852Y17297408D02*
X35298897Y17232103D01*
X37147061Y17387385D02*
X36222852Y17297408D01*
X38071066Y17502169D02*
X37147061Y17387385D01*
X42514222Y-15020775D02*
X38071066Y17502169D01*
X42400233Y-15037530D02*
X42514222Y-15020775D01*
X42286892Y-15056863D02*
X42400233Y-15037530D01*
X42174237Y-15078753D02*
X42286892Y-15056863D01*
X42062307Y-15103179D02*
X42174237Y-15078753D01*
X41951141Y-15130118D02*
X42062307Y-15103179D01*
X41840778Y-15159550D02*
X41951141Y-15130118D01*
X41731258Y-15191454D02*
X41840778Y-15159550D01*
X41622619Y-15225808D02*
X41731258Y-15191454D01*
X41514900Y-15262592D02*
X41622619Y-15225808D01*
X41408141Y-15301783D02*
X41514900Y-15262592D01*
X41302380Y-15343360D02*
X41408141Y-15301783D01*
X41197656Y-15387302D02*
X41302380Y-15343360D01*
X41094008Y-15433589D02*
X41197656Y-15387302D01*
X40991476Y-15482198D02*
X41094008Y-15433589D01*
X40890098Y-15533109D02*
X40991476Y-15482198D01*
X40789913Y-15586299D02*
X40890098Y-15533109D01*
X40690960Y-15641748D02*
X40789913Y-15586299D01*
X40593279Y-15699435D02*
X40690960Y-15641748D01*
X40496909Y-15759339D02*
X40593279Y-15699435D01*
X40401887Y-15821437D02*
X40496909Y-15759339D01*
X40308254Y-15885708D02*
X40401887Y-15821437D01*
X40216048Y-15952133D02*
X40308254Y-15885708D01*
X40125309Y-16020688D02*
X40216048Y-15952133D01*
X40036075Y-16091353D02*
X40125309Y-16020688D01*
X39948385Y-16164107D02*
X40036075Y-16091353D01*
X39862279Y-16238928D02*
X39948385Y-16164107D01*
X39777795Y-16315795D02*
X39862279Y-16238928D01*
X39694973Y-16394687D02*
X39777795Y-16315795D01*
X39613851Y-16475583D02*
X39694973Y-16394687D01*
X39534468Y-16558460D02*
X39613851Y-16475583D01*
X39456864Y-16643299D02*
X39534468Y-16558460D01*
X39381077Y-16730077D02*
X39456864Y-16643299D01*
X39251506Y-16889141D02*
X39381077Y-16730077D01*
X39129326Y-17052257D02*
X39251506Y-16889141D01*
X39014553Y-17219189D02*
X39129326Y-17052257D01*
X38907204Y-17389700D02*
X39014553Y-17219189D01*
X38807294Y-17563556D02*
X38907204Y-17389700D01*
X38714839Y-17740520D02*
X38807294Y-17563556D01*
X38629855Y-17920357D02*
X38714839Y-17740520D01*
X38552359Y-18102831D02*
X38629855Y-17920357D01*
X38482366Y-18287707D02*
X38552359Y-18102831D01*
X38419893Y-18474747D02*
X38482366Y-18287707D01*
X38364955Y-18663718D02*
X38419893Y-18474747D01*
X38317568Y-18854383D02*
X38364955Y-18663718D01*
X38277749Y-19046506D02*
X38317568Y-18854383D01*
X38245513Y-19239851D02*
X38277749Y-19046506D01*
X38220877Y-19434184D02*
X38245513Y-19239851D01*
X38203856Y-19629267D02*
X38220877Y-19434184D01*
X38194466Y-19824866D02*
X38203856Y-19629267D01*
X38192724Y-20020745D02*
X38194466Y-19824866D01*
X38198646Y-20216668D02*
X38192724Y-20020745D01*
X38212247Y-20412399D02*
X38198646Y-20216668D01*
X38233544Y-20607702D02*
X38212247Y-20412399D01*
X38262552Y-20802342D02*
X38233544Y-20607702D01*
X38299287Y-20996083D02*
X38262552Y-20802342D01*
X38343767Y-21188690D02*
X38299287Y-20996083D01*
X38396006Y-21379926D02*
X38343767Y-21188690D01*
X38456020Y-21569556D02*
X38396006Y-21379926D01*
X38523827Y-21757343D02*
X38456020Y-21569556D01*
X38599440Y-21943054D02*
X38523827Y-21757343D01*
X38682878Y-22126450D02*
X38599440Y-21943054D01*
X38774155Y-22307298D02*
X38682878Y-22126450D01*
X38873288Y-22485361D02*
X38774155Y-22307298D01*
X38980293Y-22660403D02*
X38873288Y-22485361D01*
X25249605Y-31438371D02*
X38980293Y-22660403D01*
X25098992Y-31203531D02*
X25249605Y-31438371D01*
X24946254Y-30970179D02*
X25098992Y-31203531D01*
X24791401Y-30738328D02*
X24946254Y-30970179D01*
X24634446Y-30507990D02*
X24791401Y-30738328D01*
X24475400Y-30279181D02*
X24634446Y-30507990D01*
X24314275Y-30051913D02*
X24475400Y-30279181D01*
X24151082Y-29826200D02*
X24314275Y-30051913D01*
X23985834Y-29602056D02*
X24151082Y-29826200D01*
X23818541Y-29379494D02*
X23985834Y-29602056D01*
X23649216Y-29158527D02*
X23818541Y-29379494D01*
X23477871Y-28939170D02*
X23649216Y-29158527D01*
X23304517Y-28721435D02*
X23477871Y-28939170D01*
X23129166Y-28505337D02*
X23304517Y-28721435D01*
X22951829Y-28290889D02*
X23129166Y-28505337D01*
X22772518Y-28078104D02*
X22951829Y-28290889D01*
X22591245Y-27866996D02*
X22772518Y-28078104D01*
X22408022Y-27657579D02*
X22591245Y-27866996D01*
X22222860Y-27449866D02*
X22408022Y-27657579D01*
X22035771Y-27243871D02*
X22222860Y-27449866D01*
X21846767Y-27039607D02*
X22035771Y-27243871D01*
X21655860Y-26837087D02*
X21846767Y-27039607D01*
X21463060Y-26636326D02*
X21655860Y-26837087D01*
X21268381Y-26437337D02*
X21463060Y-26636326D01*
X21071833Y-26240134D02*
X21268381Y-26437337D01*
X20873428Y-26044729D02*
X21071833Y-26240134D01*
X20673178Y-25851137D02*
X20873428Y-26044729D01*
X20471095Y-25659371D02*
X20673178Y-25851137D01*
X20267190Y-25469445D02*
X20471095Y-25659371D01*
X20061475Y-25281372D02*
X20267190Y-25469445D01*
X19853962Y-25095166D02*
X20061475Y-25281372D01*
X19644662Y-24910840D02*
X19853962Y-25095166D01*
X19433588Y-24728408D02*
X19644662Y-24910840D01*
X18232266Y-23757991D02*
X19433588Y-24728408D01*
X16996616Y-22859220D02*
X18232266Y-23757991D01*
X15729297Y-22031882D02*
X16996616Y-22859220D01*
X14432965Y-21275761D02*
X15729297Y-22031882D01*
X13110278Y-20590643D02*
X14432965Y-21275761D01*
X11763893Y-19976312D02*
X13110278Y-20590643D01*
X10396467Y-19432554D02*
X11763893Y-19976312D01*
X9010657Y-18959154D02*
X10396467Y-19432554D01*
X7609120Y-18555898D02*
X9010657Y-18959154D01*
X6194513Y-18222570D02*
X7609120Y-18555898D01*
X4769494Y-17958956D02*
X6194513Y-18222570D01*
X3336720Y-17764841D02*
X4769494Y-17958956D01*
X1898848Y-17640010D02*
X3336720Y-17764841D01*
X458535Y-17584248D02*
X1898848Y-17640010D01*
X-981561Y-17597341D02*
X458535Y-17584248D01*
X-2418785Y-17679074D02*
X-981561Y-17597341D01*
X-3850477Y-17829232D02*
X-2418785Y-17679074D01*
X-5273982Y-18047600D02*
X-3850477Y-17829232D01*
X-6686642Y-18333964D02*
X-5273982Y-18047600D01*
X-8085800Y-18688108D02*
X-6686642Y-18333964D01*
X-9468799Y-19109819D02*
X-8085800Y-18688108D01*
X-10832981Y-19598880D02*
X-9468799Y-19109819D01*
X-12175689Y-20155078D02*
X-10832981Y-19598880D01*
X-13494267Y-20778197D02*
X-12175689Y-20155078D01*
X-14786057Y-21468023D02*
X-13494267Y-20778197D01*
X-16048402Y-22224341D02*
X-14786057Y-21468023D01*
X-17278644Y-23046936D02*
X-16048402Y-22224341D01*
X-18474127Y-23935594D02*
X-17278644Y-23046936D01*
X-19632193Y-24890099D02*
X-18474127Y-23935594D01*
X-20750186Y-25910237D02*
X-19632193Y-24890099D01*
X-21825447Y-26995793D02*
X-20750186Y-25910237D01*
X-22855321Y-28146552D02*
X-21825447Y-26995793D01*
X-22936776Y-28244397D02*
X-22855321Y-28146552D01*
X-23017810Y-28342579D02*
X-22936776Y-28244397D01*
X-23098423Y-28441099D02*
X-23017810Y-28342579D01*
X-23178613Y-28539953D02*
X-23098423Y-28441099D01*
X-23258379Y-28639141D02*
X-23178613Y-28539953D01*
X-23337720Y-28738662D02*
X-23258379Y-28639141D01*
X-23416635Y-28838513D02*
X-23337720Y-28738662D01*
X-23495124Y-28938694D02*
X-23416635Y-28838513D01*
X-23573184Y-29039204D02*
X-23495124Y-28938694D01*
X-23650815Y-29140040D02*
X-23573184Y-29039204D01*
X-23728016Y-29241202D02*
X-23650815Y-29140040D01*
X-23804785Y-29342688D02*
X-23728016Y-29241202D01*
X-23881122Y-29444497D02*
X-23804785Y-29342688D01*
X-23957026Y-29546627D02*
X-23881122Y-29444497D01*
X-24032496Y-29649078D02*
X-23957026Y-29546627D01*
X-24107530Y-29751847D02*
X-24032496Y-29649078D01*
X-24182127Y-29854933D02*
X-24107530Y-29751847D01*
X-24256287Y-29958335D02*
X-24182127Y-29854933D01*
X-24330007Y-30062052D02*
X-24256287Y-29958335D01*
X-24403289Y-30166082D02*
X-24330007Y-30062052D01*
X-24476129Y-30270424D02*
X-24403289Y-30166082D01*
X-24548528Y-30375076D02*
X-24476129Y-30270424D01*
X-24620483Y-30480038D02*
X-24548528Y-30375076D01*
X-24691995Y-30585307D02*
X-24620483Y-30480038D01*
X-24763061Y-30690882D02*
X-24691995Y-30585307D01*
X-24833682Y-30796763D02*
X-24763061Y-30690882D01*
X-24903855Y-30902947D02*
X-24833682Y-30796763D01*
X-24973580Y-31009433D02*
X-24903855Y-30902947D01*
X-25042856Y-31116220D02*
X-24973580Y-31009433D01*
X-25111681Y-31223306D02*
X-25042856Y-31116220D01*
X-25180055Y-31330691D02*
X-25111681Y-31223306D01*
X-25247976Y-31438372D02*
X-25180055Y-31330691D01*
M02*
