G04 #@! TF.GenerationSoftware,KiCad,Pcbnew,5.0.2+dfsg1-1*
G04 #@! TF.CreationDate,2021-09-10T13:15:43+02:00*
G04 #@! TF.ProjectId,facet_v1,66616365-745f-4763-912e-6b696361645f,rev?*
G04 #@! TF.SameCoordinates,Original*
G04 #@! TF.FileFunction,Paste,Top*
G04 #@! TF.FilePolarity,Positive*
%FSLAX46Y46*%
G04 Gerber Fmt 4.6, Leading zero omitted, Abs format (unit mm)*
G04 Created by KiCad (PCBNEW 5.0.2+dfsg1-1) date Fri 10 Sep 2021 01:15:43 PM CEST*
%MOMM*%
%LPD*%
G01*
G04 APERTURE LIST*
%ADD10C,0.000001*%
G04 APERTURE END LIST*
D10*
G04 #@! TO.C,*
G36*
X9029983Y19894074D02*
X9029986Y19894072D01*
X8989869Y19914961D01*
X8947948Y19928025D01*
X8905183Y19933475D01*
X8862536Y19931524D01*
X8820967Y19922382D01*
X8781436Y19906261D01*
X8744905Y19883371D01*
X8712334Y19853924D01*
X8684683Y19818132D01*
X8630813Y19733882D01*
X8609925Y19693765D01*
X8596861Y19651845D01*
X8591410Y19609082D01*
X8593361Y19566436D01*
X8602503Y19524868D01*
X8618624Y19485338D01*
X8641514Y19448807D01*
X8670961Y19416234D01*
X8706753Y19388581D01*
X9675604Y18769041D01*
X9715720Y18748153D01*
X9757641Y18735090D01*
X9800405Y18729639D01*
X9843052Y18731591D01*
X9884621Y18740732D01*
X9924152Y18756853D01*
X9960683Y18779743D01*
X9993254Y18809189D01*
X10020905Y18844981D01*
X10074775Y18929231D01*
X10095662Y18969348D01*
X10108726Y19011269D01*
X10114176Y19054034D01*
X10112224Y19096681D01*
X10103083Y19138251D01*
X10086961Y19177782D01*
X10064072Y19214313D01*
X10034626Y19246884D01*
X9998835Y19274535D01*
X9029983Y19894074D01*
X9029983Y19894074D01*
G37*
X9029983Y19894074D02*
X9029986Y19894072D01*
X8989869Y19914961D01*
X8947948Y19928025D01*
X8905183Y19933475D01*
X8862536Y19931524D01*
X8820967Y19922382D01*
X8781436Y19906261D01*
X8744905Y19883371D01*
X8712334Y19853924D01*
X8684683Y19818132D01*
X8630813Y19733882D01*
X8609925Y19693765D01*
X8596861Y19651845D01*
X8591410Y19609082D01*
X8593361Y19566436D01*
X8602503Y19524868D01*
X8618624Y19485338D01*
X8641514Y19448807D01*
X8670961Y19416234D01*
X8706753Y19388581D01*
X9675604Y18769041D01*
X9715720Y18748153D01*
X9757641Y18735090D01*
X9800405Y18729639D01*
X9843052Y18731591D01*
X9884621Y18740732D01*
X9924152Y18756853D01*
X9960683Y18779743D01*
X9993254Y18809189D01*
X10020905Y18844981D01*
X10074775Y18929231D01*
X10095662Y18969348D01*
X10108726Y19011269D01*
X10114176Y19054034D01*
X10112224Y19096681D01*
X10103083Y19138251D01*
X10086961Y19177782D01*
X10064072Y19214313D01*
X10034626Y19246884D01*
X9998835Y19274535D01*
X9029983Y19894074D01*
G36*
X8345797Y18824126D02*
X8345790Y18824124D01*
X8305673Y18845013D01*
X8263753Y18858077D01*
X8220989Y18863527D01*
X8178343Y18861576D01*
X8136774Y18852434D01*
X8097244Y18836313D01*
X8060712Y18813423D01*
X8028139Y18783976D01*
X8000486Y18748184D01*
X7946616Y18663934D01*
X7925728Y18623818D01*
X7912665Y18581899D01*
X7907214Y18539136D01*
X7909165Y18496490D01*
X7918307Y18454921D01*
X7934428Y18415391D01*
X7957317Y18378859D01*
X7986764Y18346286D01*
X8022556Y18318633D01*
X8991408Y17699093D01*
X9031524Y17678206D01*
X9073444Y17665142D01*
X9116208Y17659692D01*
X9158855Y17661644D01*
X9200424Y17670785D01*
X9239955Y17686907D01*
X9276486Y17709796D01*
X9309057Y17739242D01*
X9336708Y17775033D01*
X9390578Y17859283D01*
X9411468Y17899400D01*
X9424534Y17941321D01*
X9429986Y17984086D01*
X9428036Y18026733D01*
X9418895Y18068303D01*
X9402774Y18107834D01*
X9379886Y18144365D01*
X9350440Y18176936D01*
X9314648Y18204587D01*
X8345797Y18824126D01*
X8345797Y18824126D01*
G37*
X8345797Y18824126D02*
X8345790Y18824124D01*
X8305673Y18845013D01*
X8263753Y18858077D01*
X8220989Y18863527D01*
X8178343Y18861576D01*
X8136774Y18852434D01*
X8097244Y18836313D01*
X8060712Y18813423D01*
X8028139Y18783976D01*
X8000486Y18748184D01*
X7946616Y18663934D01*
X7925728Y18623818D01*
X7912665Y18581899D01*
X7907214Y18539136D01*
X7909165Y18496490D01*
X7918307Y18454921D01*
X7934428Y18415391D01*
X7957317Y18378859D01*
X7986764Y18346286D01*
X8022556Y18318633D01*
X8991408Y17699093D01*
X9031524Y17678206D01*
X9073444Y17665142D01*
X9116208Y17659692D01*
X9158855Y17661644D01*
X9200424Y17670785D01*
X9239955Y17686907D01*
X9276486Y17709796D01*
X9309057Y17739242D01*
X9336708Y17775033D01*
X9390578Y17859283D01*
X9411468Y17899400D01*
X9424534Y17941321D01*
X9429986Y17984086D01*
X9428036Y18026733D01*
X9418895Y18068303D01*
X9402774Y18107834D01*
X9379886Y18144365D01*
X9350440Y18176936D01*
X9314648Y18204587D01*
X8345797Y18824126D01*
G36*
X7661610Y17754178D02*
X7661612Y17754176D01*
X7621495Y17775065D01*
X7579574Y17788129D01*
X7536809Y17793579D01*
X7494162Y17791628D01*
X7452593Y17782486D01*
X7413062Y17766365D01*
X7376531Y17743475D01*
X7343960Y17714028D01*
X7316309Y17678236D01*
X7262439Y17593986D01*
X7241551Y17553870D01*
X7228487Y17511951D01*
X7223037Y17469188D01*
X7224988Y17426542D01*
X7234129Y17384973D01*
X7250251Y17345443D01*
X7273140Y17308911D01*
X7302587Y17276338D01*
X7338379Y17248685D01*
X8307230Y16629145D01*
X8347346Y16608258D01*
X8389267Y16595194D01*
X8432031Y16589744D01*
X8474678Y16591696D01*
X8516247Y16600837D01*
X8555778Y16616959D01*
X8592309Y16639848D01*
X8624880Y16669294D01*
X8652531Y16705085D01*
X8706401Y16789335D01*
X8727289Y16829452D01*
X8740352Y16871373D01*
X8745802Y16914138D01*
X8743851Y16956785D01*
X8734709Y16998355D01*
X8718588Y17037886D01*
X8695699Y17074417D01*
X8666253Y17106988D01*
X8630461Y17134639D01*
X7661610Y17754178D01*
X7661610Y17754178D01*
G37*
X7661610Y17754178D02*
X7661612Y17754176D01*
X7621495Y17775065D01*
X7579574Y17788129D01*
X7536809Y17793579D01*
X7494162Y17791628D01*
X7452593Y17782486D01*
X7413062Y17766365D01*
X7376531Y17743475D01*
X7343960Y17714028D01*
X7316309Y17678236D01*
X7262439Y17593986D01*
X7241551Y17553870D01*
X7228487Y17511951D01*
X7223037Y17469188D01*
X7224988Y17426542D01*
X7234129Y17384973D01*
X7250251Y17345443D01*
X7273140Y17308911D01*
X7302587Y17276338D01*
X7338379Y17248685D01*
X8307230Y16629145D01*
X8347346Y16608258D01*
X8389267Y16595194D01*
X8432031Y16589744D01*
X8474678Y16591696D01*
X8516247Y16600837D01*
X8555778Y16616959D01*
X8592309Y16639848D01*
X8624880Y16669294D01*
X8652531Y16705085D01*
X8706401Y16789335D01*
X8727289Y16829452D01*
X8740352Y16871373D01*
X8745802Y16914138D01*
X8743851Y16956785D01*
X8734709Y16998355D01*
X8718588Y17037886D01*
X8695699Y17074417D01*
X8666253Y17106988D01*
X8630461Y17134639D01*
X7661610Y17754178D01*
G36*
X6977423Y16684230D02*
X6977416Y16684228D01*
X6937299Y16705117D01*
X6895379Y16718181D01*
X6852615Y16723631D01*
X6809969Y16721680D01*
X6768401Y16712538D01*
X6728870Y16696417D01*
X6692339Y16673527D01*
X6659766Y16644080D01*
X6632113Y16608288D01*
X6578243Y16524038D01*
X6557355Y16483922D01*
X6544291Y16442001D01*
X6538841Y16399237D01*
X6540792Y16356590D01*
X6549933Y16315021D01*
X6566055Y16275490D01*
X6588944Y16238959D01*
X6618391Y16206388D01*
X6654183Y16178737D01*
X7623035Y15559197D01*
X7663151Y15538310D01*
X7705071Y15525246D01*
X7747835Y15519796D01*
X7790482Y15521748D01*
X7832051Y15530889D01*
X7871582Y15547011D01*
X7908113Y15569900D01*
X7940684Y15599346D01*
X7968335Y15635137D01*
X8022205Y15719387D01*
X8043095Y15759504D01*
X8056161Y15801425D01*
X8061613Y15844190D01*
X8059663Y15886837D01*
X8050522Y15928407D01*
X8034401Y15967938D01*
X8011512Y16004469D01*
X7982066Y16037040D01*
X7946275Y16064691D01*
X6977423Y16684230D01*
X6977423Y16684230D01*
G37*
X6977423Y16684230D02*
X6977416Y16684228D01*
X6937299Y16705117D01*
X6895379Y16718181D01*
X6852615Y16723631D01*
X6809969Y16721680D01*
X6768401Y16712538D01*
X6728870Y16696417D01*
X6692339Y16673527D01*
X6659766Y16644080D01*
X6632113Y16608288D01*
X6578243Y16524038D01*
X6557355Y16483922D01*
X6544291Y16442001D01*
X6538841Y16399237D01*
X6540792Y16356590D01*
X6549933Y16315021D01*
X6566055Y16275490D01*
X6588944Y16238959D01*
X6618391Y16206388D01*
X6654183Y16178737D01*
X7623035Y15559197D01*
X7663151Y15538310D01*
X7705071Y15525246D01*
X7747835Y15519796D01*
X7790482Y15521748D01*
X7832051Y15530889D01*
X7871582Y15547011D01*
X7908113Y15569900D01*
X7940684Y15599346D01*
X7968335Y15635137D01*
X8022205Y15719387D01*
X8043095Y15759504D01*
X8056161Y15801425D01*
X8061613Y15844190D01*
X8059663Y15886837D01*
X8050522Y15928407D01*
X8034401Y15967938D01*
X8011512Y16004469D01*
X7982066Y16037040D01*
X7946275Y16064691D01*
X6977423Y16684230D01*
G36*
X13452997Y17065744D02*
X13452990Y17065742D01*
X13412873Y17086630D01*
X13370952Y17099694D01*
X13328188Y17105145D01*
X13285540Y17103193D01*
X13243971Y17094051D01*
X13204440Y17077930D01*
X13167908Y17055041D01*
X13135337Y17025594D01*
X13107686Y16989802D01*
X13053816Y16905552D01*
X13032928Y16865435D01*
X13019864Y16823514D01*
X13014414Y16780750D01*
X13016365Y16738103D01*
X13025507Y16696534D01*
X13041629Y16657004D01*
X13064518Y16620473D01*
X13093964Y16587902D01*
X13129756Y16560251D01*
X14098608Y15940711D01*
X14138724Y15919823D01*
X14180644Y15906760D01*
X14223408Y15901309D01*
X14266055Y15903261D01*
X14307624Y15912402D01*
X14347155Y15928523D01*
X14383686Y15951413D01*
X14416257Y15980859D01*
X14443908Y16016651D01*
X14497778Y16100901D01*
X14518668Y16141018D01*
X14531734Y16182939D01*
X14537186Y16225704D01*
X14535236Y16268351D01*
X14526095Y16309920D01*
X14509974Y16349451D01*
X14487086Y16385982D01*
X14457640Y16418553D01*
X14421848Y16446204D01*
X13452997Y17065744D01*
X13452997Y17065744D01*
G37*
X13452997Y17065744D02*
X13452990Y17065742D01*
X13412873Y17086630D01*
X13370952Y17099694D01*
X13328188Y17105145D01*
X13285540Y17103193D01*
X13243971Y17094051D01*
X13204440Y17077930D01*
X13167908Y17055041D01*
X13135337Y17025594D01*
X13107686Y16989802D01*
X13053816Y16905552D01*
X13032928Y16865435D01*
X13019864Y16823514D01*
X13014414Y16780750D01*
X13016365Y16738103D01*
X13025507Y16696534D01*
X13041629Y16657004D01*
X13064518Y16620473D01*
X13093964Y16587902D01*
X13129756Y16560251D01*
X14098608Y15940711D01*
X14138724Y15919823D01*
X14180644Y15906760D01*
X14223408Y15901309D01*
X14266055Y15903261D01*
X14307624Y15912402D01*
X14347155Y15928523D01*
X14383686Y15951413D01*
X14416257Y15980859D01*
X14443908Y16016651D01*
X14497778Y16100901D01*
X14518668Y16141018D01*
X14531734Y16182939D01*
X14537186Y16225704D01*
X14535236Y16268351D01*
X14526095Y16309920D01*
X14509974Y16349451D01*
X14487086Y16385982D01*
X14457640Y16418553D01*
X14421848Y16446204D01*
X13452997Y17065744D01*
G36*
X12768810Y15995796D02*
X12768812Y15995794D01*
X12728696Y16016682D01*
X12686775Y16029746D01*
X12644010Y16035197D01*
X12601363Y16033245D01*
X12559794Y16024103D01*
X12520263Y16007982D01*
X12483731Y15985093D01*
X12451160Y15955646D01*
X12423509Y15919854D01*
X12369639Y15835604D01*
X12348751Y15795488D01*
X12335688Y15753567D01*
X12330237Y15710803D01*
X12332188Y15668156D01*
X12341330Y15626587D01*
X12357452Y15587056D01*
X12380341Y15550525D01*
X12409787Y15517954D01*
X12445579Y15490303D01*
X13414430Y14870763D01*
X13454546Y14849876D01*
X13496467Y14836812D01*
X13539231Y14831362D01*
X13581878Y14833314D01*
X13623447Y14842455D01*
X13662978Y14858577D01*
X13699509Y14881466D01*
X13732080Y14910912D01*
X13759731Y14946703D01*
X13813601Y15030953D01*
X13834489Y15071070D01*
X13847552Y15112991D01*
X13853002Y15155756D01*
X13851051Y15198403D01*
X13841909Y15239972D01*
X13825788Y15279503D01*
X13802899Y15316034D01*
X13773453Y15348605D01*
X13737661Y15376256D01*
X12768810Y15995796D01*
X12768810Y15995796D01*
G37*
X12768810Y15995796D02*
X12768812Y15995794D01*
X12728696Y16016682D01*
X12686775Y16029746D01*
X12644010Y16035197D01*
X12601363Y16033245D01*
X12559794Y16024103D01*
X12520263Y16007982D01*
X12483731Y15985093D01*
X12451160Y15955646D01*
X12423509Y15919854D01*
X12369639Y15835604D01*
X12348751Y15795488D01*
X12335688Y15753567D01*
X12330237Y15710803D01*
X12332188Y15668156D01*
X12341330Y15626587D01*
X12357452Y15587056D01*
X12380341Y15550525D01*
X12409787Y15517954D01*
X12445579Y15490303D01*
X13414430Y14870763D01*
X13454546Y14849876D01*
X13496467Y14836812D01*
X13539231Y14831362D01*
X13581878Y14833314D01*
X13623447Y14842455D01*
X13662978Y14858577D01*
X13699509Y14881466D01*
X13732080Y14910912D01*
X13759731Y14946703D01*
X13813601Y15030953D01*
X13834489Y15071070D01*
X13847552Y15112991D01*
X13853002Y15155756D01*
X13851051Y15198403D01*
X13841909Y15239972D01*
X13825788Y15279503D01*
X13802899Y15316034D01*
X13773453Y15348605D01*
X13737661Y15376256D01*
X12768810Y15995796D01*
G36*
X12084623Y14925848D02*
X12084616Y14925846D01*
X12044500Y14946734D01*
X12002579Y14959798D01*
X11959814Y14965249D01*
X11917167Y14963297D01*
X11875598Y14954155D01*
X11836067Y14938034D01*
X11799535Y14915145D01*
X11766964Y14885698D01*
X11739313Y14849906D01*
X11685443Y14765656D01*
X11664555Y14725540D01*
X11651492Y14683619D01*
X11646041Y14640855D01*
X11647993Y14598208D01*
X11657135Y14556639D01*
X11673256Y14517108D01*
X11696145Y14480577D01*
X11725591Y14448006D01*
X11761383Y14420355D01*
X12730235Y13800815D01*
X12770351Y13779928D01*
X12812271Y13766864D01*
X12855035Y13761414D01*
X12897682Y13763366D01*
X12939251Y13772507D01*
X12978782Y13788629D01*
X13015313Y13811518D01*
X13047884Y13840964D01*
X13075535Y13876755D01*
X13129405Y13961005D01*
X13150295Y14001122D01*
X13163361Y14043043D01*
X13168813Y14085808D01*
X13166863Y14128455D01*
X13157722Y14170024D01*
X13141601Y14209555D01*
X13118712Y14246086D01*
X13089266Y14278657D01*
X13053475Y14306308D01*
X12084623Y14925848D01*
X12084623Y14925848D01*
G37*
X12084623Y14925848D02*
X12084616Y14925846D01*
X12044500Y14946734D01*
X12002579Y14959798D01*
X11959814Y14965249D01*
X11917167Y14963297D01*
X11875598Y14954155D01*
X11836067Y14938034D01*
X11799535Y14915145D01*
X11766964Y14885698D01*
X11739313Y14849906D01*
X11685443Y14765656D01*
X11664555Y14725540D01*
X11651492Y14683619D01*
X11646041Y14640855D01*
X11647993Y14598208D01*
X11657135Y14556639D01*
X11673256Y14517108D01*
X11696145Y14480577D01*
X11725591Y14448006D01*
X11761383Y14420355D01*
X12730235Y13800815D01*
X12770351Y13779928D01*
X12812271Y13766864D01*
X12855035Y13761414D01*
X12897682Y13763366D01*
X12939251Y13772507D01*
X12978782Y13788629D01*
X13015313Y13811518D01*
X13047884Y13840964D01*
X13075535Y13876755D01*
X13129405Y13961005D01*
X13150295Y14001122D01*
X13163361Y14043043D01*
X13168813Y14085808D01*
X13166863Y14128455D01*
X13157722Y14170024D01*
X13141601Y14209555D01*
X13118712Y14246086D01*
X13089266Y14278657D01*
X13053475Y14306308D01*
X12084623Y14925848D01*
G36*
X11400437Y13855900D02*
X11400439Y13855898D01*
X11360322Y13876786D01*
X11318401Y13889850D01*
X11275637Y13895301D01*
X11232990Y13893349D01*
X11191420Y13884207D01*
X11151889Y13868086D01*
X11115358Y13845197D01*
X11082787Y13815750D01*
X11055136Y13779958D01*
X11001266Y13695708D01*
X10980378Y13655592D01*
X10967315Y13613671D01*
X10961864Y13570907D01*
X10963815Y13528260D01*
X10972957Y13486691D01*
X10989079Y13447160D01*
X11011968Y13410629D01*
X11041414Y13378058D01*
X11077206Y13350407D01*
X12046057Y12730867D01*
X12086173Y12709979D01*
X12128094Y12696916D01*
X12170858Y12691466D01*
X12213505Y12693417D01*
X12255074Y12702559D01*
X12294605Y12718680D01*
X12331136Y12741569D01*
X12363707Y12771015D01*
X12391358Y12806807D01*
X12445228Y12891057D01*
X12466116Y12931174D01*
X12479179Y12973095D01*
X12484629Y13015860D01*
X12482678Y13058507D01*
X12473536Y13100076D01*
X12457415Y13139607D01*
X12434526Y13176138D01*
X12405080Y13208709D01*
X12369288Y13236360D01*
X11400437Y13855900D01*
X11400437Y13855900D01*
G37*
X11400437Y13855900D02*
X11400439Y13855898D01*
X11360322Y13876786D01*
X11318401Y13889850D01*
X11275637Y13895301D01*
X11232990Y13893349D01*
X11191420Y13884207D01*
X11151889Y13868086D01*
X11115358Y13845197D01*
X11082787Y13815750D01*
X11055136Y13779958D01*
X11001266Y13695708D01*
X10980378Y13655592D01*
X10967315Y13613671D01*
X10961864Y13570907D01*
X10963815Y13528260D01*
X10972957Y13486691D01*
X10989079Y13447160D01*
X11011968Y13410629D01*
X11041414Y13378058D01*
X11077206Y13350407D01*
X12046057Y12730867D01*
X12086173Y12709979D01*
X12128094Y12696916D01*
X12170858Y12691466D01*
X12213505Y12693417D01*
X12255074Y12702559D01*
X12294605Y12718680D01*
X12331136Y12741569D01*
X12363707Y12771015D01*
X12391358Y12806807D01*
X12445228Y12891057D01*
X12466116Y12931174D01*
X12479179Y12973095D01*
X12484629Y13015860D01*
X12482678Y13058507D01*
X12473536Y13100076D01*
X12457415Y13139607D01*
X12434526Y13176138D01*
X12405080Y13208709D01*
X12369288Y13236360D01*
X11400437Y13855900D01*
G36*
X13805286Y9245155D02*
X13805283Y9245153D01*
X13788083Y9208243D01*
X13781405Y9169523D01*
X13784819Y9130959D01*
X13797894Y9094520D01*
X13820199Y9062170D01*
X13851303Y9035876D01*
X14185742Y8822016D01*
X14222661Y8804816D01*
X14261386Y8798145D01*
X14299950Y8801568D01*
X14336387Y8814650D01*
X14368732Y8836954D01*
X14395017Y8868046D01*
X14770495Y9455229D01*
X14787695Y9492136D01*
X14794373Y9530854D01*
X14790959Y9569416D01*
X14777884Y9605856D01*
X14755579Y9638205D01*
X14724475Y9664499D01*
X14390036Y9878358D01*
X14353120Y9895559D01*
X14314396Y9902231D01*
X14275832Y9898810D01*
X14239394Y9885731D01*
X14207049Y9863429D01*
X14180764Y9832338D01*
X13805286Y9245155D01*
X13805286Y9245155D01*
G37*
X13805286Y9245155D02*
X13805283Y9245153D01*
X13788083Y9208243D01*
X13781405Y9169523D01*
X13784819Y9130959D01*
X13797894Y9094520D01*
X13820199Y9062170D01*
X13851303Y9035876D01*
X14185742Y8822016D01*
X14222661Y8804816D01*
X14261386Y8798145D01*
X14299950Y8801568D01*
X14336387Y8814650D01*
X14368732Y8836954D01*
X14395017Y8868046D01*
X14770495Y9455229D01*
X14787695Y9492136D01*
X14794373Y9530854D01*
X14790959Y9569416D01*
X14777884Y9605856D01*
X14755579Y9638205D01*
X14724475Y9664499D01*
X14390036Y9878358D01*
X14353120Y9895559D01*
X14314396Y9902231D01*
X14275832Y9898810D01*
X14239394Y9885731D01*
X14207049Y9863429D01*
X14180764Y9832338D01*
X13805286Y9245155D01*
G36*
X12204576Y10268740D02*
X12204572Y10268735D01*
X12187372Y10231825D01*
X12180694Y10193105D01*
X12184108Y10154542D01*
X12197183Y10118103D01*
X12219488Y10085754D01*
X12250592Y10059460D01*
X12585030Y9845600D01*
X12621947Y9828403D01*
X12660672Y9821734D01*
X12699237Y9825156D01*
X12735677Y9838236D01*
X12768022Y9860539D01*
X12794308Y9891630D01*
X13169794Y10478812D01*
X13186990Y10515719D01*
X13193665Y10554438D01*
X13190249Y10593000D01*
X13177173Y10629439D01*
X13154868Y10661789D01*
X13123764Y10688083D01*
X12789325Y10901943D01*
X12752406Y10919144D01*
X12713682Y10925816D01*
X12675119Y10922395D01*
X12638683Y10909316D01*
X12606339Y10887014D01*
X12580054Y10855923D01*
X12204576Y10268740D01*
X12204576Y10268740D01*
G37*
X12204576Y10268740D02*
X12204572Y10268735D01*
X12187372Y10231825D01*
X12180694Y10193105D01*
X12184108Y10154542D01*
X12197183Y10118103D01*
X12219488Y10085754D01*
X12250592Y10059460D01*
X12585030Y9845600D01*
X12621947Y9828403D01*
X12660672Y9821734D01*
X12699237Y9825156D01*
X12735677Y9838236D01*
X12768022Y9860539D01*
X12794308Y9891630D01*
X13169794Y10478812D01*
X13186990Y10515719D01*
X13193665Y10554438D01*
X13190249Y10593000D01*
X13177173Y10629439D01*
X13154868Y10661789D01*
X13123764Y10688083D01*
X12789325Y10901943D01*
X12752406Y10919144D01*
X12713682Y10925816D01*
X12675119Y10922395D01*
X12638683Y10909316D01*
X12606339Y10887014D01*
X12580054Y10855923D01*
X12204576Y10268740D01*
G36*
X11711963Y7734973D02*
X11711956Y7734969D01*
X11694760Y7698063D01*
X11688085Y7659345D01*
X11691501Y7620784D01*
X11704577Y7584345D01*
X11726882Y7551996D01*
X11757986Y7525702D01*
X12092424Y7311842D01*
X12129340Y7294645D01*
X12168064Y7287973D01*
X12206628Y7291393D01*
X12243065Y7304471D01*
X12275410Y7326772D01*
X12301695Y7357862D01*
X12677174Y7945046D01*
X12694374Y7981957D01*
X12701052Y8020678D01*
X12697638Y8059242D01*
X12684563Y8095682D01*
X12662258Y8128032D01*
X12631154Y8154326D01*
X12296719Y8368186D01*
X12259800Y8385386D01*
X12221075Y8392057D01*
X12182510Y8388633D01*
X12146072Y8375552D01*
X12113727Y8353248D01*
X12087442Y8322156D01*
X11711963Y7734973D01*
X11711963Y7734973D01*
G37*
X11711963Y7734973D02*
X11711956Y7734969D01*
X11694760Y7698063D01*
X11688085Y7659345D01*
X11691501Y7620784D01*
X11704577Y7584345D01*
X11726882Y7551996D01*
X11757986Y7525702D01*
X12092424Y7311842D01*
X12129340Y7294645D01*
X12168064Y7287973D01*
X12206628Y7291393D01*
X12243065Y7304471D01*
X12275410Y7326772D01*
X12301695Y7357862D01*
X12677174Y7945046D01*
X12694374Y7981957D01*
X12701052Y8020678D01*
X12697638Y8059242D01*
X12684563Y8095682D01*
X12662258Y8128032D01*
X12631154Y8154326D01*
X12296719Y8368186D01*
X12259800Y8385386D01*
X12221075Y8392057D01*
X12182510Y8388633D01*
X12146072Y8375552D01*
X12113727Y8353248D01*
X12087442Y8322156D01*
X11711963Y7734973D01*
G36*
X3695541Y15709909D02*
X3695547Y15709906D01*
X3678347Y15672996D01*
X3671669Y15634275D01*
X3675083Y15595712D01*
X3688158Y15559272D01*
X3710463Y15526922D01*
X3741567Y15500628D01*
X4076004Y15286770D01*
X4112921Y15269573D01*
X4151645Y15262904D01*
X4190210Y15266326D01*
X4226649Y15279406D01*
X4258995Y15301709D01*
X4285281Y15332800D01*
X4660759Y15919983D01*
X4677955Y15956890D01*
X4684630Y15995609D01*
X4681214Y16034171D01*
X4668138Y16070610D01*
X4645833Y16102960D01*
X4614729Y16129254D01*
X4280292Y16343112D01*
X4243375Y16360313D01*
X4204652Y16366985D01*
X4166087Y16363564D01*
X4129649Y16350485D01*
X4097304Y16328183D01*
X4071019Y16297092D01*
X3695541Y15709909D01*
X3695541Y15709909D01*
G37*
X3695541Y15709909D02*
X3695547Y15709906D01*
X3678347Y15672996D01*
X3671669Y15634275D01*
X3675083Y15595712D01*
X3688158Y15559272D01*
X3710463Y15526922D01*
X3741567Y15500628D01*
X4076004Y15286770D01*
X4112921Y15269573D01*
X4151645Y15262904D01*
X4190210Y15266326D01*
X4226649Y15279406D01*
X4258995Y15301709D01*
X4285281Y15332800D01*
X4660759Y15919983D01*
X4677955Y15956890D01*
X4684630Y15995609D01*
X4681214Y16034171D01*
X4668138Y16070610D01*
X4645833Y16102960D01*
X4614729Y16129254D01*
X4280292Y16343112D01*
X4243375Y16360313D01*
X4204652Y16366985D01*
X4166087Y16363564D01*
X4129649Y16350485D01*
X4097304Y16328183D01*
X4071019Y16297092D01*
X3695541Y15709909D01*
G36*
X2094832Y16733495D02*
X2094835Y16733490D01*
X2077635Y16696580D01*
X2070957Y16657860D01*
X2074371Y16619297D01*
X2087446Y16582857D01*
X2109751Y16550508D01*
X2140855Y16524214D01*
X2475293Y16310354D01*
X2512210Y16293157D01*
X2550935Y16286488D01*
X2589501Y16289910D01*
X2625940Y16302990D01*
X2658285Y16325293D01*
X2684571Y16356384D01*
X3060049Y16943567D01*
X3077245Y16980474D01*
X3083920Y17019193D01*
X3080504Y17057755D01*
X3067428Y17094194D01*
X3045123Y17126544D01*
X3014019Y17152838D01*
X2679580Y17366697D01*
X2642665Y17383898D01*
X2603942Y17390570D01*
X2565378Y17387149D01*
X2528940Y17374070D01*
X2496595Y17351768D01*
X2470310Y17320677D01*
X2094832Y16733495D01*
X2094832Y16733495D01*
G37*
X2094832Y16733495D02*
X2094835Y16733490D01*
X2077635Y16696580D01*
X2070957Y16657860D01*
X2074371Y16619297D01*
X2087446Y16582857D01*
X2109751Y16550508D01*
X2140855Y16524214D01*
X2475293Y16310354D01*
X2512210Y16293157D01*
X2550935Y16286488D01*
X2589501Y16289910D01*
X2625940Y16302990D01*
X2658285Y16325293D01*
X2684571Y16356384D01*
X3060049Y16943567D01*
X3077245Y16980474D01*
X3083920Y17019193D01*
X3080504Y17057755D01*
X3067428Y17094194D01*
X3045123Y17126544D01*
X3014019Y17152838D01*
X2679580Y17366697D01*
X2642665Y17383898D01*
X2603942Y17390570D01*
X2565378Y17387149D01*
X2528940Y17374070D01*
X2496595Y17351768D01*
X2470310Y17320677D01*
X2094832Y16733495D01*
G36*
X1602218Y14199727D02*
X1602216Y14199726D01*
X1585020Y14162820D01*
X1578345Y14124102D01*
X1581761Y14085541D01*
X1594837Y14049102D01*
X1617142Y14016753D01*
X1648246Y13990459D01*
X1982684Y13776599D01*
X2019602Y13759398D01*
X2058326Y13752726D01*
X2096889Y13756146D01*
X2133326Y13769226D01*
X2165669Y13791528D01*
X2191954Y13822619D01*
X2567433Y14409802D01*
X2584633Y14446713D01*
X2591311Y14485434D01*
X2587897Y14523997D01*
X2574822Y14560437D01*
X2552517Y14592787D01*
X2521413Y14619081D01*
X2186974Y14832940D01*
X2150055Y14850140D01*
X2111330Y14856811D01*
X2072765Y14853387D01*
X2036327Y14840306D01*
X2003982Y14818002D01*
X1977697Y14786910D01*
X1602218Y14199727D01*
X1602218Y14199727D01*
G37*
X1602218Y14199727D02*
X1602216Y14199726D01*
X1585020Y14162820D01*
X1578345Y14124102D01*
X1581761Y14085541D01*
X1594837Y14049102D01*
X1617142Y14016753D01*
X1648246Y13990459D01*
X1982684Y13776599D01*
X2019602Y13759398D01*
X2058326Y13752726D01*
X2096889Y13756146D01*
X2133326Y13769226D01*
X2165669Y13791528D01*
X2191954Y13822619D01*
X2567433Y14409802D01*
X2584633Y14446713D01*
X2591311Y14485434D01*
X2587897Y14523997D01*
X2574822Y14560437D01*
X2552517Y14592787D01*
X2521413Y14619081D01*
X2186974Y14832940D01*
X2150055Y14850140D01*
X2111330Y14856811D01*
X2072765Y14853387D01*
X2036327Y14840306D01*
X2003982Y14818002D01*
X1977697Y14786910D01*
X1602218Y14199727D01*
G36*
X7927056Y20628999D02*
X7927053Y20628997D01*
X7944085Y20665544D01*
X7950697Y20703877D01*
X7947315Y20742052D01*
X7934369Y20778124D01*
X7912286Y20810148D01*
X7881493Y20836178D01*
X7460253Y21105544D01*
X7423707Y21122576D01*
X7385374Y21129188D01*
X7347199Y21125807D01*
X7311127Y21112860D01*
X7279103Y21090777D01*
X7253073Y21059984D01*
X6902900Y20512374D01*
X6885868Y20475827D01*
X6879256Y20437494D01*
X6882638Y20399319D01*
X6895584Y20363247D01*
X6917667Y20331224D01*
X6948460Y20305194D01*
X7369701Y20035828D01*
X7406248Y20018796D01*
X7444582Y20012184D01*
X7482757Y20015566D01*
X7518829Y20028512D01*
X7550853Y20050595D01*
X7576883Y20081388D01*
X7927056Y20628999D01*
X7927056Y20628999D01*
G37*
X7927056Y20628999D02*
X7927053Y20628997D01*
X7944085Y20665544D01*
X7950697Y20703877D01*
X7947315Y20742052D01*
X7934369Y20778124D01*
X7912286Y20810148D01*
X7881493Y20836178D01*
X7460253Y21105544D01*
X7423707Y21122576D01*
X7385374Y21129188D01*
X7347199Y21125807D01*
X7311127Y21112860D01*
X7279103Y21090777D01*
X7253073Y21059984D01*
X6902900Y20512374D01*
X6885868Y20475827D01*
X6879256Y20437494D01*
X6882638Y20399319D01*
X6895584Y20363247D01*
X6917667Y20331224D01*
X6948460Y20305194D01*
X7369701Y20035828D01*
X7406248Y20018796D01*
X7444582Y20012184D01*
X7482757Y20015566D01*
X7518829Y20028512D01*
X7550853Y20050595D01*
X7576883Y20081388D01*
X7927056Y20628999D01*
G36*
X7078557Y19302094D02*
X7078555Y19302091D01*
X7095587Y19338638D01*
X7102199Y19376972D01*
X7098818Y19415147D01*
X7085871Y19451219D01*
X7063788Y19483243D01*
X7032995Y19509273D01*
X6611754Y19778638D01*
X6575208Y19795670D01*
X6536875Y19802282D01*
X6498700Y19798901D01*
X6462629Y19785954D01*
X6430605Y19763871D01*
X6404575Y19733078D01*
X6054401Y19185468D01*
X6037369Y19148921D01*
X6030757Y19110588D01*
X6034138Y19072413D01*
X6047085Y19036341D01*
X6069168Y19004318D01*
X6099961Y18978288D01*
X6521201Y18708923D01*
X6557748Y18691891D01*
X6596082Y18685279D01*
X6634257Y18688660D01*
X6670329Y18701607D01*
X6702353Y18723690D01*
X6728383Y18754483D01*
X7078557Y19302094D01*
X7078557Y19302094D01*
G37*
X7078557Y19302094D02*
X7078555Y19302091D01*
X7095587Y19338638D01*
X7102199Y19376972D01*
X7098818Y19415147D01*
X7085871Y19451219D01*
X7063788Y19483243D01*
X7032995Y19509273D01*
X6611754Y19778638D01*
X6575208Y19795670D01*
X6536875Y19802282D01*
X6498700Y19798901D01*
X6462629Y19785954D01*
X6430605Y19763871D01*
X6404575Y19733078D01*
X6054401Y19185468D01*
X6037369Y19148921D01*
X6030757Y19110588D01*
X6034138Y19072413D01*
X6047085Y19036341D01*
X6069168Y19004318D01*
X6099961Y18978288D01*
X6521201Y18708923D01*
X6557748Y18691891D01*
X6596082Y18685279D01*
X6634257Y18688660D01*
X6670329Y18701607D01*
X6702353Y18723690D01*
X6728383Y18754483D01*
X7078557Y19302094D01*
G36*
X7023327Y13581928D02*
X7023325Y13581925D01*
X7006125Y13545015D01*
X6999447Y13506294D01*
X7002861Y13467731D01*
X7015936Y13431291D01*
X7038241Y13398941D01*
X7069345Y13372647D01*
X7403784Y13158788D01*
X7440703Y13141588D01*
X7479428Y13134917D01*
X7517992Y13138340D01*
X7554429Y13151422D01*
X7586774Y13173726D01*
X7613059Y13204818D01*
X7988537Y13792001D01*
X8005737Y13828908D01*
X8012415Y13867626D01*
X8009001Y13906188D01*
X7995926Y13942627D01*
X7973621Y13974976D01*
X7942517Y14001270D01*
X7608078Y14215130D01*
X7571161Y14232331D01*
X7532438Y14239003D01*
X7493873Y14235583D01*
X7457435Y14222503D01*
X7425090Y14200201D01*
X7398805Y14169110D01*
X7023327Y13581928D01*
X7023327Y13581928D01*
G37*
X7023327Y13581928D02*
X7023325Y13581925D01*
X7006125Y13545015D01*
X6999447Y13506294D01*
X7002861Y13467731D01*
X7015936Y13431291D01*
X7038241Y13398941D01*
X7069345Y13372647D01*
X7403784Y13158788D01*
X7440703Y13141588D01*
X7479428Y13134917D01*
X7517992Y13138340D01*
X7554429Y13151422D01*
X7586774Y13173726D01*
X7613059Y13204818D01*
X7988537Y13792001D01*
X8005737Y13828908D01*
X8012415Y13867626D01*
X8009001Y13906188D01*
X7995926Y13942627D01*
X7973621Y13974976D01*
X7942517Y14001270D01*
X7608078Y14215130D01*
X7571161Y14232331D01*
X7532438Y14239003D01*
X7493873Y14235583D01*
X7457435Y14222503D01*
X7425090Y14200201D01*
X7398805Y14169110D01*
X7023327Y13581928D01*
G36*
X5422618Y14605514D02*
X5422615Y14605512D01*
X5405415Y14568602D01*
X5398737Y14529881D01*
X5402151Y14491318D01*
X5415226Y14454878D01*
X5437531Y14422528D01*
X5468635Y14396234D01*
X5803074Y14182374D01*
X5839990Y14165177D01*
X5878714Y14158508D01*
X5917279Y14161930D01*
X5953718Y14175010D01*
X5986063Y14197313D01*
X6012349Y14228404D01*
X6387828Y14815586D01*
X6405028Y14852493D01*
X6411706Y14891211D01*
X6408292Y14929773D01*
X6395217Y14966213D01*
X6372912Y14998562D01*
X6341808Y15024856D01*
X6007369Y15238716D01*
X5970453Y15255917D01*
X5931729Y15262589D01*
X5893165Y15259168D01*
X5856727Y15246089D01*
X5824381Y15223787D01*
X5798096Y15192696D01*
X5422618Y14605514D01*
X5422618Y14605514D01*
G37*
X5422618Y14605514D02*
X5422615Y14605512D01*
X5405415Y14568602D01*
X5398737Y14529881D01*
X5402151Y14491318D01*
X5415226Y14454878D01*
X5437531Y14422528D01*
X5468635Y14396234D01*
X5803074Y14182374D01*
X5839990Y14165177D01*
X5878714Y14158508D01*
X5917279Y14161930D01*
X5953718Y14175010D01*
X5986063Y14197313D01*
X6012349Y14228404D01*
X6387828Y14815586D01*
X6405028Y14852493D01*
X6411706Y14891211D01*
X6408292Y14929773D01*
X6395217Y14966213D01*
X6372912Y14998562D01*
X6341808Y15024856D01*
X6007369Y15238716D01*
X5970453Y15255917D01*
X5931729Y15262589D01*
X5893165Y15259168D01*
X5856727Y15246089D01*
X5824381Y15223787D01*
X5798096Y15192696D01*
X5422618Y14605514D01*
G36*
X4930004Y12071746D02*
X4930005Y12071747D01*
X4912809Y12034840D01*
X4906134Y11996123D01*
X4909550Y11957561D01*
X4922626Y11921122D01*
X4944931Y11888772D01*
X4976035Y11862478D01*
X5310474Y11648618D01*
X5347392Y11631417D01*
X5386116Y11624745D01*
X5424679Y11628166D01*
X5461115Y11641245D01*
X5493458Y11663547D01*
X5519743Y11694638D01*
X5895221Y12281821D01*
X5912421Y12318733D01*
X5919099Y12357453D01*
X5915685Y12396017D01*
X5902610Y12432456D01*
X5880305Y12464806D01*
X5849201Y12491100D01*
X5514763Y12704959D01*
X5477846Y12722159D01*
X5439120Y12728830D01*
X5400555Y12725406D01*
X5364115Y12712325D01*
X5331769Y12690021D01*
X5305483Y12658929D01*
X4930004Y12071746D01*
X4930004Y12071746D01*
G37*
X4930004Y12071746D02*
X4930005Y12071747D01*
X4912809Y12034840D01*
X4906134Y11996123D01*
X4909550Y11957561D01*
X4922626Y11921122D01*
X4944931Y11888772D01*
X4976035Y11862478D01*
X5310474Y11648618D01*
X5347392Y11631417D01*
X5386116Y11624745D01*
X5424679Y11628166D01*
X5461115Y11641245D01*
X5493458Y11663547D01*
X5519743Y11694638D01*
X5895221Y12281821D01*
X5912421Y12318733D01*
X5919099Y12357453D01*
X5915685Y12396017D01*
X5902610Y12432456D01*
X5880305Y12464806D01*
X5849201Y12491100D01*
X5514763Y12704959D01*
X5477846Y12722159D01*
X5439120Y12728830D01*
X5400555Y12725406D01*
X5364115Y12712325D01*
X5331769Y12690021D01*
X5305483Y12658929D01*
X4930004Y12071746D01*
G36*
X10393242Y11427010D02*
X10393239Y11427008D01*
X10376039Y11390098D01*
X10369361Y11351377D01*
X10372775Y11312814D01*
X10385850Y11276374D01*
X10408155Y11244024D01*
X10439259Y11217730D01*
X10773698Y11003870D01*
X10810617Y10986670D01*
X10849342Y10979999D01*
X10887906Y10983422D01*
X10924343Y10996504D01*
X10956688Y11018808D01*
X10982973Y11049900D01*
X11358451Y11637082D01*
X11375651Y11673989D01*
X11382329Y11712707D01*
X11378915Y11751269D01*
X11365840Y11787709D01*
X11343535Y11820058D01*
X11312431Y11846352D01*
X10977993Y12060212D01*
X10941076Y12077413D01*
X10902353Y12084085D01*
X10863788Y12080664D01*
X10827350Y12067585D01*
X10795005Y12045283D01*
X10768720Y12014192D01*
X10393242Y11427010D01*
X10393242Y11427010D01*
G37*
X10393242Y11427010D02*
X10393239Y11427008D01*
X10376039Y11390098D01*
X10369361Y11351377D01*
X10372775Y11312814D01*
X10385850Y11276374D01*
X10408155Y11244024D01*
X10439259Y11217730D01*
X10773698Y11003870D01*
X10810617Y10986670D01*
X10849342Y10979999D01*
X10887906Y10983422D01*
X10924343Y10996504D01*
X10956688Y11018808D01*
X10982973Y11049900D01*
X11358451Y11637082D01*
X11375651Y11673989D01*
X11382329Y11712707D01*
X11378915Y11751269D01*
X11365840Y11787709D01*
X11343535Y11820058D01*
X11312431Y11846352D01*
X10977993Y12060212D01*
X10941076Y12077413D01*
X10902353Y12084085D01*
X10863788Y12080664D01*
X10827350Y12067585D01*
X10795005Y12045283D01*
X10768720Y12014192D01*
X10393242Y11427010D01*
G36*
X8792533Y12450595D02*
X8792530Y12450593D01*
X8775330Y12413683D01*
X8768652Y12374963D01*
X8772066Y12336400D01*
X8785141Y12299960D01*
X8807446Y12267610D01*
X8838550Y12241316D01*
X9172989Y12027456D01*
X9209908Y12010256D01*
X9248633Y12003585D01*
X9287197Y12007009D01*
X9323634Y12020090D01*
X9355979Y12042394D01*
X9382264Y12073486D01*
X9757743Y12660669D01*
X9774943Y12697576D01*
X9781621Y12736294D01*
X9778207Y12774856D01*
X9765132Y12811296D01*
X9742827Y12843645D01*
X9711723Y12869939D01*
X9377284Y13083798D01*
X9340368Y13100999D01*
X9301644Y13107671D01*
X9263080Y13104250D01*
X9226642Y13091171D01*
X9194296Y13068869D01*
X9168011Y13037778D01*
X8792533Y12450595D01*
X8792533Y12450595D01*
G37*
X8792533Y12450595D02*
X8792530Y12450593D01*
X8775330Y12413683D01*
X8768652Y12374963D01*
X8772066Y12336400D01*
X8785141Y12299960D01*
X8807446Y12267610D01*
X8838550Y12241316D01*
X9172989Y12027456D01*
X9209908Y12010256D01*
X9248633Y12003585D01*
X9287197Y12007009D01*
X9323634Y12020090D01*
X9355979Y12042394D01*
X9382264Y12073486D01*
X9757743Y12660669D01*
X9774943Y12697576D01*
X9781621Y12736294D01*
X9778207Y12774856D01*
X9765132Y12811296D01*
X9742827Y12843645D01*
X9711723Y12869939D01*
X9377284Y13083798D01*
X9340368Y13100999D01*
X9301644Y13107671D01*
X9263080Y13104250D01*
X9226642Y13091171D01*
X9194296Y13068869D01*
X9168011Y13037778D01*
X8792533Y12450595D01*
G36*
X8299919Y9916829D02*
X8282723Y9879922D01*
X8276049Y9841205D01*
X8279465Y9802643D01*
X8292541Y9766204D01*
X8314846Y9733854D01*
X8345950Y9707560D01*
X8680389Y9493700D01*
X8717307Y9476499D01*
X8756031Y9469827D01*
X8794594Y9473248D01*
X8831030Y9486327D01*
X8863373Y9508629D01*
X8889658Y9539720D01*
X9265136Y10126903D01*
X9282336Y10163814D01*
X9289014Y10202534D01*
X9285600Y10241098D01*
X9272525Y10277538D01*
X9250220Y10309887D01*
X9219116Y10336181D01*
X8884677Y10550041D01*
X8847760Y10567241D01*
X8809035Y10573912D01*
X8770469Y10570488D01*
X8734030Y10557407D01*
X8701684Y10535103D01*
X8675398Y10504011D01*
X8299919Y9916829D01*
X8299919Y9916829D01*
G37*
X8299919Y9916829D02*
X8282723Y9879922D01*
X8276049Y9841205D01*
X8279465Y9802643D01*
X8292541Y9766204D01*
X8314846Y9733854D01*
X8345950Y9707560D01*
X8680389Y9493700D01*
X8717307Y9476499D01*
X8756031Y9469827D01*
X8794594Y9473248D01*
X8831030Y9486327D01*
X8863373Y9508629D01*
X8889658Y9539720D01*
X9265136Y10126903D01*
X9282336Y10163814D01*
X9289014Y10202534D01*
X9285600Y10241098D01*
X9272525Y10277538D01*
X9250220Y10309887D01*
X9219116Y10336181D01*
X8884677Y10550041D01*
X8847760Y10567241D01*
X8809035Y10573912D01*
X8770469Y10570488D01*
X8734030Y10557407D01*
X8701684Y10535103D01*
X8675398Y10504011D01*
X8299919Y9916829D01*
G36*
X5882170Y9384287D02*
X5918717Y9367255D01*
X5957050Y9360644D01*
X5995226Y9364025D01*
X6031297Y9376972D01*
X6063321Y9399055D01*
X6089351Y9429848D01*
X6358715Y9851086D01*
X6375747Y9887633D01*
X6382359Y9925966D01*
X6378978Y9964142D01*
X6366031Y10000213D01*
X6343948Y10032237D01*
X6313155Y10058267D01*
X5765544Y10408440D01*
X5728997Y10425472D01*
X5690664Y10432084D01*
X5652489Y10428702D01*
X5616417Y10415756D01*
X5584393Y10393673D01*
X5558363Y10362880D01*
X5288999Y9941642D01*
X5271967Y9905095D01*
X5265355Y9866762D01*
X5268736Y9828586D01*
X5281683Y9792515D01*
X5303766Y9760491D01*
X5334559Y9734461D01*
X5882170Y9384287D01*
X5882170Y9384287D01*
G37*
X5882170Y9384287D02*
X5918717Y9367255D01*
X5957050Y9360644D01*
X5995226Y9364025D01*
X6031297Y9376972D01*
X6063321Y9399055D01*
X6089351Y9429848D01*
X6358715Y9851086D01*
X6375747Y9887633D01*
X6382359Y9925966D01*
X6378978Y9964142D01*
X6366031Y10000213D01*
X6343948Y10032237D01*
X6313155Y10058267D01*
X5765544Y10408440D01*
X5728997Y10425472D01*
X5690664Y10432084D01*
X5652489Y10428702D01*
X5616417Y10415756D01*
X5584393Y10393673D01*
X5558363Y10362880D01*
X5288999Y9941642D01*
X5271967Y9905095D01*
X5265355Y9866762D01*
X5268736Y9828586D01*
X5281683Y9792515D01*
X5303766Y9760491D01*
X5334559Y9734461D01*
X5882170Y9384287D01*
G36*
X4555267Y10232784D02*
X4591813Y10215752D01*
X4630147Y10209140D01*
X4668322Y10212522D01*
X4704394Y10225468D01*
X4736418Y10247551D01*
X4762448Y10278344D01*
X5031812Y10699582D01*
X5048844Y10736129D01*
X5055456Y10774462D01*
X5052075Y10812638D01*
X5039128Y10848709D01*
X5017045Y10880733D01*
X4986252Y10906763D01*
X4438640Y11256939D01*
X4402093Y11273971D01*
X4363759Y11280583D01*
X4325584Y11277202D01*
X4289512Y11264255D01*
X4257488Y11242172D01*
X4231458Y11211379D01*
X3962094Y10790141D01*
X3945062Y10753594D01*
X3938450Y10715261D01*
X3941831Y10677086D01*
X3954778Y10641014D01*
X3976861Y10608990D01*
X4007654Y10582960D01*
X4555267Y10232784D01*
X4555267Y10232784D01*
G37*
X4555267Y10232784D02*
X4591813Y10215752D01*
X4630147Y10209140D01*
X4668322Y10212522D01*
X4704394Y10225468D01*
X4736418Y10247551D01*
X4762448Y10278344D01*
X5031812Y10699582D01*
X5048844Y10736129D01*
X5055456Y10774462D01*
X5052075Y10812638D01*
X5039128Y10848709D01*
X5017045Y10880733D01*
X4986252Y10906763D01*
X4438640Y11256939D01*
X4402093Y11273971D01*
X4363759Y11280583D01*
X4325584Y11277202D01*
X4289512Y11264255D01*
X4257488Y11242172D01*
X4231458Y11211379D01*
X3962094Y10790141D01*
X3945062Y10753594D01*
X3938450Y10715261D01*
X3941831Y10677086D01*
X3954778Y10641014D01*
X3976861Y10608990D01*
X4007654Y10582960D01*
X4555267Y10232784D01*
G36*
X-4586734Y-2383871D02*
X-4285044Y-1912081D01*
X-5144373Y-1362577D01*
X-5446062Y-1834367D01*
X-4586734Y-2383871D01*
X-4586734Y-2383871D01*
G37*
X-4586734Y-2383871D02*
X-4285044Y-1912081D01*
X-5144373Y-1362577D01*
X-5446062Y-1834367D01*
X-4586734Y-2383871D01*
G36*
X-2550337Y800698D02*
X-2248647Y1272488D01*
X-3107975Y1821992D01*
X-3409665Y1350202D01*
X-2550337Y800698D01*
X-2550337Y800698D01*
G37*
X-2550337Y800698D02*
X-2248647Y1272488D01*
X-3107975Y1821992D01*
X-3409665Y1350202D01*
X-2550337Y800698D01*
G36*
X-3661716Y-2013909D02*
X-2993690Y-969234D01*
X-4341655Y-107267D01*
X-5009681Y-1151942D01*
X-3661716Y-2013909D01*
X-3661716Y-2013909D01*
G37*
X-3661716Y-2013909D02*
X-2993690Y-969234D01*
X-4341655Y-107267D01*
X-5009681Y-1151942D01*
X-3661716Y-2013909D01*
G36*
X-2864400Y-767047D02*
X-2196376Y277625D01*
X-3544341Y1139592D01*
X-4212365Y94920D01*
X-2864400Y-767047D01*
X-2864400Y-767047D01*
G37*
X-2864400Y-767047D02*
X-2196376Y277625D01*
X-3544341Y1139592D01*
X-4212365Y94920D01*
X-2864400Y-767047D01*
G36*
X-6120083Y-1403359D02*
X-5818394Y-931569D01*
X-6677722Y-382065D01*
X-6979412Y-853855D01*
X-6120083Y-1403359D01*
X-6120083Y-1403359D01*
G37*
X-6120083Y-1403359D02*
X-5818394Y-931569D01*
X-6677722Y-382065D01*
X-6979412Y-853855D01*
X-6120083Y-1403359D01*
G36*
X-4083686Y1781210D02*
X-3781996Y2253000D01*
X-4641323Y2802503D01*
X-4943013Y2330713D01*
X-4083686Y1781210D01*
X-4083686Y1781210D01*
G37*
X-4083686Y1781210D02*
X-3781996Y2253000D01*
X-4641323Y2802503D01*
X-4943013Y2330713D01*
X-4083686Y1781210D01*
G36*
X-5683702Y-720934D02*
X-5015676Y323740D01*
X-6363641Y1185707D01*
X-7031667Y141033D01*
X-5683702Y-720934D01*
X-5683702Y-720934D01*
G37*
X-5683702Y-720934D02*
X-5015676Y323740D01*
X-6363641Y1185707D01*
X-7031667Y141033D01*
X-5683702Y-720934D01*
G36*
X-4886386Y525928D02*
X-4218362Y1570600D01*
X-5566328Y2432567D01*
X-6234351Y1387895D01*
X-4886386Y525928D01*
X-4886386Y525928D01*
G37*
X-4886386Y525928D02*
X-4218362Y1570600D01*
X-5566328Y2432567D01*
X-6234351Y1387895D01*
X-4886386Y525928D01*
G36*
X2098494Y-1507339D02*
X1796806Y-1979126D01*
X2656136Y-2528630D01*
X2957824Y-2056843D01*
X2098494Y-1507339D01*
X2098494Y-1507339D01*
G37*
X2098494Y-1507339D02*
X1796806Y-1979126D01*
X2656136Y-2528630D01*
X2957824Y-2056843D01*
X2098494Y-1507339D01*
G36*
X62097Y-4691908D02*
X-239592Y-5163697D01*
X619737Y-5713201D01*
X921426Y-5241412D01*
X62097Y-4691908D01*
X62097Y-4691908D01*
G37*
X62097Y-4691908D02*
X-239592Y-5163697D01*
X619737Y-5713201D01*
X921426Y-5241412D01*
X62097Y-4691908D01*
G36*
X1173477Y-1877300D02*
X505451Y-2921976D01*
X1853417Y-3783942D01*
X2521442Y-2739267D01*
X1173477Y-1877300D01*
X1173477Y-1877300D01*
G37*
X1173477Y-1877300D02*
X505451Y-2921976D01*
X1853417Y-3783942D01*
X2521442Y-2739267D01*
X1173477Y-1877300D01*
G36*
X376163Y-3124160D02*
X-291863Y-4168835D01*
X1056103Y-5030802D01*
X1724129Y-3986126D01*
X376163Y-3124160D01*
X376163Y-3124160D01*
G37*
X376163Y-3124160D02*
X-291863Y-4168835D01*
X1056103Y-5030802D01*
X1724129Y-3986126D01*
X376163Y-3124160D01*
G36*
X3631844Y-2487851D02*
X3330156Y-2959638D01*
X4189485Y-3509143D01*
X4491173Y-3037355D01*
X3631844Y-2487851D01*
X3631844Y-2487851D01*
G37*
X3631844Y-2487851D02*
X3330156Y-2959638D01*
X4189485Y-3509143D01*
X4491173Y-3037355D01*
X3631844Y-2487851D01*
G36*
X1595446Y-5672420D02*
X1293757Y-6144209D01*
X2153086Y-6693713D01*
X2454775Y-6221924D01*
X1595446Y-5672420D01*
X1595446Y-5672420D01*
G37*
X1595446Y-5672420D02*
X1293757Y-6144209D01*
X2153086Y-6693713D01*
X2454775Y-6221924D01*
X1595446Y-5672420D01*
G36*
X3195462Y-3170274D02*
X2527437Y-4214950D01*
X3875402Y-5076917D01*
X4543428Y-4032241D01*
X3195462Y-3170274D01*
X3195462Y-3170274D01*
G37*
X3195462Y-3170274D02*
X2527437Y-4214950D01*
X3875402Y-5076917D01*
X4543428Y-4032241D01*
X3195462Y-3170274D01*
G36*
X2398149Y-4417134D02*
X1730123Y-5461809D01*
X3078088Y-6323776D01*
X3746114Y-5279100D01*
X2398149Y-4417134D01*
X2398149Y-4417134D01*
G37*
X2398149Y-4417134D02*
X1730123Y-5461809D01*
X3078088Y-6323776D01*
X3746114Y-5279100D01*
X2398149Y-4417134D01*
G36*
X-104872Y3863955D02*
X366915Y3562267D01*
X916420Y4421595D01*
X444632Y4723283D01*
X-104872Y3863955D01*
X-104872Y3863955D01*
G37*
X-104872Y3863955D02*
X366915Y3562267D01*
X916420Y4421595D01*
X444632Y4723283D01*
X-104872Y3863955D01*
G36*
X3079697Y1827558D02*
X3551486Y1525869D01*
X4100990Y2385197D01*
X3629201Y2686886D01*
X3079697Y1827558D01*
X3079697Y1827558D01*
G37*
X3079697Y1827558D02*
X3551486Y1525869D01*
X4100990Y2385197D01*
X3629201Y2686886D01*
X3079697Y1827558D01*
G36*
X265088Y2938935D02*
X1309761Y2270911D01*
X2171729Y3618878D01*
X1127056Y4286902D01*
X265088Y2938935D01*
X265088Y2938935D01*
G37*
X265088Y2938935D02*
X1309761Y2270911D01*
X2171729Y3618878D01*
X1127056Y4286902D01*
X265088Y2938935D01*
G36*
X1511948Y2141621D02*
X2556623Y1473596D01*
X3418591Y2821562D01*
X2373916Y3489588D01*
X1511948Y2141621D01*
X1511948Y2141621D01*
G37*
X1511948Y2141621D02*
X2556623Y1473596D01*
X3418591Y2821562D01*
X2373916Y3489588D01*
X1511948Y2141621D01*
G36*
X875640Y5397304D02*
X1347427Y5095616D01*
X1896931Y5954943D01*
X1425143Y6256631D01*
X875640Y5397304D01*
X875640Y5397304D01*
G37*
X875640Y5397304D02*
X1347427Y5095616D01*
X1896931Y5954943D01*
X1425143Y6256631D01*
X875640Y5397304D01*
G36*
X4060209Y3360907D02*
X4531998Y3059218D01*
X5081501Y3918544D01*
X4609712Y4220234D01*
X4060209Y3360907D01*
X4060209Y3360907D01*
G37*
X4060209Y3360907D02*
X4531998Y3059218D01*
X5081501Y3918544D01*
X4609712Y4220234D01*
X4060209Y3360907D01*
G36*
X1558064Y4960923D02*
X2602737Y4292899D01*
X3464704Y5640864D01*
X2420031Y6308888D01*
X1558064Y4960923D01*
X1558064Y4960923D01*
G37*
X1558064Y4960923D02*
X2602737Y4292899D01*
X3464704Y5640864D01*
X2420031Y6308888D01*
X1558064Y4960923D01*
G36*
X2804924Y4163609D02*
X3849599Y3495583D01*
X4711565Y4843549D01*
X3666891Y5511574D01*
X2804924Y4163609D01*
X2804924Y4163609D01*
G37*
X2804924Y4163609D02*
X3849599Y3495583D01*
X4711565Y4843549D01*
X3666891Y5511574D01*
X2804924Y4163609D01*
G36*
X-15777010Y20341837D02*
X-15793813Y20378518D01*
X-15818730Y20408462D01*
X-15849999Y20430715D01*
X-15885861Y20444321D01*
X-15924556Y20448323D01*
X-15964322Y20441767D01*
X-16250910Y20354027D01*
X-16221560Y20258167D01*
X-16214999Y20218390D01*
X-16218999Y20179693D01*
X-16232605Y20143832D01*
X-16254861Y20112566D01*
X-16284811Y20087652D01*
X-16321500Y20070848D01*
X-16512713Y20012308D01*
X-16552482Y20005706D01*
X-16591152Y20009612D01*
X-16626976Y20023097D01*
X-16658204Y20045230D01*
X-16683087Y20075084D01*
X-16699877Y20111728D01*
X-16729227Y20207588D01*
X-17015840Y20119838D01*
X-17052502Y20102996D01*
X-17082414Y20077990D01*
X-17104627Y20046605D01*
X-17118192Y20010625D01*
X-17122159Y19971836D01*
X-17115580Y19932022D01*
X-16925420Y19310908D01*
X-16908581Y19274238D01*
X-16883576Y19244321D01*
X-16852191Y19222104D01*
X-16816212Y19208536D01*
X-16777426Y19204565D01*
X-16737620Y19211138D01*
X-15686110Y19533070D01*
X-15649484Y19549901D01*
X-15619659Y19574878D01*
X-15597560Y19606226D01*
X-15584107Y19642169D01*
X-15580223Y19680928D01*
X-15586830Y19720729D01*
X-15777010Y20341837D01*
X-15777010Y20341837D01*
G37*
X-15777010Y20341837D02*
X-15793813Y20378518D01*
X-15818730Y20408462D01*
X-15849999Y20430715D01*
X-15885861Y20444321D01*
X-15924556Y20448323D01*
X-15964322Y20441767D01*
X-16250910Y20354027D01*
X-16221560Y20258167D01*
X-16214999Y20218390D01*
X-16218999Y20179693D01*
X-16232605Y20143832D01*
X-16254861Y20112566D01*
X-16284811Y20087652D01*
X-16321500Y20070848D01*
X-16512713Y20012308D01*
X-16552482Y20005706D01*
X-16591152Y20009612D01*
X-16626976Y20023097D01*
X-16658204Y20045230D01*
X-16683087Y20075084D01*
X-16699877Y20111728D01*
X-16729227Y20207588D01*
X-17015840Y20119838D01*
X-17052502Y20102996D01*
X-17082414Y20077990D01*
X-17104627Y20046605D01*
X-17118192Y20010625D01*
X-17122159Y19971836D01*
X-17115580Y19932022D01*
X-16925420Y19310908D01*
X-16908581Y19274238D01*
X-16883576Y19244321D01*
X-16852191Y19222104D01*
X-16816212Y19208536D01*
X-16777426Y19204565D01*
X-16737620Y19211138D01*
X-15686110Y19533070D01*
X-15649484Y19549901D01*
X-15619659Y19574878D01*
X-15597560Y19606226D01*
X-15584107Y19642169D01*
X-15580223Y19680928D01*
X-15586830Y19720729D01*
X-15777010Y20341837D01*
G36*
X-16377146Y22302030D02*
X-16393985Y22338700D01*
X-16418991Y22368617D01*
X-16450379Y22390833D01*
X-16486363Y22404399D01*
X-16525155Y22408368D01*
X-16564972Y22401790D01*
X-17616482Y22079859D01*
X-17653154Y22063017D01*
X-17683069Y22038012D01*
X-17705281Y22006627D01*
X-17718843Y21970649D01*
X-17722809Y21931862D01*
X-17716232Y21892051D01*
X-17526069Y21270936D01*
X-17509232Y21234266D01*
X-17484231Y21204347D01*
X-17452849Y21182129D01*
X-17416872Y21168561D01*
X-17378084Y21164590D01*
X-17338269Y21171166D01*
X-17051655Y21258916D01*
X-17081005Y21354776D01*
X-17087603Y21394541D01*
X-17083696Y21433210D01*
X-17070211Y21469034D01*
X-17048078Y21500264D01*
X-17018223Y21525151D01*
X-16981575Y21541945D01*
X-16790364Y21600485D01*
X-16750558Y21607098D01*
X-16711794Y21603219D01*
X-16675849Y21589770D01*
X-16644501Y21567671D01*
X-16619525Y21537842D01*
X-16602698Y21501205D01*
X-16573348Y21405345D01*
X-16286759Y21493085D01*
X-16250095Y21509927D01*
X-16220178Y21534934D01*
X-16197958Y21566319D01*
X-16184384Y21602299D01*
X-16180408Y21641087D01*
X-16186979Y21680900D01*
X-16377146Y22302030D01*
X-16377146Y22302030D01*
G37*
X-16377146Y22302030D02*
X-16393985Y22338700D01*
X-16418991Y22368617D01*
X-16450379Y22390833D01*
X-16486363Y22404399D01*
X-16525155Y22408368D01*
X-16564972Y22401790D01*
X-17616482Y22079859D01*
X-17653154Y22063017D01*
X-17683069Y22038012D01*
X-17705281Y22006627D01*
X-17718843Y21970649D01*
X-17722809Y21931862D01*
X-17716232Y21892051D01*
X-17526069Y21270936D01*
X-17509232Y21234266D01*
X-17484231Y21204347D01*
X-17452849Y21182129D01*
X-17416872Y21168561D01*
X-17378084Y21164590D01*
X-17338269Y21171166D01*
X-17051655Y21258916D01*
X-17081005Y21354776D01*
X-17087603Y21394541D01*
X-17083696Y21433210D01*
X-17070211Y21469034D01*
X-17048078Y21500264D01*
X-17018223Y21525151D01*
X-16981575Y21541945D01*
X-16790364Y21600485D01*
X-16750558Y21607098D01*
X-16711794Y21603219D01*
X-16675849Y21589770D01*
X-16644501Y21567671D01*
X-16619525Y21537842D01*
X-16602698Y21501205D01*
X-16573348Y21405345D01*
X-16286759Y21493085D01*
X-16250095Y21509927D01*
X-16220178Y21534934D01*
X-16197958Y21566319D01*
X-16184384Y21602299D01*
X-16180408Y21641087D01*
X-16186979Y21680900D01*
X-16377146Y22302030D01*
G36*
X1408597Y25604421D02*
X1391794Y25641102D01*
X1366877Y25671046D01*
X1335608Y25693299D01*
X1299746Y25706905D01*
X1261052Y25710907D01*
X1221285Y25704351D01*
X934698Y25616611D01*
X964048Y25520751D01*
X970609Y25480974D01*
X966609Y25442276D01*
X953003Y25406415D01*
X930747Y25375149D01*
X900797Y25350235D01*
X864108Y25333432D01*
X672895Y25274892D01*
X633127Y25268291D01*
X594457Y25272199D01*
X558634Y25285685D01*
X527407Y25307819D01*
X502522Y25337671D01*
X485728Y25374312D01*
X456378Y25470172D01*
X169762Y25382422D01*
X133101Y25365580D01*
X103189Y25340575D01*
X80975Y25309192D01*
X67409Y25273214D01*
X63438Y25234426D01*
X70012Y25194614D01*
X260174Y24573498D01*
X277013Y24536828D01*
X302018Y24506911D01*
X333403Y24484694D01*
X369381Y24471126D01*
X408167Y24467155D01*
X447973Y24473728D01*
X1499484Y24795661D01*
X1536110Y24812492D01*
X1565934Y24837469D01*
X1588034Y24868817D01*
X1601487Y24904759D01*
X1605371Y24943519D01*
X1598764Y24983320D01*
X1408597Y25604421D01*
X1408597Y25604421D01*
G37*
X1408597Y25604421D02*
X1391794Y25641102D01*
X1366877Y25671046D01*
X1335608Y25693299D01*
X1299746Y25706905D01*
X1261052Y25710907D01*
X1221285Y25704351D01*
X934698Y25616611D01*
X964048Y25520751D01*
X970609Y25480974D01*
X966609Y25442276D01*
X953003Y25406415D01*
X930747Y25375149D01*
X900797Y25350235D01*
X864108Y25333432D01*
X672895Y25274892D01*
X633127Y25268291D01*
X594457Y25272199D01*
X558634Y25285685D01*
X527407Y25307819D01*
X502522Y25337671D01*
X485728Y25374312D01*
X456378Y25470172D01*
X169762Y25382422D01*
X133101Y25365580D01*
X103189Y25340575D01*
X80975Y25309192D01*
X67409Y25273214D01*
X63438Y25234426D01*
X70012Y25194614D01*
X260174Y24573498D01*
X277013Y24536828D01*
X302018Y24506911D01*
X333403Y24484694D01*
X369381Y24471126D01*
X408167Y24467155D01*
X447973Y24473728D01*
X1499484Y24795661D01*
X1536110Y24812492D01*
X1565934Y24837469D01*
X1588034Y24868817D01*
X1601487Y24904759D01*
X1605371Y24943519D01*
X1598764Y24983320D01*
X1408597Y25604421D01*
G36*
X808463Y27564614D02*
X791624Y27601284D01*
X766617Y27631201D01*
X735230Y27653417D01*
X699246Y27666984D01*
X660454Y27670952D01*
X620638Y27664374D01*
X-430874Y27342444D01*
X-467546Y27325602D01*
X-497461Y27300597D01*
X-519673Y27269212D01*
X-533235Y27233234D01*
X-537201Y27194446D01*
X-530624Y27154635D01*
X-340462Y26533514D01*
X-323625Y26496844D01*
X-298624Y26466925D01*
X-267242Y26444707D01*
X-231265Y26431139D01*
X-192477Y26427168D01*
X-152662Y26433744D01*
X133952Y26521494D01*
X104602Y26617354D01*
X98004Y26657119D01*
X101911Y26695788D01*
X115394Y26731611D01*
X137526Y26762841D01*
X167378Y26787727D01*
X204022Y26804521D01*
X395233Y26863061D01*
X435039Y26869674D01*
X473803Y26865795D01*
X509748Y26852346D01*
X541096Y26830247D01*
X566072Y26800418D01*
X582899Y26763781D01*
X612249Y26667921D01*
X898836Y26755661D01*
X935500Y26772503D01*
X965417Y26797510D01*
X987638Y26828896D01*
X1001212Y26864876D01*
X1005188Y26903666D01*
X998616Y26943479D01*
X808463Y27564614D01*
X808463Y27564614D01*
G37*
X808463Y27564614D02*
X791624Y27601284D01*
X766617Y27631201D01*
X735230Y27653417D01*
X699246Y27666984D01*
X660454Y27670952D01*
X620638Y27664374D01*
X-430874Y27342444D01*
X-467546Y27325602D01*
X-497461Y27300597D01*
X-519673Y27269212D01*
X-533235Y27233234D01*
X-537201Y27194446D01*
X-530624Y27154635D01*
X-340462Y26533514D01*
X-323625Y26496844D01*
X-298624Y26466925D01*
X-267242Y26444707D01*
X-231265Y26431139D01*
X-192477Y26427168D01*
X-152662Y26433744D01*
X133952Y26521494D01*
X104602Y26617354D01*
X98004Y26657119D01*
X101911Y26695788D01*
X115394Y26731611D01*
X137526Y26762841D01*
X167378Y26787727D01*
X204022Y26804521D01*
X395233Y26863061D01*
X435039Y26869674D01*
X473803Y26865795D01*
X509748Y26852346D01*
X541096Y26830247D01*
X566072Y26800418D01*
X582899Y26763781D01*
X612249Y26667921D01*
X898836Y26755661D01*
X935500Y26772503D01*
X965417Y26797510D01*
X987638Y26828896D01*
X1001212Y26864876D01*
X1005188Y26903666D01*
X998616Y26943479D01*
X808463Y27564614D01*
G36*
X4060219Y23976321D02*
X4022157Y23971676D01*
X3986001Y23957190D01*
X3953765Y23932911D01*
X3490744Y23477125D01*
X3466022Y23445257D01*
X3451070Y23409302D01*
X3445899Y23371266D01*
X3450520Y23333156D01*
X3464945Y23296976D01*
X3489184Y23264735D01*
X3840067Y22908684D01*
X3871897Y22883961D01*
X3907756Y22869007D01*
X3945668Y22863833D01*
X3983654Y22868448D01*
X4019737Y22882862D01*
X4051940Y22907084D01*
X4514961Y23362868D01*
X4539722Y23394736D01*
X4554769Y23430691D01*
X4560063Y23468727D01*
X4555563Y23506838D01*
X4541229Y23543017D01*
X4517021Y23575259D01*
X4166142Y23931309D01*
X4134240Y23956056D01*
X4098232Y23971062D01*
X4060205Y23976269D01*
X4060219Y23976321D01*
X4060219Y23976321D01*
G37*
X4060219Y23976321D02*
X4022157Y23971676D01*
X3986001Y23957190D01*
X3953765Y23932911D01*
X3490744Y23477125D01*
X3466022Y23445257D01*
X3451070Y23409302D01*
X3445899Y23371266D01*
X3450520Y23333156D01*
X3464945Y23296976D01*
X3489184Y23264735D01*
X3840067Y22908684D01*
X3871897Y22883961D01*
X3907756Y22869007D01*
X3945668Y22863833D01*
X3983654Y22868448D01*
X4019737Y22882862D01*
X4051940Y22907084D01*
X4514961Y23362868D01*
X4539722Y23394736D01*
X4554769Y23430691D01*
X4560063Y23468727D01*
X4555563Y23506838D01*
X4541229Y23543017D01*
X4517021Y23575259D01*
X4166142Y23931309D01*
X4134240Y23956056D01*
X4098232Y23971062D01*
X4060205Y23976269D01*
X4060219Y23976321D01*
G36*
X5182631Y25081679D02*
X5144569Y25077034D01*
X5108413Y25062548D01*
X5076177Y25038269D01*
X4613156Y24581966D01*
X4588396Y24550137D01*
X4573349Y24514278D01*
X4568055Y24476366D01*
X4572555Y24438379D01*
X4586888Y24402296D01*
X4611096Y24370093D01*
X4961979Y24013526D01*
X4993847Y23988803D01*
X5029802Y23973849D01*
X5067838Y23968675D01*
X5105949Y23973290D01*
X5142128Y23987704D01*
X5174370Y24011926D01*
X5637387Y24468228D01*
X5662109Y24500057D01*
X5677061Y24535916D01*
X5682232Y24573828D01*
X5677611Y24611815D01*
X5663186Y24647898D01*
X5638947Y24680101D01*
X5288065Y25036668D01*
X5256296Y25061415D01*
X5220538Y25076421D01*
X5182645Y25081628D01*
X5182631Y25081679D01*
X5182631Y25081679D01*
G37*
X5182631Y25081679D02*
X5144569Y25077034D01*
X5108413Y25062548D01*
X5076177Y25038269D01*
X4613156Y24581966D01*
X4588396Y24550137D01*
X4573349Y24514278D01*
X4568055Y24476366D01*
X4572555Y24438379D01*
X4586888Y24402296D01*
X4611096Y24370093D01*
X4961979Y24013526D01*
X4993847Y23988803D01*
X5029802Y23973849D01*
X5067838Y23968675D01*
X5105949Y23973290D01*
X5142128Y23987704D01*
X5174370Y24011926D01*
X5637387Y24468228D01*
X5662109Y24500057D01*
X5677061Y24535916D01*
X5682232Y24573828D01*
X5677611Y24611815D01*
X5663186Y24647898D01*
X5638947Y24680101D01*
X5288065Y25036668D01*
X5256296Y25061415D01*
X5220538Y25076421D01*
X5182645Y25081628D01*
X5182631Y25081679D01*
G04 #@! TD*
M02*
